%TF.GenerationSoftware,KiCad,Pcbnew,10.0.5*%
%TF.CreationDate,2026-08-15T08:53:45+09:00*%
%TF.ProjectId,osr-cdi15x,6f73722d-6364-4693-9135-782e6b696361,rev?*%
%TF.SameCoordinates,Original*%
%TF.FileFunction,Legend,Bot*%
%TF.FilePolarity,Positive*%
%FSLAX46Y46*%
G04 Gerber Fmt 4.6, Leading zero omitted, Abs format (unit mm)*
G04 Created by KiCad (PCBNEW 10.0.5) date 2026-08-15 08:53:45*
%MOMM*%
%LPD*%
G01*
G04 APERTURE LIST*
G04 Aperture macros list*
%AMRoundRect*
0 Rectangle with rounded corners*
0 $1 Rounding radius*
0 $2 $3 $4 $5 $6 $7 $8 $9 X,Y pos of 4 corners*
0 Add a 4 corners polygon primitive as box body*
4,1,4,$2,$3,$4,$5,$6,$7,$8,$9,$2,$3,0*
0 Add four circle primitives for the rounded corners*
1,1,$1+$1,$2,$3*
1,1,$1+$1,$4,$5*
1,1,$1+$1,$6,$7*
1,1,$1+$1,$8,$9*
0 Add four rect primitives between the rounded corners*
20,1,$1+$1,$2,$3,$4,$5,0*
20,1,$1+$1,$4,$5,$6,$7,0*
20,1,$1+$1,$6,$7,$8,$9,0*
20,1,$1+$1,$8,$9,$2,$3,0*%
G04 Aperture macros list end*
%ADD10C,0.500000*%
%ADD11C,0.000000*%
%ADD12C,2.500000*%
%ADD13RoundRect,0.250000X-0.550000X-0.550000X0.550000X-0.550000X0.550000X0.550000X-0.550000X0.550000X0*%
%ADD14RoundRect,0.250000X-1.000000X-1.000000X1.000000X-1.000000X1.000000X1.000000X-1.000000X1.000000X0*%
%ADD15O,2.100000X1.000000*%
%ADD16O,1.600000X1.000000*%
%ADD17C,1.600000*%
%ADD18C,2.540000*%
G04 APERTURE END LIST*
D10*
G36*
X49984291Y79652225D02*
G01*
X50293299Y79540394D01*
X50568599Y79376445D01*
X50815117Y79159995D01*
X51029321Y78895239D01*
X51207382Y78585261D01*
X51350496Y78223981D01*
X51457551Y77803169D01*
X51525183Y77312811D01*
X51544485Y76872443D01*
X51523773Y76484457D01*
X51467154Y76141731D01*
X51377164Y75838000D01*
X51249806Y75548746D01*
X51100552Y75303285D01*
X50929101Y75097218D01*
X50734035Y74927603D01*
X50443976Y74758809D01*
X50083939Y74634505D01*
X49640156Y74562207D01*
X49303128Y74554467D01*
X49004697Y74590158D01*
X48739759Y74664766D01*
X48503749Y74775384D01*
X48277809Y74928820D01*
X48077921Y75113607D01*
X47901594Y75330987D01*
X47747286Y75583560D01*
X47625016Y75854730D01*
X47522660Y76174653D01*
X47442209Y76550837D01*
X47386749Y76991812D01*
X47368674Y77476844D01*
X48604369Y77476844D01*
X48618372Y77116727D01*
X48674261Y76683504D01*
X48749481Y76365753D01*
X48838185Y76138757D01*
X48937092Y75981866D01*
X49066627Y75853948D01*
X49213862Y75766689D01*
X49383145Y75719037D01*
X49580314Y75714202D01*
X49767433Y75752665D01*
X49923550Y75829367D01*
X50054185Y75942929D01*
X50162806Y76095844D01*
X50237540Y76272418D01*
X50288065Y76504493D01*
X50309225Y76806414D01*
X50292922Y77195195D01*
X50240998Y77584585D01*
X50167228Y77880221D01*
X50076720Y78100735D01*
X49972107Y78261531D01*
X49837695Y78394260D01*
X49690795Y78483559D01*
X49527916Y78531877D01*
X49344331Y78537595D01*
X49155528Y78499245D01*
X48997882Y78423193D01*
X48865902Y78310959D01*
X48756061Y78160351D01*
X48678882Y77985493D01*
X48626906Y77761651D01*
X48604369Y77476844D01*
X47368674Y77476844D01*
X47368576Y77479478D01*
X47400795Y77906111D01*
X47478394Y78280938D01*
X47598889Y78611814D01*
X47762443Y78904873D01*
X47965030Y79154649D01*
X48207700Y79360356D01*
X48495878Y79522674D01*
X48836854Y79639337D01*
X49239477Y79705266D01*
X49635402Y79709134D01*
X49984291Y79652225D01*
G37*
G36*
X47013154Y76083236D02*
G01*
X45831835Y76072745D01*
X45814853Y75834380D01*
X45777713Y75651580D01*
X45724364Y75513229D01*
X45631976Y75372773D01*
X45517633Y75268312D01*
X45377790Y75197442D01*
X45206654Y75161772D01*
X45033005Y75166070D01*
X44895677Y75207241D01*
X44786370Y75280075D01*
X44694992Y75384778D01*
X44638519Y75498269D01*
X44612089Y75624317D01*
X44615906Y75746909D01*
X44649802Y75864533D01*
X44717900Y75981417D01*
X44812878Y76072788D01*
X45000056Y76185933D01*
X45324396Y76324093D01*
X45730985Y76499737D01*
X46039158Y76676997D01*
X46266510Y76853485D01*
X46428369Y77028101D01*
X46564252Y77244541D01*
X46652040Y77478008D01*
X46695191Y77733381D01*
X46692896Y78017543D01*
X46651589Y78264670D01*
X46571923Y78499340D01*
X46451245Y78725493D01*
X46298730Y78919271D01*
X46106714Y79082121D01*
X45868150Y79213866D01*
X45615109Y79293649D01*
X45288029Y79333889D01*
X44869811Y79322969D01*
X44481249Y79262143D01*
X44171007Y79161284D01*
X43925894Y79027369D01*
X43734795Y78864486D01*
X43577284Y78652960D01*
X43460997Y78393245D01*
X43385842Y78075990D01*
X43356179Y77688229D01*
X44525991Y77704150D01*
X44552732Y77926181D01*
X44604345Y78092321D01*
X44677455Y78214802D01*
X44775834Y78306385D01*
X44905231Y78370816D01*
X45073704Y78404849D01*
X45273880Y78390549D01*
X45407723Y78319759D01*
X45501014Y78199939D01*
X45540592Y78053722D01*
X45528977Y77942537D01*
X45469436Y77832967D01*
X45356625Y77740131D01*
X45071551Y77613969D01*
X44543290Y77403081D01*
X44183279Y77224277D01*
X43951750Y77074069D01*
X43745899Y76887430D01*
X43595027Y76689440D01*
X43490900Y76479040D01*
X43422615Y76245054D01*
X43390765Y75996842D01*
X43395844Y75729986D01*
X43446688Y75421394D01*
X43542515Y75135621D01*
X43685342Y74867471D01*
X43865348Y74636255D01*
X44079274Y74450244D01*
X44332295Y74307761D01*
X44601420Y74219982D01*
X44924341Y74175811D01*
X45311366Y74183487D01*
X45741999Y74247016D01*
X46078836Y74346673D01*
X46338226Y74474628D01*
X46534287Y74625624D01*
X46678447Y74797427D01*
X46829024Y75071822D01*
X46934711Y75373911D01*
X46996653Y75708820D01*
X47013154Y76083236D01*
G37*
G36*
X42901591Y74051116D02*
G01*
X41662882Y73942743D01*
X41485773Y75967110D01*
X41377012Y75957595D01*
X41218835Y75914351D01*
X41084928Y75815582D01*
X41002289Y75686609D01*
X40895444Y75411627D01*
X40369915Y73829623D01*
X38976216Y73707690D01*
X39446340Y75199955D01*
X39592088Y75526531D01*
X39701086Y75718664D01*
X39766372Y75807182D01*
X39876771Y75902451D01*
X40071368Y76020199D01*
X39805358Y76091585D01*
X39621270Y76179413D01*
X39454667Y76304440D01*
X39311529Y76455102D01*
X39189558Y76632914D01*
X39094408Y76833453D01*
X39025866Y77065729D01*
X38988363Y77315870D01*
X40235060Y77315870D01*
X40268081Y77163426D01*
X40337929Y77034030D01*
X40435883Y76939762D01*
X40551609Y76895199D01*
X40884070Y76855943D01*
X41404030Y76901434D01*
X41315476Y77913618D01*
X40773860Y77866233D01*
X40550321Y77827917D01*
X40408902Y77768712D01*
X40325307Y77696740D01*
X40266939Y77595270D01*
X40236345Y77470879D01*
X40235060Y77315870D01*
X38988363Y77315870D01*
X38985365Y77335866D01*
X38980108Y77647845D01*
X39019227Y77919625D01*
X39099907Y78159258D01*
X39219829Y78370220D01*
X39367907Y78534282D01*
X39547320Y78655655D01*
X39746975Y78735852D01*
X40027744Y78804214D01*
X40410361Y78854362D01*
X42465630Y79034175D01*
X42901591Y74051116D01*
G37*
G36*
X38660908Y76053406D02*
G01*
X37049443Y75912421D01*
X37143107Y74841842D01*
X38754572Y74982827D01*
X38660908Y76053406D01*
G37*
G36*
X33888555Y75322054D02*
G01*
X32843599Y74817817D01*
X32965828Y74457558D01*
X33108075Y74154720D01*
X33269425Y73901951D01*
X33459089Y73683635D01*
X33668661Y73510412D01*
X33900832Y73379803D01*
X34146248Y73298276D01*
X34442926Y73257004D01*
X34800956Y73263946D01*
X35230253Y73331394D01*
X35572824Y73443451D01*
X35843397Y73592355D01*
X36024052Y73743564D01*
X36190508Y73938743D01*
X36343530Y74182926D01*
X36482876Y74482819D01*
X36582041Y74794747D01*
X36645138Y75150856D01*
X36669207Y75558633D01*
X36649373Y76026670D01*
X36581326Y76526346D01*
X36475401Y76951164D01*
X36335351Y77312004D01*
X36162728Y77617907D01*
X35956799Y77875691D01*
X35718300Y78086535D01*
X35449974Y78246625D01*
X35146693Y78356087D01*
X34802033Y78411836D01*
X34408550Y78407728D01*
X34028688Y78346804D01*
X33716830Y78242386D01*
X33462343Y78100442D01*
X33256361Y77924144D01*
X33079506Y77700647D01*
X32930335Y77427434D01*
X32808922Y77097413D01*
X32717303Y76701364D01*
X33832606Y76494003D01*
X33877451Y76709686D01*
X33923153Y76837816D01*
X34025074Y77005194D01*
X34152627Y77132182D01*
X34302932Y77216694D01*
X34479098Y77256670D01*
X34683165Y77246786D01*
X34860226Y77182971D01*
X35017104Y77066622D01*
X35158245Y76892240D01*
X35263692Y76680232D01*
X35351053Y76369153D01*
X35412839Y75927068D01*
X35434056Y75490922D01*
X35417819Y75169436D01*
X35374303Y74937821D01*
X35310627Y74774994D01*
X35213072Y74632885D01*
X35093408Y74526927D01*
X34948050Y74454938D01*
X34771285Y74418580D01*
X34541187Y74429473D01*
X34359722Y74498790D01*
X34214689Y74620882D01*
X34095494Y74790036D01*
X33986260Y75019181D01*
X33888555Y75322054D01*
G37*
G36*
X32370986Y73129807D02*
G01*
X30539079Y72969536D01*
X30199436Y72971932D01*
X29792135Y73041179D01*
X29594973Y73110161D01*
X29399093Y73224461D01*
X29202249Y73388594D01*
X29025573Y73586276D01*
X28869592Y73819091D01*
X28733579Y74090780D01*
X28632293Y74384423D01*
X28545524Y74784416D01*
X28479429Y75317103D01*
X28460996Y75809542D01*
X29701575Y75809542D01*
X29720715Y75393215D01*
X29769115Y74990942D01*
X29826875Y74715428D01*
X29889173Y74535434D01*
X29976684Y74375269D01*
X30072503Y74260406D01*
X30177651Y74183408D01*
X30296009Y74140190D01*
X30475409Y74116967D01*
X30736906Y74124459D01*
X31039101Y74150898D01*
X30800685Y76876008D01*
X30493136Y76849101D01*
X30252654Y76805865D01*
X30069743Y76729615D01*
X29932725Y76625973D01*
X29832834Y76496508D01*
X29766005Y76339349D01*
X29720011Y76117018D01*
X29701575Y75809542D01*
X28460996Y75809542D01*
X28460604Y75820001D01*
X28493054Y76290723D01*
X28547160Y76592751D01*
X28629232Y76867190D01*
X28738973Y77117334D01*
X28877886Y77341444D01*
X29045331Y77532499D01*
X29243991Y77692323D01*
X29462801Y77808616D01*
X29744696Y77897623D01*
X30103118Y77952595D01*
X31935025Y78112866D01*
X32370986Y73129807D01*
G37*
G36*
X27565359Y77730570D02*
G01*
X26329570Y77622452D01*
X26765531Y72639393D01*
X28001320Y72747511D01*
X27565359Y77730570D01*
G37*
D11*
%TO.C,G\u002A\u002A\u002A*%
G36*
X43625302Y66624669D02*
G01*
X43726105Y66573770D01*
X43815729Y66494612D01*
X43883862Y66417209D01*
X44306760Y66416857D01*
X44333609Y66416831D01*
X44458856Y66416501D01*
X44556597Y66415583D01*
X44631742Y66413716D01*
X44689200Y66410535D01*
X44733882Y66405678D01*
X44770698Y66398784D01*
X44804556Y66389487D01*
X44840367Y66377427D01*
X44850412Y66373819D01*
X44914518Y66347498D01*
X44978894Y66314523D01*
X45045945Y66272842D01*
X45118074Y66220402D01*
X45197686Y66155151D01*
X45287184Y66075037D01*
X45388973Y65978007D01*
X45505455Y65862009D01*
X45639036Y65724992D01*
X45792119Y65564902D01*
X45855562Y65498772D01*
X45938134Y65414667D01*
X46014529Y65338972D01*
X46080624Y65275692D01*
X46132294Y65228834D01*
X46165414Y65202402D01*
X46192190Y65185235D01*
X46228666Y65166365D01*
X46266587Y65155934D01*
X46316577Y65151480D01*
X46389259Y65150542D01*
X46534811Y65150542D01*
X46584202Y65238058D01*
X46592301Y65251903D01*
X46671542Y65355703D01*
X46772525Y65446304D01*
X46885073Y65514363D01*
X46899588Y65521014D01*
X46949058Y65540414D01*
X46997705Y65551834D01*
X47056895Y65557266D01*
X47137992Y65558704D01*
X47189456Y65558405D01*
X47253498Y65555372D01*
X47303368Y65547165D01*
X47350919Y65531469D01*
X47408004Y65505969D01*
X47528450Y65434058D01*
X47632911Y65335985D01*
X47711973Y65216359D01*
X47765337Y65075542D01*
X47767363Y65067816D01*
X47784912Y64968478D01*
X47783138Y64871766D01*
X47761877Y64762903D01*
X47730758Y64670488D01*
X47661854Y64546589D01*
X47569375Y64443683D01*
X47456517Y64364394D01*
X47326476Y64311345D01*
X47182447Y64287161D01*
X47079183Y64287951D01*
X46938100Y64314656D01*
X46811299Y64371300D01*
X46699906Y64457324D01*
X46605052Y64572172D01*
X46530444Y64683875D01*
X45804128Y64683875D01*
X45077812Y64683875D01*
X44970402Y64595001D01*
X44952542Y64579702D01*
X44895535Y64527085D01*
X44826413Y64459457D01*
X44752319Y64383902D01*
X44680398Y64307501D01*
X44574012Y64193150D01*
X44439131Y64052224D01*
X44311972Y63923919D01*
X44195242Y63810844D01*
X44091651Y63715609D01*
X44003907Y63640824D01*
X43934720Y63589098D01*
X43835642Y63527035D01*
X43744595Y63481359D01*
X43657414Y63452794D01*
X43563945Y63438059D01*
X43454034Y63433875D01*
X43287992Y63433875D01*
X43287992Y63325542D01*
X43287992Y63217209D01*
X42837992Y63217209D01*
X42387992Y63217209D01*
X42387992Y63659148D01*
X42387992Y64101087D01*
X42833826Y64096648D01*
X43279659Y64092209D01*
X43284621Y63988042D01*
X43289583Y63883875D01*
X43410000Y63883875D01*
X43413099Y63883877D01*
X43479538Y63885795D01*
X43528979Y63894115D01*
X43576283Y63912940D01*
X43636311Y63946375D01*
X43696686Y63987943D01*
X43778248Y64054668D01*
X43874907Y64141872D01*
X43983707Y64246700D01*
X44101693Y64366302D01*
X44225908Y64497825D01*
X44353398Y64638415D01*
X44393803Y64683875D01*
X43140898Y64683875D01*
X41887992Y64683875D01*
X41887992Y64417209D01*
X41887791Y64357702D01*
X41886761Y64275437D01*
X41885007Y64209770D01*
X41882697Y64166279D01*
X41879998Y64150542D01*
X41869609Y64155979D01*
X41835155Y64177007D01*
X41781291Y64211066D01*
X41712725Y64255173D01*
X41634165Y64306345D01*
X41573575Y64346038D01*
X41393210Y64464248D01*
X41238440Y64565773D01*
X41107492Y64651789D01*
X40998593Y64723473D01*
X40909968Y64782002D01*
X40839844Y64828551D01*
X40786448Y64864296D01*
X40748005Y64890415D01*
X40722741Y64908083D01*
X40708884Y64918476D01*
X40704659Y64922771D01*
X40704670Y64922840D01*
X40716713Y64932560D01*
X40751844Y64957132D01*
X40810676Y64996963D01*
X40893821Y65052458D01*
X41001893Y65124023D01*
X41135504Y65212065D01*
X41295268Y65316989D01*
X41481797Y65439200D01*
X41695705Y65579106D01*
X41879659Y65699336D01*
X41887992Y65429106D01*
X41896326Y65158875D01*
X43695417Y65154634D01*
X43896518Y65154242D01*
X44142354Y65154001D01*
X44374125Y65154039D01*
X44589905Y65154346D01*
X44787767Y65154909D01*
X44965784Y65155719D01*
X45122029Y65156763D01*
X45254575Y65158032D01*
X45361496Y65159513D01*
X45440864Y65161195D01*
X45490753Y65163068D01*
X45509236Y65165119D01*
X45509551Y65165712D01*
X45499723Y65183487D01*
X45468572Y65221725D01*
X45418401Y65277904D01*
X45351515Y65349503D01*
X45270217Y65434002D01*
X45176812Y65528878D01*
X45146510Y65559377D01*
X45040721Y65665901D01*
X44953433Y65752101D01*
X44880168Y65820123D01*
X44816445Y65872110D01*
X44757788Y65910208D01*
X44699715Y65936561D01*
X44637750Y65953313D01*
X44567412Y65962609D01*
X44484223Y65966594D01*
X44383704Y65967413D01*
X44261376Y65967209D01*
X43876905Y65967209D01*
X43824444Y65901929D01*
X43774417Y65850853D01*
X43681020Y65790521D01*
X43573826Y65752990D01*
X43461216Y65740836D01*
X43351571Y65756634D01*
X43284639Y65782231D01*
X43188938Y65844334D01*
X43112150Y65926987D01*
X43057026Y66024754D01*
X43026317Y66132198D01*
X43022774Y66243883D01*
X43049146Y66354372D01*
X43063457Y66387427D01*
X43127186Y66487030D01*
X43209493Y66563819D01*
X43305417Y66616884D01*
X43409999Y66645319D01*
X43518281Y66648216D01*
X43625302Y66624669D01*
G37*
%TD*%
%LPC*%
D12*
%TO.C,H29*%
X71120000Y29210000D03*
%TD*%
%TO.C,H6*%
X34925000Y22225000D03*
%TD*%
D13*
%TO.C,H1*%
X29210000Y25400000D03*
%TD*%
D14*
%TO.C,H24*%
X77152500Y53340000D03*
%TD*%
D15*
%TO.C,U2*%
X92080000Y9500000D03*
X92080000Y18140000D03*
D16*
X96260000Y18140000D03*
X96260000Y9500000D03*
%TD*%
D12*
%TO.C,H17*%
X60960000Y29210000D03*
%TD*%
%TO.C,H27*%
X71120000Y35242500D03*
%TD*%
%TO.C,H19*%
X19050000Y22542500D03*
%TD*%
%TO.C,H12*%
X74930000Y22225000D03*
%TD*%
%TO.C,H18*%
X13970000Y23812500D03*
%TD*%
%TO.C,H8*%
X10160000Y40640000D03*
%TD*%
D14*
%TO.C,H23*%
X77152500Y56832500D03*
%TD*%
D12*
%TO.C,H22*%
X71120000Y44132500D03*
%TD*%
D17*
%TO.C,H10*%
X65722500Y7230000D03*
%TD*%
D18*
%TO.C,C12*%
X46990000Y43497500D03*
X10160000Y43497500D03*
%TD*%
D12*
%TO.C,H20*%
X17780000Y27940000D03*
%TD*%
%TO.C,H25*%
X75565000Y48577500D03*
%TD*%
%TO.C,H15*%
X61595000Y21590000D03*
%TD*%
%TO.C,H11*%
X77152500Y29210000D03*
%TD*%
%TO.C,H28*%
X60960000Y51435000D03*
%TD*%
%TO.C,H21*%
X52387500Y46355000D03*
%TD*%
%TO.C,H7*%
X36195000Y27622500D03*
%TD*%
%TO.C,H4*%
X24765000Y28257500D03*
%TD*%
%TO.C,H16*%
X52387500Y21590000D03*
%TD*%
%TO.C,H9*%
X46990000Y40640000D03*
%TD*%
D17*
%TO.C,R12*%
X10795000Y22225000D03*
X10795000Y29845000D03*
%TD*%
D12*
%TO.C,H5*%
X29845000Y22225000D03*
%TD*%
%TO.C,H26*%
X75565000Y39687500D03*
%TD*%
%TO.C,H3*%
X25717500Y22860000D03*
%TD*%
D13*
%TO.C,H2*%
X31750000Y25400000D03*
%TD*%
D17*
%TO.C,J1*%
X4318000Y19050000D03*
X4318000Y16510000D03*
X4318000Y13970000D03*
X4318000Y11430000D03*
X4318000Y8890000D03*
%TD*%
D12*
%TO.C,H30*%
X68580000Y22225000D03*
%TD*%
%TO.C,H14*%
X52387500Y29210000D03*
%TD*%
%TO.C,H13*%
X56832500Y25400000D03*
%TD*%
%LPD*%
M02*
