%TF.GenerationSoftware,KiCad,Pcbnew,10.0.5*%
%TF.CreationDate,2026-09-11T12:44:44+09:00*%
%TF.ProjectId,osr-cdi15x,6f73722d-6364-4693-9135-782e6b696361,rev?*%
%TF.SameCoordinates,Original*%
%TF.FileFunction,Legend,Bot*%
%TF.FilePolarity,Positive*%
%FSLAX46Y46*%
G04 Gerber Fmt 4.6, Leading zero omitted, Abs format (unit mm)*
G04 Created by KiCad (PCBNEW 10.0.5) date 2026-09-11 12:44:44*
%MOMM*%
%LPD*%
G01*
G04 APERTURE LIST*
G04 Aperture macros list*
%AMRoundRect*
0 Rectangle with rounded corners*
0 $1 Rounding radius*
0 $2 $3 $4 $5 $6 $7 $8 $9 X,Y pos of 4 corners*
0 Add a 4 corners polygon primitive as box body*
4,1,4,$2,$3,$4,$5,$6,$7,$8,$9,$2,$3,0*
0 Add four circle primitives for the rounded corners*
1,1,$1+$1,$2,$3*
1,1,$1+$1,$4,$5*
1,1,$1+$1,$6,$7*
1,1,$1+$1,$8,$9*
0 Add four rect primitives between the rounded corners*
20,1,$1+$1,$2,$3,$4,$5,0*
20,1,$1+$1,$4,$5,$6,$7,0*
20,1,$1+$1,$6,$7,$8,$9,0*
20,1,$1+$1,$8,$9,$2,$3,0*%
G04 Aperture macros list end*
%ADD10C,0.160000*%
%ADD11C,0.000000*%
%ADD12C,2.500000*%
%ADD13RoundRect,0.250000X-0.550000X-0.550000X0.550000X-0.550000X0.550000X0.550000X-0.550000X0.550000X0*%
%ADD14RoundRect,0.250000X-1.000000X-1.000000X1.000000X-1.000000X1.000000X1.000000X-1.000000X1.000000X0*%
%ADD15O,2.100000X1.000000*%
%ADD16O,1.600000X1.000000*%
%ADD17C,2.540000*%
%ADD18C,1.600000*%
G04 APERTURE END LIST*
D10*
X40756998Y48210477D02*
X40185570Y48210477D01*
X40471284Y47210477D02*
X40471284Y48210477D01*
X39852236Y47210477D02*
X39852236Y48210477D01*
X39852236Y47734287D02*
X39280808Y47734287D01*
X39280808Y47210477D02*
X39280808Y48210477D01*
X38804617Y47210477D02*
X38804617Y48210477D01*
X38376046Y47258096D02*
X38233189Y47210477D01*
X38233189Y47210477D02*
X37995094Y47210477D01*
X37995094Y47210477D02*
X37899856Y47258096D01*
X37899856Y47258096D02*
X37852237Y47305716D01*
X37852237Y47305716D02*
X37804618Y47400954D01*
X37804618Y47400954D02*
X37804618Y47496192D01*
X37804618Y47496192D02*
X37852237Y47591430D01*
X37852237Y47591430D02*
X37899856Y47639049D01*
X37899856Y47639049D02*
X37995094Y47686668D01*
X37995094Y47686668D02*
X38185570Y47734287D01*
X38185570Y47734287D02*
X38280808Y47781906D01*
X38280808Y47781906D02*
X38328427Y47829525D01*
X38328427Y47829525D02*
X38376046Y47924763D01*
X38376046Y47924763D02*
X38376046Y48020001D01*
X38376046Y48020001D02*
X38328427Y48115239D01*
X38328427Y48115239D02*
X38280808Y48162858D01*
X38280808Y48162858D02*
X38185570Y48210477D01*
X38185570Y48210477D02*
X37947475Y48210477D01*
X37947475Y48210477D02*
X37804618Y48162858D01*
X36614141Y47210477D02*
X36614141Y48210477D01*
X36614141Y48210477D02*
X36376046Y48210477D01*
X36376046Y48210477D02*
X36233189Y48162858D01*
X36233189Y48162858D02*
X36137951Y48067620D01*
X36137951Y48067620D02*
X36090332Y47972382D01*
X36090332Y47972382D02*
X36042713Y47781906D01*
X36042713Y47781906D02*
X36042713Y47639049D01*
X36042713Y47639049D02*
X36090332Y47448573D01*
X36090332Y47448573D02*
X36137951Y47353335D01*
X36137951Y47353335D02*
X36233189Y47258096D01*
X36233189Y47258096D02*
X36376046Y47210477D01*
X36376046Y47210477D02*
X36614141Y47210477D01*
X35614141Y47734287D02*
X35280808Y47734287D01*
X35137951Y47210477D02*
X35614141Y47210477D01*
X35614141Y47210477D02*
X35614141Y48210477D01*
X35614141Y48210477D02*
X35137951Y48210477D01*
X34852236Y48210477D02*
X34518903Y47210477D01*
X34518903Y47210477D02*
X34185570Y48210477D01*
X33852236Y47210477D02*
X33852236Y48210477D01*
X32804618Y47305716D02*
X32852237Y47258096D01*
X32852237Y47258096D02*
X32995094Y47210477D01*
X32995094Y47210477D02*
X33090332Y47210477D01*
X33090332Y47210477D02*
X33233189Y47258096D01*
X33233189Y47258096D02*
X33328427Y47353335D01*
X33328427Y47353335D02*
X33376046Y47448573D01*
X33376046Y47448573D02*
X33423665Y47639049D01*
X33423665Y47639049D02*
X33423665Y47781906D01*
X33423665Y47781906D02*
X33376046Y47972382D01*
X33376046Y47972382D02*
X33328427Y48067620D01*
X33328427Y48067620D02*
X33233189Y48162858D01*
X33233189Y48162858D02*
X33090332Y48210477D01*
X33090332Y48210477D02*
X32995094Y48210477D01*
X32995094Y48210477D02*
X32852237Y48162858D01*
X32852237Y48162858D02*
X32804618Y48115239D01*
X32376046Y47734287D02*
X32042713Y47734287D01*
X31899856Y47210477D02*
X32376046Y47210477D01*
X32376046Y47210477D02*
X32376046Y48210477D01*
X32376046Y48210477D02*
X31899856Y48210477D01*
X30709379Y47210477D02*
X30709379Y48210477D01*
X30280808Y47258096D02*
X30137951Y47210477D01*
X30137951Y47210477D02*
X29899856Y47210477D01*
X29899856Y47210477D02*
X29804618Y47258096D01*
X29804618Y47258096D02*
X29756999Y47305716D01*
X29756999Y47305716D02*
X29709380Y47400954D01*
X29709380Y47400954D02*
X29709380Y47496192D01*
X29709380Y47496192D02*
X29756999Y47591430D01*
X29756999Y47591430D02*
X29804618Y47639049D01*
X29804618Y47639049D02*
X29899856Y47686668D01*
X29899856Y47686668D02*
X30090332Y47734287D01*
X30090332Y47734287D02*
X30185570Y47781906D01*
X30185570Y47781906D02*
X30233189Y47829525D01*
X30233189Y47829525D02*
X30280808Y47924763D01*
X30280808Y47924763D02*
X30280808Y48020001D01*
X30280808Y48020001D02*
X30233189Y48115239D01*
X30233189Y48115239D02*
X30185570Y48162858D01*
X30185570Y48162858D02*
X30090332Y48210477D01*
X30090332Y48210477D02*
X29852237Y48210477D01*
X29852237Y48210477D02*
X29709380Y48162858D01*
X28518903Y47210477D02*
X28518903Y48210477D01*
X28518903Y48210477D02*
X27947475Y47210477D01*
X27947475Y47210477D02*
X27947475Y48210477D01*
X27280808Y48210477D02*
X27090332Y48210477D01*
X27090332Y48210477D02*
X26995094Y48162858D01*
X26995094Y48162858D02*
X26899856Y48067620D01*
X26899856Y48067620D02*
X26852237Y47877144D01*
X26852237Y47877144D02*
X26852237Y47543811D01*
X26852237Y47543811D02*
X26899856Y47353335D01*
X26899856Y47353335D02*
X26995094Y47258096D01*
X26995094Y47258096D02*
X27090332Y47210477D01*
X27090332Y47210477D02*
X27280808Y47210477D01*
X27280808Y47210477D02*
X27376046Y47258096D01*
X27376046Y47258096D02*
X27471284Y47353335D01*
X27471284Y47353335D02*
X27518903Y47543811D01*
X27518903Y47543811D02*
X27518903Y47877144D01*
X27518903Y47877144D02*
X27471284Y48067620D01*
X27471284Y48067620D02*
X27376046Y48162858D01*
X27376046Y48162858D02*
X27280808Y48210477D01*
X26566522Y48210477D02*
X25995094Y48210477D01*
X26280808Y47210477D02*
X26280808Y48210477D01*
X24376046Y48162858D02*
X24471284Y48210477D01*
X24471284Y48210477D02*
X24614141Y48210477D01*
X24614141Y48210477D02*
X24756998Y48162858D01*
X24756998Y48162858D02*
X24852236Y48067620D01*
X24852236Y48067620D02*
X24899855Y47972382D01*
X24899855Y47972382D02*
X24947474Y47781906D01*
X24947474Y47781906D02*
X24947474Y47639049D01*
X24947474Y47639049D02*
X24899855Y47448573D01*
X24899855Y47448573D02*
X24852236Y47353335D01*
X24852236Y47353335D02*
X24756998Y47258096D01*
X24756998Y47258096D02*
X24614141Y47210477D01*
X24614141Y47210477D02*
X24518903Y47210477D01*
X24518903Y47210477D02*
X24376046Y47258096D01*
X24376046Y47258096D02*
X24328427Y47305716D01*
X24328427Y47305716D02*
X24328427Y47639049D01*
X24328427Y47639049D02*
X24518903Y47639049D01*
X23899855Y48210477D02*
X23899855Y47400954D01*
X23899855Y47400954D02*
X23852236Y47305716D01*
X23852236Y47305716D02*
X23804617Y47258096D01*
X23804617Y47258096D02*
X23709379Y47210477D01*
X23709379Y47210477D02*
X23518903Y47210477D01*
X23518903Y47210477D02*
X23423665Y47258096D01*
X23423665Y47258096D02*
X23376046Y47305716D01*
X23376046Y47305716D02*
X23328427Y47400954D01*
X23328427Y47400954D02*
X23328427Y48210477D01*
X22899855Y47496192D02*
X22423665Y47496192D01*
X22995093Y47210477D02*
X22661760Y48210477D01*
X22661760Y48210477D02*
X22328427Y47210477D01*
X21423665Y47210477D02*
X21756998Y47686668D01*
X21995093Y47210477D02*
X21995093Y48210477D01*
X21995093Y48210477D02*
X21614141Y48210477D01*
X21614141Y48210477D02*
X21518903Y48162858D01*
X21518903Y48162858D02*
X21471284Y48115239D01*
X21471284Y48115239D02*
X21423665Y48020001D01*
X21423665Y48020001D02*
X21423665Y47877144D01*
X21423665Y47877144D02*
X21471284Y47781906D01*
X21471284Y47781906D02*
X21518903Y47734287D01*
X21518903Y47734287D02*
X21614141Y47686668D01*
X21614141Y47686668D02*
X21995093Y47686668D01*
X21042712Y47496192D02*
X20566522Y47496192D01*
X21137950Y47210477D02*
X20804617Y48210477D01*
X20804617Y48210477D02*
X20471284Y47210477D01*
X20137950Y47210477D02*
X20137950Y48210477D01*
X20137950Y48210477D02*
X19566522Y47210477D01*
X19566522Y47210477D02*
X19566522Y48210477D01*
X19233188Y48210477D02*
X18661760Y48210477D01*
X18947474Y47210477D02*
X18947474Y48210477D01*
X18328426Y47734287D02*
X17995093Y47734287D01*
X17852236Y47210477D02*
X18328426Y47210477D01*
X18328426Y47210477D02*
X18328426Y48210477D01*
X18328426Y48210477D02*
X17852236Y48210477D01*
X17423664Y47734287D02*
X17090331Y47734287D01*
X16947474Y47210477D02*
X17423664Y47210477D01*
X17423664Y47210477D02*
X17423664Y48210477D01*
X17423664Y48210477D02*
X16947474Y48210477D01*
X16518902Y47210477D02*
X16518902Y48210477D01*
X16518902Y48210477D02*
X16280807Y48210477D01*
X16280807Y48210477D02*
X16137950Y48162858D01*
X16137950Y48162858D02*
X16042712Y48067620D01*
X16042712Y48067620D02*
X15995093Y47972382D01*
X15995093Y47972382D02*
X15947474Y47781906D01*
X15947474Y47781906D02*
X15947474Y47639049D01*
X15947474Y47639049D02*
X15995093Y47448573D01*
X15995093Y47448573D02*
X16042712Y47353335D01*
X16042712Y47353335D02*
X16137950Y47258096D01*
X16137950Y47258096D02*
X16280807Y47210477D01*
X16280807Y47210477D02*
X16518902Y47210477D01*
X15518902Y47305716D02*
X15471283Y47258096D01*
X15471283Y47258096D02*
X15518902Y47210477D01*
X15518902Y47210477D02*
X15566521Y47258096D01*
X15566521Y47258096D02*
X15518902Y47305716D01*
X15518902Y47305716D02*
X15518902Y47210477D01*
X40614141Y46600533D02*
X40614141Y45791010D01*
X40614141Y45791010D02*
X40566522Y45695772D01*
X40566522Y45695772D02*
X40518903Y45648152D01*
X40518903Y45648152D02*
X40423665Y45600533D01*
X40423665Y45600533D02*
X40233189Y45600533D01*
X40233189Y45600533D02*
X40137951Y45648152D01*
X40137951Y45648152D02*
X40090332Y45695772D01*
X40090332Y45695772D02*
X40042713Y45791010D01*
X40042713Y45791010D02*
X40042713Y46600533D01*
X39614141Y45648152D02*
X39471284Y45600533D01*
X39471284Y45600533D02*
X39233189Y45600533D01*
X39233189Y45600533D02*
X39137951Y45648152D01*
X39137951Y45648152D02*
X39090332Y45695772D01*
X39090332Y45695772D02*
X39042713Y45791010D01*
X39042713Y45791010D02*
X39042713Y45886248D01*
X39042713Y45886248D02*
X39090332Y45981486D01*
X39090332Y45981486D02*
X39137951Y46029105D01*
X39137951Y46029105D02*
X39233189Y46076724D01*
X39233189Y46076724D02*
X39423665Y46124343D01*
X39423665Y46124343D02*
X39518903Y46171962D01*
X39518903Y46171962D02*
X39566522Y46219581D01*
X39566522Y46219581D02*
X39614141Y46314819D01*
X39614141Y46314819D02*
X39614141Y46410057D01*
X39614141Y46410057D02*
X39566522Y46505295D01*
X39566522Y46505295D02*
X39518903Y46552914D01*
X39518903Y46552914D02*
X39423665Y46600533D01*
X39423665Y46600533D02*
X39185570Y46600533D01*
X39185570Y46600533D02*
X39042713Y46552914D01*
X38614141Y46124343D02*
X38280808Y46124343D01*
X38137951Y45600533D02*
X38614141Y45600533D01*
X38614141Y45600533D02*
X38614141Y46600533D01*
X38614141Y46600533D02*
X38137951Y46600533D01*
X37137951Y45600533D02*
X37471284Y46076724D01*
X37709379Y45600533D02*
X37709379Y46600533D01*
X37709379Y46600533D02*
X37328427Y46600533D01*
X37328427Y46600533D02*
X37233189Y46552914D01*
X37233189Y46552914D02*
X37185570Y46505295D01*
X37185570Y46505295D02*
X37137951Y46410057D01*
X37137951Y46410057D02*
X37137951Y46267200D01*
X37137951Y46267200D02*
X37185570Y46171962D01*
X37185570Y46171962D02*
X37233189Y46124343D01*
X37233189Y46124343D02*
X37328427Y46076724D01*
X37328427Y46076724D02*
X37709379Y46076724D01*
X35756998Y46600533D02*
X35566522Y46600533D01*
X35566522Y46600533D02*
X35471284Y46552914D01*
X35471284Y46552914D02*
X35376046Y46457676D01*
X35376046Y46457676D02*
X35328427Y46267200D01*
X35328427Y46267200D02*
X35328427Y45933867D01*
X35328427Y45933867D02*
X35376046Y45743391D01*
X35376046Y45743391D02*
X35471284Y45648152D01*
X35471284Y45648152D02*
X35566522Y45600533D01*
X35566522Y45600533D02*
X35756998Y45600533D01*
X35756998Y45600533D02*
X35852236Y45648152D01*
X35852236Y45648152D02*
X35947474Y45743391D01*
X35947474Y45743391D02*
X35995093Y45933867D01*
X35995093Y45933867D02*
X35995093Y46267200D01*
X35995093Y46267200D02*
X35947474Y46457676D01*
X35947474Y46457676D02*
X35852236Y46552914D01*
X35852236Y46552914D02*
X35756998Y46600533D01*
X34566522Y46124343D02*
X34899855Y46124343D01*
X34899855Y45600533D02*
X34899855Y46600533D01*
X34899855Y46600533D02*
X34423665Y46600533D01*
X33423664Y46600533D02*
X32852236Y46600533D01*
X33137950Y45600533D02*
X33137950Y46600533D01*
X32518902Y45600533D02*
X32518902Y46600533D01*
X32518902Y46124343D02*
X31947474Y46124343D01*
X31947474Y45600533D02*
X31947474Y46600533D01*
X31471283Y45600533D02*
X31471283Y46600533D01*
X31042712Y45648152D02*
X30899855Y45600533D01*
X30899855Y45600533D02*
X30661760Y45600533D01*
X30661760Y45600533D02*
X30566522Y45648152D01*
X30566522Y45648152D02*
X30518903Y45695772D01*
X30518903Y45695772D02*
X30471284Y45791010D01*
X30471284Y45791010D02*
X30471284Y45886248D01*
X30471284Y45886248D02*
X30518903Y45981486D01*
X30518903Y45981486D02*
X30566522Y46029105D01*
X30566522Y46029105D02*
X30661760Y46076724D01*
X30661760Y46076724D02*
X30852236Y46124343D01*
X30852236Y46124343D02*
X30947474Y46171962D01*
X30947474Y46171962D02*
X30995093Y46219581D01*
X30995093Y46219581D02*
X31042712Y46314819D01*
X31042712Y46314819D02*
X31042712Y46410057D01*
X31042712Y46410057D02*
X30995093Y46505295D01*
X30995093Y46505295D02*
X30947474Y46552914D01*
X30947474Y46552914D02*
X30852236Y46600533D01*
X30852236Y46600533D02*
X30614141Y46600533D01*
X30614141Y46600533D02*
X30471284Y46552914D01*
X29280807Y45600533D02*
X29280807Y46600533D01*
X29280807Y46600533D02*
X29042712Y46600533D01*
X29042712Y46600533D02*
X28899855Y46552914D01*
X28899855Y46552914D02*
X28804617Y46457676D01*
X28804617Y46457676D02*
X28756998Y46362438D01*
X28756998Y46362438D02*
X28709379Y46171962D01*
X28709379Y46171962D02*
X28709379Y46029105D01*
X28709379Y46029105D02*
X28756998Y45838629D01*
X28756998Y45838629D02*
X28804617Y45743391D01*
X28804617Y45743391D02*
X28899855Y45648152D01*
X28899855Y45648152D02*
X29042712Y45600533D01*
X29042712Y45600533D02*
X29280807Y45600533D01*
X28280807Y46124343D02*
X27947474Y46124343D01*
X27804617Y45600533D02*
X28280807Y45600533D01*
X28280807Y45600533D02*
X28280807Y46600533D01*
X28280807Y46600533D02*
X27804617Y46600533D01*
X27518902Y46600533D02*
X27185569Y45600533D01*
X27185569Y45600533D02*
X26852236Y46600533D01*
X26518902Y45600533D02*
X26518902Y46600533D01*
X25471284Y45695772D02*
X25518903Y45648152D01*
X25518903Y45648152D02*
X25661760Y45600533D01*
X25661760Y45600533D02*
X25756998Y45600533D01*
X25756998Y45600533D02*
X25899855Y45648152D01*
X25899855Y45648152D02*
X25995093Y45743391D01*
X25995093Y45743391D02*
X26042712Y45838629D01*
X26042712Y45838629D02*
X26090331Y46029105D01*
X26090331Y46029105D02*
X26090331Y46171962D01*
X26090331Y46171962D02*
X26042712Y46362438D01*
X26042712Y46362438D02*
X25995093Y46457676D01*
X25995093Y46457676D02*
X25899855Y46552914D01*
X25899855Y46552914D02*
X25756998Y46600533D01*
X25756998Y46600533D02*
X25661760Y46600533D01*
X25661760Y46600533D02*
X25518903Y46552914D01*
X25518903Y46552914D02*
X25471284Y46505295D01*
X25042712Y46124343D02*
X24709379Y46124343D01*
X24566522Y45600533D02*
X25042712Y45600533D01*
X25042712Y45600533D02*
X25042712Y46600533D01*
X25042712Y46600533D02*
X24566522Y46600533D01*
X23376045Y45600533D02*
X23376045Y46600533D01*
X23376045Y46600533D02*
X23042712Y45886248D01*
X23042712Y45886248D02*
X22709379Y46600533D01*
X22709379Y46600533D02*
X22709379Y45600533D01*
X22233188Y46600533D02*
X22233188Y45791010D01*
X22233188Y45791010D02*
X22185569Y45695772D01*
X22185569Y45695772D02*
X22137950Y45648152D01*
X22137950Y45648152D02*
X22042712Y45600533D01*
X22042712Y45600533D02*
X21852236Y45600533D01*
X21852236Y45600533D02*
X21756998Y45648152D01*
X21756998Y45648152D02*
X21709379Y45695772D01*
X21709379Y45695772D02*
X21661760Y45791010D01*
X21661760Y45791010D02*
X21661760Y46600533D01*
X21233188Y45648152D02*
X21090331Y45600533D01*
X21090331Y45600533D02*
X20852236Y45600533D01*
X20852236Y45600533D02*
X20756998Y45648152D01*
X20756998Y45648152D02*
X20709379Y45695772D01*
X20709379Y45695772D02*
X20661760Y45791010D01*
X20661760Y45791010D02*
X20661760Y45886248D01*
X20661760Y45886248D02*
X20709379Y45981486D01*
X20709379Y45981486D02*
X20756998Y46029105D01*
X20756998Y46029105D02*
X20852236Y46076724D01*
X20852236Y46076724D02*
X21042712Y46124343D01*
X21042712Y46124343D02*
X21137950Y46171962D01*
X21137950Y46171962D02*
X21185569Y46219581D01*
X21185569Y46219581D02*
X21233188Y46314819D01*
X21233188Y46314819D02*
X21233188Y46410057D01*
X21233188Y46410057D02*
X21185569Y46505295D01*
X21185569Y46505295D02*
X21137950Y46552914D01*
X21137950Y46552914D02*
X21042712Y46600533D01*
X21042712Y46600533D02*
X20804617Y46600533D01*
X20804617Y46600533D02*
X20661760Y46552914D01*
X20376045Y46600533D02*
X19804617Y46600533D01*
X20090331Y45600533D02*
X20090331Y46600533D01*
X18852235Y46600533D02*
X18280807Y46600533D01*
X18566521Y45600533D02*
X18566521Y46600533D01*
X17995092Y45886248D02*
X17518902Y45886248D01*
X18090330Y45600533D02*
X17756997Y46600533D01*
X17756997Y46600533D02*
X17423664Y45600533D01*
X17090330Y45600533D02*
X17090330Y46600533D01*
X16518902Y45600533D02*
X16947473Y46171962D01*
X16518902Y46600533D02*
X17090330Y46029105D01*
X16090330Y46124343D02*
X15756997Y46124343D01*
X15614140Y45600533D02*
X16090330Y45600533D01*
X16090330Y45600533D02*
X16090330Y46600533D01*
X16090330Y46600533D02*
X15614140Y46600533D01*
X40042713Y43990589D02*
X40376046Y44466780D01*
X40614141Y43990589D02*
X40614141Y44990589D01*
X40614141Y44990589D02*
X40233189Y44990589D01*
X40233189Y44990589D02*
X40137951Y44942970D01*
X40137951Y44942970D02*
X40090332Y44895351D01*
X40090332Y44895351D02*
X40042713Y44800113D01*
X40042713Y44800113D02*
X40042713Y44657256D01*
X40042713Y44657256D02*
X40090332Y44562018D01*
X40090332Y44562018D02*
X40137951Y44514399D01*
X40137951Y44514399D02*
X40233189Y44466780D01*
X40233189Y44466780D02*
X40614141Y44466780D01*
X39614141Y44514399D02*
X39280808Y44514399D01*
X39137951Y43990589D02*
X39614141Y43990589D01*
X39614141Y43990589D02*
X39614141Y44990589D01*
X39614141Y44990589D02*
X39137951Y44990589D01*
X38756998Y44038208D02*
X38614141Y43990589D01*
X38614141Y43990589D02*
X38376046Y43990589D01*
X38376046Y43990589D02*
X38280808Y44038208D01*
X38280808Y44038208D02*
X38233189Y44085828D01*
X38233189Y44085828D02*
X38185570Y44181066D01*
X38185570Y44181066D02*
X38185570Y44276304D01*
X38185570Y44276304D02*
X38233189Y44371542D01*
X38233189Y44371542D02*
X38280808Y44419161D01*
X38280808Y44419161D02*
X38376046Y44466780D01*
X38376046Y44466780D02*
X38566522Y44514399D01*
X38566522Y44514399D02*
X38661760Y44562018D01*
X38661760Y44562018D02*
X38709379Y44609637D01*
X38709379Y44609637D02*
X38756998Y44704875D01*
X38756998Y44704875D02*
X38756998Y44800113D01*
X38756998Y44800113D02*
X38709379Y44895351D01*
X38709379Y44895351D02*
X38661760Y44942970D01*
X38661760Y44942970D02*
X38566522Y44990589D01*
X38566522Y44990589D02*
X38328427Y44990589D01*
X38328427Y44990589D02*
X38185570Y44942970D01*
X37756998Y43990589D02*
X37756998Y44990589D01*
X37756998Y44990589D02*
X37376046Y44990589D01*
X37376046Y44990589D02*
X37280808Y44942970D01*
X37280808Y44942970D02*
X37233189Y44895351D01*
X37233189Y44895351D02*
X37185570Y44800113D01*
X37185570Y44800113D02*
X37185570Y44657256D01*
X37185570Y44657256D02*
X37233189Y44562018D01*
X37233189Y44562018D02*
X37280808Y44514399D01*
X37280808Y44514399D02*
X37376046Y44466780D01*
X37376046Y44466780D02*
X37756998Y44466780D01*
X36566522Y44990589D02*
X36376046Y44990589D01*
X36376046Y44990589D02*
X36280808Y44942970D01*
X36280808Y44942970D02*
X36185570Y44847732D01*
X36185570Y44847732D02*
X36137951Y44657256D01*
X36137951Y44657256D02*
X36137951Y44323923D01*
X36137951Y44323923D02*
X36185570Y44133447D01*
X36185570Y44133447D02*
X36280808Y44038208D01*
X36280808Y44038208D02*
X36376046Y43990589D01*
X36376046Y43990589D02*
X36566522Y43990589D01*
X36566522Y43990589D02*
X36661760Y44038208D01*
X36661760Y44038208D02*
X36756998Y44133447D01*
X36756998Y44133447D02*
X36804617Y44323923D01*
X36804617Y44323923D02*
X36804617Y44657256D01*
X36804617Y44657256D02*
X36756998Y44847732D01*
X36756998Y44847732D02*
X36661760Y44942970D01*
X36661760Y44942970D02*
X36566522Y44990589D01*
X35709379Y43990589D02*
X35709379Y44990589D01*
X35709379Y44990589D02*
X35137951Y43990589D01*
X35137951Y43990589D02*
X35137951Y44990589D01*
X34709379Y44038208D02*
X34566522Y43990589D01*
X34566522Y43990589D02*
X34328427Y43990589D01*
X34328427Y43990589D02*
X34233189Y44038208D01*
X34233189Y44038208D02*
X34185570Y44085828D01*
X34185570Y44085828D02*
X34137951Y44181066D01*
X34137951Y44181066D02*
X34137951Y44276304D01*
X34137951Y44276304D02*
X34185570Y44371542D01*
X34185570Y44371542D02*
X34233189Y44419161D01*
X34233189Y44419161D02*
X34328427Y44466780D01*
X34328427Y44466780D02*
X34518903Y44514399D01*
X34518903Y44514399D02*
X34614141Y44562018D01*
X34614141Y44562018D02*
X34661760Y44609637D01*
X34661760Y44609637D02*
X34709379Y44704875D01*
X34709379Y44704875D02*
X34709379Y44800113D01*
X34709379Y44800113D02*
X34661760Y44895351D01*
X34661760Y44895351D02*
X34614141Y44942970D01*
X34614141Y44942970D02*
X34518903Y44990589D01*
X34518903Y44990589D02*
X34280808Y44990589D01*
X34280808Y44990589D02*
X34137951Y44942970D01*
X33709379Y43990589D02*
X33709379Y44990589D01*
X32899856Y44514399D02*
X32756999Y44466780D01*
X32756999Y44466780D02*
X32709380Y44419161D01*
X32709380Y44419161D02*
X32661761Y44323923D01*
X32661761Y44323923D02*
X32661761Y44181066D01*
X32661761Y44181066D02*
X32709380Y44085828D01*
X32709380Y44085828D02*
X32756999Y44038208D01*
X32756999Y44038208D02*
X32852237Y43990589D01*
X32852237Y43990589D02*
X33233189Y43990589D01*
X33233189Y43990589D02*
X33233189Y44990589D01*
X33233189Y44990589D02*
X32899856Y44990589D01*
X32899856Y44990589D02*
X32804618Y44942970D01*
X32804618Y44942970D02*
X32756999Y44895351D01*
X32756999Y44895351D02*
X32709380Y44800113D01*
X32709380Y44800113D02*
X32709380Y44704875D01*
X32709380Y44704875D02*
X32756999Y44609637D01*
X32756999Y44609637D02*
X32804618Y44562018D01*
X32804618Y44562018D02*
X32899856Y44514399D01*
X32899856Y44514399D02*
X33233189Y44514399D01*
X32233189Y43990589D02*
X32233189Y44990589D01*
X31280809Y43990589D02*
X31756999Y43990589D01*
X31756999Y43990589D02*
X31756999Y44990589D01*
X30947475Y43990589D02*
X30947475Y44990589D01*
X30614142Y44990589D02*
X30042714Y44990589D01*
X30328428Y43990589D02*
X30328428Y44990589D01*
X29518904Y44466780D02*
X29518904Y43990589D01*
X29852237Y44990589D02*
X29518904Y44466780D01*
X29518904Y44466780D02*
X29185571Y44990589D01*
X27756999Y44514399D02*
X28090332Y44514399D01*
X28090332Y43990589D02*
X28090332Y44990589D01*
X28090332Y44990589D02*
X27614142Y44990589D01*
X27042713Y44990589D02*
X26852237Y44990589D01*
X26852237Y44990589D02*
X26756999Y44942970D01*
X26756999Y44942970D02*
X26661761Y44847732D01*
X26661761Y44847732D02*
X26614142Y44657256D01*
X26614142Y44657256D02*
X26614142Y44323923D01*
X26614142Y44323923D02*
X26661761Y44133447D01*
X26661761Y44133447D02*
X26756999Y44038208D01*
X26756999Y44038208D02*
X26852237Y43990589D01*
X26852237Y43990589D02*
X27042713Y43990589D01*
X27042713Y43990589D02*
X27137951Y44038208D01*
X27137951Y44038208D02*
X27233189Y44133447D01*
X27233189Y44133447D02*
X27280808Y44323923D01*
X27280808Y44323923D02*
X27280808Y44657256D01*
X27280808Y44657256D02*
X27233189Y44847732D01*
X27233189Y44847732D02*
X27137951Y44942970D01*
X27137951Y44942970D02*
X27042713Y44990589D01*
X25614142Y43990589D02*
X25947475Y44466780D01*
X26185570Y43990589D02*
X26185570Y44990589D01*
X26185570Y44990589D02*
X25804618Y44990589D01*
X25804618Y44990589D02*
X25709380Y44942970D01*
X25709380Y44942970D02*
X25661761Y44895351D01*
X25661761Y44895351D02*
X25614142Y44800113D01*
X25614142Y44800113D02*
X25614142Y44657256D01*
X25614142Y44657256D02*
X25661761Y44562018D01*
X25661761Y44562018D02*
X25709380Y44514399D01*
X25709380Y44514399D02*
X25804618Y44466780D01*
X25804618Y44466780D02*
X26185570Y44466780D01*
X24471284Y44276304D02*
X23995094Y44276304D01*
X24566522Y43990589D02*
X24233189Y44990589D01*
X24233189Y44990589D02*
X23899856Y43990589D01*
X23090332Y43990589D02*
X23566522Y43990589D01*
X23566522Y43990589D02*
X23566522Y44990589D01*
X22280808Y43990589D02*
X22756998Y43990589D01*
X22756998Y43990589D02*
X22756998Y44990589D01*
X20852236Y44514399D02*
X21185569Y44514399D01*
X21185569Y43990589D02*
X21185569Y44990589D01*
X21185569Y44990589D02*
X20709379Y44990589D01*
X20376045Y44276304D02*
X19899855Y44276304D01*
X20471283Y43990589D02*
X20137950Y44990589D01*
X20137950Y44990589D02*
X19804617Y43990589D01*
X19471283Y43990589D02*
X19471283Y44990589D01*
X18518903Y43990589D02*
X18995093Y43990589D01*
X18995093Y43990589D02*
X18995093Y44990589D01*
X18185569Y44990589D02*
X18185569Y44181066D01*
X18185569Y44181066D02*
X18137950Y44085828D01*
X18137950Y44085828D02*
X18090331Y44038208D01*
X18090331Y44038208D02*
X17995093Y43990589D01*
X17995093Y43990589D02*
X17804617Y43990589D01*
X17804617Y43990589D02*
X17709379Y44038208D01*
X17709379Y44038208D02*
X17661760Y44085828D01*
X17661760Y44085828D02*
X17614141Y44181066D01*
X17614141Y44181066D02*
X17614141Y44990589D01*
X16566522Y43990589D02*
X16899855Y44466780D01*
X17137950Y43990589D02*
X17137950Y44990589D01*
X17137950Y44990589D02*
X16756998Y44990589D01*
X16756998Y44990589D02*
X16661760Y44942970D01*
X16661760Y44942970D02*
X16614141Y44895351D01*
X16614141Y44895351D02*
X16566522Y44800113D01*
X16566522Y44800113D02*
X16566522Y44657256D01*
X16566522Y44657256D02*
X16614141Y44562018D01*
X16614141Y44562018D02*
X16661760Y44514399D01*
X16661760Y44514399D02*
X16756998Y44466780D01*
X16756998Y44466780D02*
X17137950Y44466780D01*
X16137950Y44514399D02*
X15804617Y44514399D01*
X15661760Y43990589D02*
X16137950Y43990589D01*
X16137950Y43990589D02*
X16137950Y44990589D01*
X16137950Y44990589D02*
X15661760Y44990589D01*
X15280807Y44038208D02*
X15137950Y43990589D01*
X15137950Y43990589D02*
X14899855Y43990589D01*
X14899855Y43990589D02*
X14804617Y44038208D01*
X14804617Y44038208D02*
X14756998Y44085828D01*
X14756998Y44085828D02*
X14709379Y44181066D01*
X14709379Y44181066D02*
X14709379Y44276304D01*
X14709379Y44276304D02*
X14756998Y44371542D01*
X14756998Y44371542D02*
X14804617Y44419161D01*
X14804617Y44419161D02*
X14899855Y44466780D01*
X14899855Y44466780D02*
X15090331Y44514399D01*
X15090331Y44514399D02*
X15185569Y44562018D01*
X15185569Y44562018D02*
X15233188Y44609637D01*
X15233188Y44609637D02*
X15280807Y44704875D01*
X15280807Y44704875D02*
X15280807Y44800113D01*
X15280807Y44800113D02*
X15233188Y44895351D01*
X15233188Y44895351D02*
X15185569Y44942970D01*
X15185569Y44942970D02*
X15090331Y44990589D01*
X15090331Y44990589D02*
X14852236Y44990589D01*
X14852236Y44990589D02*
X14709379Y44942970D01*
X40661760Y42666360D02*
X40185570Y42666360D01*
X40756998Y42380645D02*
X40423665Y43380645D01*
X40423665Y43380645D02*
X40090332Y42380645D01*
X39756998Y42380645D02*
X39756998Y43380645D01*
X39756998Y43380645D02*
X39185570Y42380645D01*
X39185570Y42380645D02*
X39185570Y43380645D01*
X38709379Y42380645D02*
X38709379Y43380645D01*
X38709379Y43380645D02*
X38471284Y43380645D01*
X38471284Y43380645D02*
X38328427Y43333026D01*
X38328427Y43333026D02*
X38233189Y43237788D01*
X38233189Y43237788D02*
X38185570Y43142550D01*
X38185570Y43142550D02*
X38137951Y42952074D01*
X38137951Y42952074D02*
X38137951Y42809217D01*
X38137951Y42809217D02*
X38185570Y42618741D01*
X38185570Y42618741D02*
X38233189Y42523503D01*
X38233189Y42523503D02*
X38328427Y42428264D01*
X38328427Y42428264D02*
X38471284Y42380645D01*
X38471284Y42380645D02*
X38709379Y42380645D01*
X36995093Y42666360D02*
X36518903Y42666360D01*
X37090331Y42380645D02*
X36756998Y43380645D01*
X36756998Y43380645D02*
X36423665Y42380645D01*
X35518903Y42475884D02*
X35566522Y42428264D01*
X35566522Y42428264D02*
X35709379Y42380645D01*
X35709379Y42380645D02*
X35804617Y42380645D01*
X35804617Y42380645D02*
X35947474Y42428264D01*
X35947474Y42428264D02*
X36042712Y42523503D01*
X36042712Y42523503D02*
X36090331Y42618741D01*
X36090331Y42618741D02*
X36137950Y42809217D01*
X36137950Y42809217D02*
X36137950Y42952074D01*
X36137950Y42952074D02*
X36090331Y43142550D01*
X36090331Y43142550D02*
X36042712Y43237788D01*
X36042712Y43237788D02*
X35947474Y43333026D01*
X35947474Y43333026D02*
X35804617Y43380645D01*
X35804617Y43380645D02*
X35709379Y43380645D01*
X35709379Y43380645D02*
X35566522Y43333026D01*
X35566522Y43333026D02*
X35518903Y43285407D01*
X34518903Y42475884D02*
X34566522Y42428264D01*
X34566522Y42428264D02*
X34709379Y42380645D01*
X34709379Y42380645D02*
X34804617Y42380645D01*
X34804617Y42380645D02*
X34947474Y42428264D01*
X34947474Y42428264D02*
X35042712Y42523503D01*
X35042712Y42523503D02*
X35090331Y42618741D01*
X35090331Y42618741D02*
X35137950Y42809217D01*
X35137950Y42809217D02*
X35137950Y42952074D01*
X35137950Y42952074D02*
X35090331Y43142550D01*
X35090331Y43142550D02*
X35042712Y43237788D01*
X35042712Y43237788D02*
X34947474Y43333026D01*
X34947474Y43333026D02*
X34804617Y43380645D01*
X34804617Y43380645D02*
X34709379Y43380645D01*
X34709379Y43380645D02*
X34566522Y43333026D01*
X34566522Y43333026D02*
X34518903Y43285407D01*
X34090331Y42380645D02*
X34090331Y43380645D01*
X33614141Y42380645D02*
X33614141Y43380645D01*
X33614141Y43380645D02*
X33376046Y43380645D01*
X33376046Y43380645D02*
X33233189Y43333026D01*
X33233189Y43333026D02*
X33137951Y43237788D01*
X33137951Y43237788D02*
X33090332Y43142550D01*
X33090332Y43142550D02*
X33042713Y42952074D01*
X33042713Y42952074D02*
X33042713Y42809217D01*
X33042713Y42809217D02*
X33090332Y42618741D01*
X33090332Y42618741D02*
X33137951Y42523503D01*
X33137951Y42523503D02*
X33233189Y42428264D01*
X33233189Y42428264D02*
X33376046Y42380645D01*
X33376046Y42380645D02*
X33614141Y42380645D01*
X32614141Y42904455D02*
X32280808Y42904455D01*
X32137951Y42380645D02*
X32614141Y42380645D01*
X32614141Y42380645D02*
X32614141Y43380645D01*
X32614141Y43380645D02*
X32137951Y43380645D01*
X31709379Y42380645D02*
X31709379Y43380645D01*
X31709379Y43380645D02*
X31137951Y42380645D01*
X31137951Y42380645D02*
X31137951Y43380645D01*
X30804617Y43380645D02*
X30233189Y43380645D01*
X30518903Y42380645D02*
X30518903Y43380645D01*
X29947474Y42428264D02*
X29804617Y42380645D01*
X29804617Y42380645D02*
X29566522Y42380645D01*
X29566522Y42380645D02*
X29471284Y42428264D01*
X29471284Y42428264D02*
X29423665Y42475884D01*
X29423665Y42475884D02*
X29376046Y42571122D01*
X29376046Y42571122D02*
X29376046Y42666360D01*
X29376046Y42666360D02*
X29423665Y42761598D01*
X29423665Y42761598D02*
X29471284Y42809217D01*
X29471284Y42809217D02*
X29566522Y42856836D01*
X29566522Y42856836D02*
X29756998Y42904455D01*
X29756998Y42904455D02*
X29852236Y42952074D01*
X29852236Y42952074D02*
X29899855Y42999693D01*
X29899855Y42999693D02*
X29947474Y43094931D01*
X29947474Y43094931D02*
X29947474Y43190169D01*
X29947474Y43190169D02*
X29899855Y43285407D01*
X29899855Y43285407D02*
X29852236Y43333026D01*
X29852236Y43333026D02*
X29756998Y43380645D01*
X29756998Y43380645D02*
X29518903Y43380645D01*
X29518903Y43380645D02*
X29376046Y43333026D01*
X27614141Y42475884D02*
X27661760Y42428264D01*
X27661760Y42428264D02*
X27804617Y42380645D01*
X27804617Y42380645D02*
X27899855Y42380645D01*
X27899855Y42380645D02*
X28042712Y42428264D01*
X28042712Y42428264D02*
X28137950Y42523503D01*
X28137950Y42523503D02*
X28185569Y42618741D01*
X28185569Y42618741D02*
X28233188Y42809217D01*
X28233188Y42809217D02*
X28233188Y42952074D01*
X28233188Y42952074D02*
X28185569Y43142550D01*
X28185569Y43142550D02*
X28137950Y43237788D01*
X28137950Y43237788D02*
X28042712Y43333026D01*
X28042712Y43333026D02*
X27899855Y43380645D01*
X27899855Y43380645D02*
X27804617Y43380645D01*
X27804617Y43380645D02*
X27661760Y43333026D01*
X27661760Y43333026D02*
X27614141Y43285407D01*
X27233188Y42666360D02*
X26756998Y42666360D01*
X27328426Y42380645D02*
X26995093Y43380645D01*
X26995093Y43380645D02*
X26661760Y42380645D01*
X26328426Y43380645D02*
X26328426Y42571122D01*
X26328426Y42571122D02*
X26280807Y42475884D01*
X26280807Y42475884D02*
X26233188Y42428264D01*
X26233188Y42428264D02*
X26137950Y42380645D01*
X26137950Y42380645D02*
X25947474Y42380645D01*
X25947474Y42380645D02*
X25852236Y42428264D01*
X25852236Y42428264D02*
X25804617Y42475884D01*
X25804617Y42475884D02*
X25756998Y42571122D01*
X25756998Y42571122D02*
X25756998Y43380645D01*
X25328426Y42428264D02*
X25185569Y42380645D01*
X25185569Y42380645D02*
X24947474Y42380645D01*
X24947474Y42380645D02*
X24852236Y42428264D01*
X24852236Y42428264D02*
X24804617Y42475884D01*
X24804617Y42475884D02*
X24756998Y42571122D01*
X24756998Y42571122D02*
X24756998Y42666360D01*
X24756998Y42666360D02*
X24804617Y42761598D01*
X24804617Y42761598D02*
X24852236Y42809217D01*
X24852236Y42809217D02*
X24947474Y42856836D01*
X24947474Y42856836D02*
X25137950Y42904455D01*
X25137950Y42904455D02*
X25233188Y42952074D01*
X25233188Y42952074D02*
X25280807Y42999693D01*
X25280807Y42999693D02*
X25328426Y43094931D01*
X25328426Y43094931D02*
X25328426Y43190169D01*
X25328426Y43190169D02*
X25280807Y43285407D01*
X25280807Y43285407D02*
X25233188Y43333026D01*
X25233188Y43333026D02*
X25137950Y43380645D01*
X25137950Y43380645D02*
X24899855Y43380645D01*
X24899855Y43380645D02*
X24756998Y43333026D01*
X24328426Y42904455D02*
X23995093Y42904455D01*
X23852236Y42380645D02*
X24328426Y42380645D01*
X24328426Y42380645D02*
X24328426Y43380645D01*
X24328426Y43380645D02*
X23852236Y43380645D01*
X23423664Y42380645D02*
X23423664Y43380645D01*
X23423664Y43380645D02*
X23185569Y43380645D01*
X23185569Y43380645D02*
X23042712Y43333026D01*
X23042712Y43333026D02*
X22947474Y43237788D01*
X22947474Y43237788D02*
X22899855Y43142550D01*
X22899855Y43142550D02*
X22852236Y42952074D01*
X22852236Y42952074D02*
X22852236Y42809217D01*
X22852236Y42809217D02*
X22899855Y42618741D01*
X22899855Y42618741D02*
X22947474Y42523503D01*
X22947474Y42523503D02*
X23042712Y42428264D01*
X23042712Y42428264D02*
X23185569Y42380645D01*
X23185569Y42380645D02*
X23423664Y42380645D01*
X22090331Y42904455D02*
X21947474Y42856836D01*
X21947474Y42856836D02*
X21899855Y42809217D01*
X21899855Y42809217D02*
X21852236Y42713979D01*
X21852236Y42713979D02*
X21852236Y42571122D01*
X21852236Y42571122D02*
X21899855Y42475884D01*
X21899855Y42475884D02*
X21947474Y42428264D01*
X21947474Y42428264D02*
X22042712Y42380645D01*
X22042712Y42380645D02*
X22423664Y42380645D01*
X22423664Y42380645D02*
X22423664Y43380645D01*
X22423664Y43380645D02*
X22090331Y43380645D01*
X22090331Y43380645D02*
X21995093Y43333026D01*
X21995093Y43333026D02*
X21947474Y43285407D01*
X21947474Y43285407D02*
X21899855Y43190169D01*
X21899855Y43190169D02*
X21899855Y43094931D01*
X21899855Y43094931D02*
X21947474Y42999693D01*
X21947474Y42999693D02*
X21995093Y42952074D01*
X21995093Y42952074D02*
X22090331Y42904455D01*
X22090331Y42904455D02*
X22423664Y42904455D01*
X21233188Y42856836D02*
X21233188Y42380645D01*
X21566521Y43380645D02*
X21233188Y42856836D01*
X21233188Y42856836D02*
X20899855Y43380645D01*
X19804616Y43380645D02*
X19804616Y42571122D01*
X19804616Y42571122D02*
X19756997Y42475884D01*
X19756997Y42475884D02*
X19709378Y42428264D01*
X19709378Y42428264D02*
X19614140Y42380645D01*
X19614140Y42380645D02*
X19423664Y42380645D01*
X19423664Y42380645D02*
X19328426Y42428264D01*
X19328426Y42428264D02*
X19280807Y42475884D01*
X19280807Y42475884D02*
X19233188Y42571122D01*
X19233188Y42571122D02*
X19233188Y43380645D01*
X18804616Y42428264D02*
X18661759Y42380645D01*
X18661759Y42380645D02*
X18423664Y42380645D01*
X18423664Y42380645D02*
X18328426Y42428264D01*
X18328426Y42428264D02*
X18280807Y42475884D01*
X18280807Y42475884D02*
X18233188Y42571122D01*
X18233188Y42571122D02*
X18233188Y42666360D01*
X18233188Y42666360D02*
X18280807Y42761598D01*
X18280807Y42761598D02*
X18328426Y42809217D01*
X18328426Y42809217D02*
X18423664Y42856836D01*
X18423664Y42856836D02*
X18614140Y42904455D01*
X18614140Y42904455D02*
X18709378Y42952074D01*
X18709378Y42952074D02*
X18756997Y42999693D01*
X18756997Y42999693D02*
X18804616Y43094931D01*
X18804616Y43094931D02*
X18804616Y43190169D01*
X18804616Y43190169D02*
X18756997Y43285407D01*
X18756997Y43285407D02*
X18709378Y43333026D01*
X18709378Y43333026D02*
X18614140Y43380645D01*
X18614140Y43380645D02*
X18376045Y43380645D01*
X18376045Y43380645D02*
X18233188Y43333026D01*
X17804616Y42380645D02*
X17804616Y43380645D01*
X17328426Y42380645D02*
X17328426Y43380645D01*
X17328426Y43380645D02*
X16756998Y42380645D01*
X16756998Y42380645D02*
X16756998Y43380645D01*
X15756998Y43333026D02*
X15852236Y43380645D01*
X15852236Y43380645D02*
X15995093Y43380645D01*
X15995093Y43380645D02*
X16137950Y43333026D01*
X16137950Y43333026D02*
X16233188Y43237788D01*
X16233188Y43237788D02*
X16280807Y43142550D01*
X16280807Y43142550D02*
X16328426Y42952074D01*
X16328426Y42952074D02*
X16328426Y42809217D01*
X16328426Y42809217D02*
X16280807Y42618741D01*
X16280807Y42618741D02*
X16233188Y42523503D01*
X16233188Y42523503D02*
X16137950Y42428264D01*
X16137950Y42428264D02*
X15995093Y42380645D01*
X15995093Y42380645D02*
X15899855Y42380645D01*
X15899855Y42380645D02*
X15756998Y42428264D01*
X15756998Y42428264D02*
X15709379Y42475884D01*
X15709379Y42475884D02*
X15709379Y42809217D01*
X15709379Y42809217D02*
X15899855Y42809217D01*
X40756998Y41770701D02*
X40185570Y41770701D01*
X40471284Y40770701D02*
X40471284Y41770701D01*
X39852236Y40770701D02*
X39852236Y41770701D01*
X39852236Y41294511D02*
X39280808Y41294511D01*
X39280808Y40770701D02*
X39280808Y41770701D01*
X38804617Y40770701D02*
X38804617Y41770701D01*
X38376046Y40818320D02*
X38233189Y40770701D01*
X38233189Y40770701D02*
X37995094Y40770701D01*
X37995094Y40770701D02*
X37899856Y40818320D01*
X37899856Y40818320D02*
X37852237Y40865940D01*
X37852237Y40865940D02*
X37804618Y40961178D01*
X37804618Y40961178D02*
X37804618Y41056416D01*
X37804618Y41056416D02*
X37852237Y41151654D01*
X37852237Y41151654D02*
X37899856Y41199273D01*
X37899856Y41199273D02*
X37995094Y41246892D01*
X37995094Y41246892D02*
X38185570Y41294511D01*
X38185570Y41294511D02*
X38280808Y41342130D01*
X38280808Y41342130D02*
X38328427Y41389749D01*
X38328427Y41389749D02*
X38376046Y41484987D01*
X38376046Y41484987D02*
X38376046Y41580225D01*
X38376046Y41580225D02*
X38328427Y41675463D01*
X38328427Y41675463D02*
X38280808Y41723082D01*
X38280808Y41723082D02*
X38185570Y41770701D01*
X38185570Y41770701D02*
X37947475Y41770701D01*
X37947475Y41770701D02*
X37804618Y41723082D01*
X36614141Y40770701D02*
X36614141Y41770701D01*
X36614141Y41770701D02*
X36376046Y41770701D01*
X36376046Y41770701D02*
X36233189Y41723082D01*
X36233189Y41723082D02*
X36137951Y41627844D01*
X36137951Y41627844D02*
X36090332Y41532606D01*
X36090332Y41532606D02*
X36042713Y41342130D01*
X36042713Y41342130D02*
X36042713Y41199273D01*
X36042713Y41199273D02*
X36090332Y41008797D01*
X36090332Y41008797D02*
X36137951Y40913559D01*
X36137951Y40913559D02*
X36233189Y40818320D01*
X36233189Y40818320D02*
X36376046Y40770701D01*
X36376046Y40770701D02*
X36614141Y40770701D01*
X35614141Y41294511D02*
X35280808Y41294511D01*
X35137951Y40770701D02*
X35614141Y40770701D01*
X35614141Y40770701D02*
X35614141Y41770701D01*
X35614141Y41770701D02*
X35137951Y41770701D01*
X34852236Y41770701D02*
X34518903Y40770701D01*
X34518903Y40770701D02*
X34185570Y41770701D01*
X33852236Y40770701D02*
X33852236Y41770701D01*
X32804618Y40865940D02*
X32852237Y40818320D01*
X32852237Y40818320D02*
X32995094Y40770701D01*
X32995094Y40770701D02*
X33090332Y40770701D01*
X33090332Y40770701D02*
X33233189Y40818320D01*
X33233189Y40818320D02*
X33328427Y40913559D01*
X33328427Y40913559D02*
X33376046Y41008797D01*
X33376046Y41008797D02*
X33423665Y41199273D01*
X33423665Y41199273D02*
X33423665Y41342130D01*
X33423665Y41342130D02*
X33376046Y41532606D01*
X33376046Y41532606D02*
X33328427Y41627844D01*
X33328427Y41627844D02*
X33233189Y41723082D01*
X33233189Y41723082D02*
X33090332Y41770701D01*
X33090332Y41770701D02*
X32995094Y41770701D01*
X32995094Y41770701D02*
X32852237Y41723082D01*
X32852237Y41723082D02*
X32804618Y41675463D01*
X32376046Y41294511D02*
X32042713Y41294511D01*
X31899856Y40770701D02*
X32376046Y40770701D01*
X32376046Y40770701D02*
X32376046Y41770701D01*
X32376046Y41770701D02*
X31899856Y41770701D01*
X31471284Y40865940D02*
X31423665Y40818320D01*
X31423665Y40818320D02*
X31471284Y40770701D01*
X31471284Y40770701D02*
X31518903Y40818320D01*
X31518903Y40818320D02*
X31471284Y40865940D01*
X31471284Y40865940D02*
X31471284Y40770701D01*
D11*
%TO.C,G\u002A\u002A\u002A*%
G36*
X43625302Y66624669D02*
G01*
X43726105Y66573770D01*
X43815729Y66494612D01*
X43883862Y66417209D01*
X44306760Y66416857D01*
X44333609Y66416831D01*
X44458856Y66416501D01*
X44556597Y66415583D01*
X44631742Y66413716D01*
X44689200Y66410535D01*
X44733882Y66405678D01*
X44770698Y66398784D01*
X44804556Y66389487D01*
X44840367Y66377427D01*
X44850412Y66373819D01*
X44914518Y66347498D01*
X44978894Y66314523D01*
X45045945Y66272842D01*
X45118074Y66220402D01*
X45197686Y66155151D01*
X45287184Y66075037D01*
X45388973Y65978007D01*
X45505455Y65862009D01*
X45639036Y65724992D01*
X45792119Y65564902D01*
X45855562Y65498772D01*
X45938134Y65414667D01*
X46014529Y65338972D01*
X46080624Y65275692D01*
X46132294Y65228834D01*
X46165414Y65202402D01*
X46192190Y65185235D01*
X46228666Y65166365D01*
X46266587Y65155934D01*
X46316577Y65151480D01*
X46389259Y65150542D01*
X46534811Y65150542D01*
X46584202Y65238058D01*
X46592301Y65251903D01*
X46671542Y65355703D01*
X46772525Y65446304D01*
X46885073Y65514363D01*
X46899588Y65521014D01*
X46949058Y65540414D01*
X46997705Y65551834D01*
X47056895Y65557266D01*
X47137992Y65558704D01*
X47189456Y65558405D01*
X47253498Y65555372D01*
X47303368Y65547165D01*
X47350919Y65531469D01*
X47408004Y65505969D01*
X47528450Y65434058D01*
X47632911Y65335985D01*
X47711973Y65216359D01*
X47765337Y65075542D01*
X47767363Y65067816D01*
X47784912Y64968478D01*
X47783138Y64871766D01*
X47761877Y64762903D01*
X47730758Y64670488D01*
X47661854Y64546589D01*
X47569375Y64443683D01*
X47456517Y64364394D01*
X47326476Y64311345D01*
X47182447Y64287161D01*
X47079183Y64287951D01*
X46938100Y64314656D01*
X46811299Y64371300D01*
X46699906Y64457324D01*
X46605052Y64572172D01*
X46530444Y64683875D01*
X45804128Y64683875D01*
X45077812Y64683875D01*
X44970402Y64595001D01*
X44952542Y64579702D01*
X44895535Y64527085D01*
X44826413Y64459457D01*
X44752319Y64383902D01*
X44680398Y64307501D01*
X44574012Y64193150D01*
X44439131Y64052224D01*
X44311972Y63923919D01*
X44195242Y63810844D01*
X44091651Y63715609D01*
X44003907Y63640824D01*
X43934720Y63589098D01*
X43835642Y63527035D01*
X43744595Y63481359D01*
X43657414Y63452794D01*
X43563945Y63438059D01*
X43454034Y63433875D01*
X43287992Y63433875D01*
X43287992Y63325542D01*
X43287992Y63217209D01*
X42837992Y63217209D01*
X42387992Y63217209D01*
X42387992Y63659148D01*
X42387992Y64101087D01*
X42833826Y64096648D01*
X43279659Y64092209D01*
X43284621Y63988042D01*
X43289583Y63883875D01*
X43410000Y63883875D01*
X43413099Y63883877D01*
X43479538Y63885795D01*
X43528979Y63894115D01*
X43576283Y63912940D01*
X43636311Y63946375D01*
X43696686Y63987943D01*
X43778248Y64054668D01*
X43874907Y64141872D01*
X43983707Y64246700D01*
X44101693Y64366302D01*
X44225908Y64497825D01*
X44353398Y64638415D01*
X44393803Y64683875D01*
X43140898Y64683875D01*
X41887992Y64683875D01*
X41887992Y64417209D01*
X41887791Y64357702D01*
X41886761Y64275437D01*
X41885007Y64209770D01*
X41882697Y64166279D01*
X41879998Y64150542D01*
X41869609Y64155979D01*
X41835155Y64177007D01*
X41781291Y64211066D01*
X41712725Y64255173D01*
X41634165Y64306345D01*
X41573575Y64346038D01*
X41393210Y64464248D01*
X41238440Y64565773D01*
X41107492Y64651789D01*
X40998593Y64723473D01*
X40909968Y64782002D01*
X40839844Y64828551D01*
X40786448Y64864296D01*
X40748005Y64890415D01*
X40722741Y64908083D01*
X40708884Y64918476D01*
X40704659Y64922771D01*
X40704670Y64922840D01*
X40716713Y64932560D01*
X40751844Y64957132D01*
X40810676Y64996963D01*
X40893821Y65052458D01*
X41001893Y65124023D01*
X41135504Y65212065D01*
X41295268Y65316989D01*
X41481797Y65439200D01*
X41695705Y65579106D01*
X41879659Y65699336D01*
X41887992Y65429106D01*
X41896326Y65158875D01*
X43695417Y65154634D01*
X43896518Y65154242D01*
X44142354Y65154001D01*
X44374125Y65154039D01*
X44589905Y65154346D01*
X44787767Y65154909D01*
X44965784Y65155719D01*
X45122029Y65156763D01*
X45254575Y65158032D01*
X45361496Y65159513D01*
X45440864Y65161195D01*
X45490753Y65163068D01*
X45509236Y65165119D01*
X45509551Y65165712D01*
X45499723Y65183487D01*
X45468572Y65221725D01*
X45418401Y65277904D01*
X45351515Y65349503D01*
X45270217Y65434002D01*
X45176812Y65528878D01*
X45146510Y65559377D01*
X45040721Y65665901D01*
X44953433Y65752101D01*
X44880168Y65820123D01*
X44816445Y65872110D01*
X44757788Y65910208D01*
X44699715Y65936561D01*
X44637750Y65953313D01*
X44567412Y65962609D01*
X44484223Y65966594D01*
X44383704Y65967413D01*
X44261376Y65967209D01*
X43876905Y65967209D01*
X43824444Y65901929D01*
X43774417Y65850853D01*
X43681020Y65790521D01*
X43573826Y65752990D01*
X43461216Y65740836D01*
X43351571Y65756634D01*
X43284639Y65782231D01*
X43188938Y65844334D01*
X43112150Y65926987D01*
X43057026Y66024754D01*
X43026317Y66132198D01*
X43022774Y66243883D01*
X43049146Y66354372D01*
X43063457Y66387427D01*
X43127186Y66487030D01*
X43209493Y66563819D01*
X43305417Y66616884D01*
X43409999Y66645319D01*
X43518281Y66648216D01*
X43625302Y66624669D01*
G37*
G36*
X35377607Y76049327D02*
G01*
X44684358Y76044108D01*
X44690693Y75945376D01*
X44697028Y75846645D01*
X35383942Y75846645D01*
X26070855Y75846645D01*
X26070855Y75950596D01*
X26070855Y76054547D01*
X35377607Y76049327D01*
G37*
G36*
X27234849Y77852455D02*
G01*
X27234849Y76428642D01*
X26787958Y76428642D01*
X26341068Y76428642D01*
X26341068Y77852455D01*
X26341068Y79276268D01*
X26787958Y79276268D01*
X27234849Y79276268D01*
X27234849Y77852455D01*
G37*
G36*
X26855917Y74656669D02*
G01*
X26861519Y74204583D01*
X26715209Y74204583D01*
X26568899Y74204583D01*
X26574501Y74656669D01*
X26580102Y75108756D01*
X26715209Y75108756D01*
X26850315Y75108756D01*
X26855917Y74656669D01*
G37*
G36*
X27567418Y72904446D02*
G01*
X27567418Y72789087D01*
X27447901Y72795321D01*
X27328384Y72801555D01*
X27322101Y72910679D01*
X27315819Y73019804D01*
X27441619Y73019804D01*
X27567418Y73019804D01*
X27567418Y72904446D01*
G37*
G36*
X31475111Y75036007D02*
G01*
X31475111Y74952864D01*
X31350397Y74952864D01*
X31225684Y74952864D01*
X31225684Y75036007D01*
X31225684Y75119149D01*
X31350397Y75119149D01*
X31475111Y75119149D01*
X31475111Y75036007D01*
G37*
G36*
X31475111Y74537152D02*
G01*
X31475111Y74204583D01*
X31350397Y74204583D01*
X31225684Y74204583D01*
X31225684Y74537152D01*
X31225684Y74869722D01*
X31350397Y74869722D01*
X31475111Y74869722D01*
X31475111Y74537152D01*
G37*
G36*
X35133376Y77478314D02*
G01*
X35133376Y77176923D01*
X34551379Y77176923D01*
X33969382Y77176923D01*
X33969382Y77478314D01*
X33969382Y77779705D01*
X34551379Y77779705D01*
X35133376Y77779705D01*
X35133376Y77478314D01*
G37*
G36*
X28752197Y72919340D02*
G01*
X28751453Y72886190D01*
X28746468Y72832370D01*
X28738340Y72805019D01*
X28724714Y72799754D01*
X28678314Y72793572D01*
X28613627Y72791162D01*
X28502770Y72791162D01*
X28502770Y72905483D01*
X28502770Y73019804D01*
X28627484Y73019804D01*
X28752197Y73019804D01*
X28752197Y72919340D01*
G37*
G36*
X31783412Y75114939D02*
G01*
X31901215Y75108756D01*
X31906817Y74656669D01*
X31912419Y74204583D01*
X31788118Y74204583D01*
X31663818Y74204583D01*
X31657803Y74627552D01*
X31657450Y74653360D01*
X31656107Y74781747D01*
X31655574Y74896059D01*
X31655837Y74989423D01*
X31656883Y75054968D01*
X31658699Y75085821D01*
X31660832Y75093551D01*
X31676808Y75110035D01*
X31714405Y75116402D01*
X31783412Y75114939D01*
G37*
G36*
X51928138Y72042881D02*
G01*
X38417500Y72042881D01*
X24906862Y72042881D01*
X24906862Y76200000D01*
X24906862Y80170049D01*
X25093932Y80170049D01*
X25093932Y76200000D01*
X25093932Y72229951D01*
X38417500Y72229951D01*
X51741068Y72229951D01*
X51741068Y76200000D01*
X51741068Y80170049D01*
X38417500Y80170049D01*
X25093932Y80170049D01*
X24906862Y80170049D01*
X24906862Y80357119D01*
X38417500Y80357119D01*
X51928138Y80357119D01*
X51928138Y76200000D01*
X51928138Y72042881D01*
G37*
G36*
X37444933Y73205883D02*
G01*
X37438895Y72789138D01*
X37320219Y72795346D01*
X37201543Y72801555D01*
X37195506Y72973036D01*
X37189469Y73144517D01*
X37044810Y73144517D01*
X36900152Y73144517D01*
X36900152Y72967840D01*
X36900152Y72791162D01*
X36775438Y72791162D01*
X36650724Y72791162D01*
X36650724Y73206874D01*
X36650724Y73622586D01*
X36774488Y73622586D01*
X36898252Y73622586D01*
X36904398Y73484966D01*
X36910544Y73347345D01*
X37045651Y73347345D01*
X37180757Y73347345D01*
X37186903Y73484966D01*
X37193049Y73622586D01*
X37322010Y73622607D01*
X37450970Y73622629D01*
X37444933Y73205883D01*
G37*
G36*
X32857828Y73400310D02*
G01*
X32893355Y73373159D01*
X32918763Y73341450D01*
X32941846Y73334464D01*
X32950888Y73362766D01*
X32957538Y73379050D01*
X32989460Y73390607D01*
X33054816Y73393944D01*
X33158744Y73393944D01*
X33158744Y73092553D01*
X33158744Y72791162D01*
X33046430Y72791162D01*
X32934115Y72791162D01*
X32926913Y72990323D01*
X32920278Y73096074D01*
X32906692Y73171993D01*
X32883167Y73218581D01*
X32846514Y73242008D01*
X32793545Y73248445D01*
X32759585Y73262710D01*
X32726060Y73302629D01*
X32706676Y73351579D01*
X32711078Y73392690D01*
X32713533Y73396082D01*
X32750283Y73413661D01*
X32804259Y73414440D01*
X32857828Y73400310D01*
G37*
G36*
X41812413Y73399079D02*
G01*
X41861373Y73369536D01*
X41886450Y73347309D01*
X41905088Y73339361D01*
X41909481Y73359143D01*
X41909483Y73359644D01*
X41918130Y73380753D01*
X41949706Y73391160D01*
X42013409Y73393944D01*
X42117337Y73393944D01*
X42117337Y73092553D01*
X42117337Y72791162D01*
X42003016Y72791162D01*
X41888695Y72791162D01*
X41888389Y72962643D01*
X41886883Y73034983D01*
X41876951Y73130394D01*
X41855790Y73193496D01*
X41821140Y73229700D01*
X41770743Y73244414D01*
X41766573Y73244857D01*
X41713230Y73263302D01*
X41680876Y73310712D01*
X41680843Y73310792D01*
X41667339Y73359553D01*
X41669671Y73392690D01*
X41700234Y73411530D01*
X41753450Y73413711D01*
X41812413Y73399079D01*
G37*
G36*
X37007806Y74875888D02*
G01*
X37062653Y74838537D01*
X37082427Y74822038D01*
X37114027Y74798911D01*
X37126562Y74800872D01*
X37128793Y74826303D01*
X37130187Y74843051D01*
X37142901Y74860388D01*
X37177225Y74868018D01*
X37243114Y74869722D01*
X37357435Y74869722D01*
X37357435Y74537152D01*
X37357435Y74204583D01*
X37232721Y74204583D01*
X37108008Y74204583D01*
X37107701Y74386457D01*
X37104317Y74500066D01*
X37092478Y74583108D01*
X37069623Y74636601D01*
X37033183Y74666442D01*
X36980591Y74678533D01*
X36976768Y74678865D01*
X36928689Y74688275D01*
X36900862Y74713493D01*
X36878976Y74766975D01*
X36865032Y74812145D01*
X36861965Y74849738D01*
X36883113Y74868933D01*
X36934259Y74881740D01*
X36958383Y74885000D01*
X37007806Y74875888D01*
G37*
G36*
X40932543Y74869154D02*
G01*
X41014098Y74815916D01*
X41078057Y74762098D01*
X41078057Y74815910D01*
X41079982Y74843737D01*
X41092876Y74861372D01*
X41126943Y74868434D01*
X41192377Y74869722D01*
X41306698Y74869722D01*
X41306698Y74537152D01*
X41306698Y74204583D01*
X41181985Y74204583D01*
X41057271Y74204583D01*
X41057271Y74403412D01*
X41057209Y74426110D01*
X41053917Y74534324D01*
X41043999Y74608138D01*
X41025217Y74653499D01*
X40995330Y74676355D01*
X40952097Y74682651D01*
X40946745Y74682569D01*
X40906499Y74673403D01*
X40878596Y74645153D01*
X40861082Y74592259D01*
X40852006Y74509161D01*
X40849415Y74390300D01*
X40849415Y74204583D01*
X40723050Y74204583D01*
X40596684Y74204583D01*
X40603533Y74473355D01*
X40609306Y74606773D01*
X40620736Y74707302D01*
X40640333Y74778469D01*
X40670671Y74826371D01*
X40714326Y74857106D01*
X40773873Y74876772D01*
X40850507Y74886571D01*
X40932543Y74869154D01*
G37*
G36*
X31828466Y73206874D02*
G01*
X31828466Y72791162D01*
X31714145Y72791162D01*
X31599824Y72791162D01*
X31599824Y72883519D01*
X31598105Y72925787D01*
X31584659Y72975536D01*
X31553083Y73008614D01*
X31541667Y73016410D01*
X31519371Y73026122D01*
X31500568Y73016748D01*
X31478077Y72982166D01*
X31444716Y72916258D01*
X31383090Y72791162D01*
X31262816Y72791162D01*
X31210243Y72792422D01*
X31161394Y72796939D01*
X31142541Y72803608D01*
X31146543Y72813822D01*
X31167485Y72854057D01*
X31202319Y72916434D01*
X31246469Y72992632D01*
X31274954Y73041526D01*
X31313815Y73110155D01*
X31340488Y73159806D01*
X31350397Y73182132D01*
X31337163Y73202035D01*
X31301945Y73242461D01*
X31252447Y73294499D01*
X31154497Y73393944D01*
X31292252Y73393944D01*
X31430006Y73393944D01*
X31514915Y73297483D01*
X31599824Y73201021D01*
X31599824Y73411804D01*
X31599824Y73622586D01*
X31714145Y73622586D01*
X31828466Y73622586D01*
X31828466Y73206874D01*
G37*
G36*
X40727721Y73485139D02*
G01*
X40814527Y73347692D01*
X40852150Y73396800D01*
X40863086Y73411923D01*
X40899920Y73469350D01*
X40937112Y73534247D01*
X40984450Y73622586D01*
X41125821Y73622586D01*
X41161099Y73622319D01*
X41222222Y73618936D01*
X41250096Y73610689D01*
X41250571Y73596349D01*
X41250422Y73596115D01*
X41232393Y73568765D01*
X41196362Y73514827D01*
X41147485Y73441999D01*
X41090920Y73357981D01*
X40947891Y73145851D01*
X40948350Y72984096D01*
X40948347Y72967032D01*
X40946994Y72890865D01*
X40943841Y72833673D01*
X40939457Y72806751D01*
X40926916Y72800675D01*
X40882214Y72793827D01*
X40818284Y72791162D01*
X40706463Y72791162D01*
X40695572Y72879501D01*
X40694044Y72893154D01*
X40688583Y72978131D01*
X40688202Y73061375D01*
X40688359Y73091400D01*
X40683258Y73129587D01*
X40668616Y73170732D01*
X40640729Y73222519D01*
X40595895Y73292630D01*
X40530411Y73388748D01*
X40369099Y73622586D01*
X40505007Y73622586D01*
X40640916Y73622586D01*
X40727721Y73485139D01*
G37*
G36*
X37773147Y74661866D02*
G01*
X37773491Y74598052D01*
X37776226Y74520662D01*
X37782987Y74470056D01*
X37795307Y74437045D01*
X37814718Y74412439D01*
X37839963Y74390344D01*
X37887908Y74372596D01*
X37939431Y74391179D01*
X37941420Y74392561D01*
X37955790Y74414464D01*
X37965966Y74458805D01*
X37972925Y74531956D01*
X37977645Y74640287D01*
X37984681Y74869722D01*
X38107555Y74869722D01*
X38230430Y74869722D01*
X38230430Y74623396D01*
X38230266Y74583374D01*
X38226228Y74454604D01*
X38215643Y74359417D01*
X38196998Y74291691D01*
X38168785Y74245301D01*
X38129494Y74214123D01*
X38059099Y74192263D01*
X37973215Y74190734D01*
X37890365Y74208273D01*
X37828289Y74243168D01*
X37819850Y74250982D01*
X37779166Y74282066D01*
X37758265Y74280394D01*
X37752361Y74246154D01*
X37751142Y74231570D01*
X37738523Y74214189D01*
X37704106Y74206387D01*
X37638040Y74204583D01*
X37523720Y74204583D01*
X37523720Y74537152D01*
X37523720Y74869722D01*
X37648433Y74869722D01*
X37773147Y74869722D01*
X37773147Y74661866D01*
G37*
G36*
X39121072Y74485581D02*
G01*
X39090505Y74383818D01*
X39027060Y74295259D01*
X38932147Y74227657D01*
X38826317Y74192826D01*
X38708237Y74186167D01*
X38593636Y74208230D01*
X38493017Y74256926D01*
X38416881Y74330166D01*
X38388289Y74382184D01*
X38361225Y74485015D01*
X38360527Y74577537D01*
X38609711Y74577537D01*
X38610838Y74494549D01*
X38631067Y74418667D01*
X38667921Y74365883D01*
X38712076Y74337681D01*
X38761203Y74334704D01*
X38811267Y74369708D01*
X38834554Y74400543D01*
X38859927Y74469068D01*
X38867265Y74546733D01*
X38857347Y74621553D01*
X38830951Y74681541D01*
X38788857Y74714714D01*
X38732133Y74721699D01*
X38668529Y74697997D01*
X38625303Y74640952D01*
X38609711Y74577537D01*
X38360527Y74577537D01*
X38360402Y74594057D01*
X38387234Y74692031D01*
X38431063Y74759211D01*
X38513249Y74827876D01*
X38614093Y74870725D01*
X38724869Y74886777D01*
X38836852Y74875049D01*
X38941314Y74834559D01*
X39029530Y74764324D01*
X39077947Y74697694D01*
X39117355Y74592791D01*
X39118952Y74546733D01*
X39121072Y74485581D01*
G37*
G36*
X42927769Y73101997D02*
G01*
X42913950Y73004903D01*
X42872525Y72915464D01*
X42804212Y72841828D01*
X42709726Y72792144D01*
X42663558Y72782034D01*
X42563968Y72780257D01*
X42461879Y72797828D01*
X42377936Y72832251D01*
X42353822Y72849007D01*
X42287398Y72923897D01*
X42250457Y73016011D01*
X42244898Y73088257D01*
X42470347Y73088257D01*
X42481554Y73019117D01*
X42508703Y72971061D01*
X42550248Y72943674D01*
X42606387Y72937425D01*
X42653986Y72965360D01*
X42686987Y73023173D01*
X42699333Y73106558D01*
X42689128Y73177292D01*
X42657454Y73235843D01*
X42611386Y73267452D01*
X42558180Y73267463D01*
X42505092Y73231219D01*
X42496727Y73220165D01*
X42475324Y73161076D01*
X42470347Y73088257D01*
X42244898Y73088257D01*
X42242749Y73116177D01*
X42264029Y73215224D01*
X42314047Y73303979D01*
X42392556Y73373271D01*
X42467825Y73402395D01*
X42568192Y73414546D01*
X42671781Y73406601D01*
X42761276Y73378323D01*
X42796425Y73357708D01*
X42869723Y73286548D01*
X42913266Y73198595D01*
X42927084Y73106558D01*
X42927769Y73101997D01*
G37*
G36*
X32640242Y73077114D02*
G01*
X32631543Y72992508D01*
X32604957Y72939473D01*
X32551826Y72877984D01*
X32486250Y72824351D01*
X32421510Y72791299D01*
X32417181Y72790015D01*
X32337832Y72778965D01*
X32246994Y72783020D01*
X32162019Y72800174D01*
X32100258Y72828422D01*
X32073782Y72850034D01*
X32002363Y72936324D01*
X31962959Y73033800D01*
X31958910Y73087015D01*
X32179827Y73087015D01*
X32188995Y73021301D01*
X32219832Y72971061D01*
X32261377Y72943674D01*
X32317516Y72937425D01*
X32365115Y72965360D01*
X32398116Y73023173D01*
X32410463Y73106558D01*
X32410254Y73118706D01*
X32393963Y73200281D01*
X32353285Y73251481D01*
X32290487Y73269231D01*
X32254294Y73258650D01*
X32215281Y73217524D01*
X32189524Y73156367D01*
X32179827Y73087015D01*
X31958910Y73087015D01*
X31955290Y73134601D01*
X31979073Y73230863D01*
X32034030Y73314725D01*
X32119879Y73378323D01*
X32156920Y73394047D01*
X32267723Y73415067D01*
X32382695Y73405643D01*
X32489184Y73367852D01*
X32574537Y73303766D01*
X32605822Y73252381D01*
X32630643Y73169339D01*
X32637177Y73106558D01*
X32640242Y73077114D01*
G37*
G36*
X27880013Y74204583D02*
G01*
X27614591Y74205495D01*
X27577864Y74205766D01*
X27428567Y74211410D01*
X27313001Y74226045D01*
X27225068Y74252089D01*
X27158669Y74291957D01*
X27107708Y74348066D01*
X27066085Y74422831D01*
X27054704Y74451765D01*
X27032555Y74555396D01*
X27028346Y74651524D01*
X27307598Y74651524D01*
X27307740Y74612861D01*
X27310329Y74544375D01*
X27318717Y74500855D01*
X27336160Y74470589D01*
X27365918Y74441865D01*
X27418970Y74408047D01*
X27506221Y74391653D01*
X27588204Y74391653D01*
X27588204Y74651473D01*
X27588204Y74911293D01*
X27506221Y74911293D01*
X27441342Y74902894D01*
X27365918Y74861132D01*
X27351806Y74848605D01*
X27327579Y74820688D01*
X27314307Y74786340D01*
X27308733Y74733855D01*
X27307598Y74651524D01*
X27028346Y74651524D01*
X27027412Y74672854D01*
X27039210Y74786854D01*
X27067880Y74880115D01*
X27092094Y74927809D01*
X27135321Y74995244D01*
X27185014Y75043637D01*
X27248163Y75076049D01*
X27331752Y75095540D01*
X27442770Y75105168D01*
X27588204Y75107996D01*
X27868810Y75108756D01*
X27874411Y74656669D01*
X27874475Y74651473D01*
X27880013Y74204583D01*
G37*
G36*
X28054027Y73414474D02*
G01*
X28172819Y73396186D01*
X28265887Y73346671D01*
X28336598Y73264224D01*
X28347799Y73243328D01*
X28373898Y73148667D01*
X28373105Y73043750D01*
X28344964Y72945955D01*
X28336217Y72928135D01*
X28299048Y72870592D01*
X28250447Y72832163D01*
X28175594Y72800086D01*
X28123382Y72785068D01*
X28008302Y72774094D01*
X27897959Y72790344D01*
X27802841Y72831556D01*
X27733435Y72895466D01*
X27705543Y72938511D01*
X27697010Y72973731D01*
X27722592Y72993690D01*
X27786017Y73006236D01*
X27840840Y73011127D01*
X27885809Y73003634D01*
X27921123Y72977883D01*
X27942914Y72960251D01*
X28005425Y72938126D01*
X28068534Y72945790D01*
X28117058Y72982857D01*
X28135968Y73020349D01*
X28149017Y73095393D01*
X28139419Y73170448D01*
X28107844Y73227660D01*
X28056959Y73261129D01*
X27992548Y73263314D01*
X27928535Y73225187D01*
X27924330Y73221291D01*
X27889514Y73196787D01*
X27849472Y73190484D01*
X27786895Y73199205D01*
X27692137Y73217267D01*
X27734161Y73286071D01*
X27741722Y73297696D01*
X27810768Y73363185D01*
X27909534Y73401945D01*
X28039623Y73414652D01*
X28054027Y73414474D01*
G37*
G36*
X33523552Y73565546D02*
G01*
X33538741Y73557987D01*
X33598587Y73523519D01*
X33628597Y73493485D01*
X33636813Y73460418D01*
X33643464Y73427770D01*
X33678384Y73399967D01*
X33699196Y73387458D01*
X33718923Y73349848D01*
X33722761Y73303828D01*
X33710391Y73264870D01*
X33681496Y73248445D01*
X33670663Y73247253D01*
X33655402Y73235643D01*
X33644851Y73205369D01*
X33636926Y73148803D01*
X33629542Y73058320D01*
X33623448Y72985872D01*
X33611130Y72902797D01*
X33592467Y72847903D01*
X33564235Y72813065D01*
X33523214Y72790154D01*
X33439625Y72772537D01*
X33332002Y72782492D01*
X33295157Y72793097D01*
X33278009Y72815987D01*
X33279577Y72864460D01*
X33284652Y72895141D01*
X33303191Y72928406D01*
X33342755Y72940683D01*
X33358783Y72942915D01*
X33380989Y72951803D01*
X33393497Y72974378D01*
X33399925Y73019931D01*
X33403885Y73097750D01*
X33409992Y73248445D01*
X33346725Y73248445D01*
X33305471Y73252013D01*
X33287082Y73271561D01*
X33283458Y73319814D01*
X33285879Y73360659D01*
X33301532Y73387658D01*
X33340618Y73397760D01*
X33365108Y73401821D01*
X33387647Y73415765D01*
X33398576Y73449021D01*
X33404035Y73512716D01*
X33410292Y73621094D01*
X33523552Y73565546D01*
G37*
G36*
X38925950Y73399141D02*
G01*
X38946459Y73321911D01*
X38969228Y73242234D01*
X38987468Y73185055D01*
X38998477Y73159308D01*
X38999559Y73158679D01*
X39011551Y73175602D01*
X39029883Y73223400D01*
X39052046Y73293658D01*
X39075532Y73377960D01*
X39097833Y73467890D01*
X39116439Y73555033D01*
X39129407Y73622586D01*
X39303486Y73622586D01*
X39477566Y73622586D01*
X39477566Y73206874D01*
X39477566Y72791162D01*
X39373638Y72791162D01*
X39269710Y72791162D01*
X39268392Y73097750D01*
X39267929Y73175132D01*
X39266195Y73270601D01*
X39262128Y73329223D01*
X39254449Y73350413D01*
X39241880Y73333588D01*
X39223144Y73278164D01*
X39196961Y73183558D01*
X39162054Y73049186D01*
X39095240Y72789219D01*
X39001519Y72795387D01*
X38907797Y72801555D01*
X38834130Y73087329D01*
X38823821Y73126744D01*
X38797059Y73223756D01*
X38773485Y73301946D01*
X38755342Y73354133D01*
X38744873Y73373131D01*
X38742849Y73370676D01*
X38737512Y73338433D01*
X38733207Y73274643D01*
X38730331Y73186740D01*
X38729284Y73082160D01*
X38729284Y72791162D01*
X38635749Y72791162D01*
X38542214Y72791162D01*
X38542214Y73206874D01*
X38542214Y73622586D01*
X38705363Y73622586D01*
X38868511Y73622586D01*
X38925950Y73399141D01*
G37*
G36*
X43155856Y73637124D02*
G01*
X43234431Y73609753D01*
X43284278Y73557686D01*
X43309991Y73477751D01*
X43317699Y73439714D01*
X43335434Y73403777D01*
X43364718Y73393944D01*
X43383177Y73391604D01*
X43401367Y73371374D01*
X43406044Y73321195D01*
X43404685Y73288352D01*
X43393124Y73256583D01*
X43364472Y73248445D01*
X43354325Y73247940D01*
X43337368Y73239999D01*
X43327905Y73215770D01*
X43323796Y73166831D01*
X43322901Y73084759D01*
X43322878Y73074843D01*
X43320865Y72986878D01*
X43316242Y72908668D01*
X43309910Y72856117D01*
X43303494Y72828516D01*
X43288530Y72803094D01*
X43256671Y72792978D01*
X43195589Y72791162D01*
X43094260Y72791162D01*
X43094260Y73019804D01*
X43094260Y73248445D01*
X43031903Y73248445D01*
X42990654Y73252270D01*
X42973022Y73272317D01*
X42969546Y73321195D01*
X42971871Y73363204D01*
X42985927Y73388285D01*
X43020283Y73393944D01*
X43055297Y73398833D01*
X43084430Y73415640D01*
X43088603Y73426354D01*
X43079123Y73459343D01*
X43047663Y73483743D01*
X43008199Y73486553D01*
X43003807Y73485296D01*
X42971863Y73490762D01*
X42947928Y73531240D01*
X42945509Y73537735D01*
X42932926Y73590941D01*
X42946101Y73623176D01*
X42990107Y73639099D01*
X43070019Y73643372D01*
X43155856Y73637124D01*
G37*
G36*
X43031903Y74412439D02*
G01*
X43031903Y73955156D01*
X42907189Y73955156D01*
X42782476Y73955156D01*
X42782476Y74101188D01*
X42782476Y74247221D01*
X42721151Y74215509D01*
X42645378Y74190436D01*
X42542573Y74187842D01*
X42447240Y74216354D01*
X42385018Y74267719D01*
X42338601Y74348963D01*
X42313261Y74448243D01*
X42310356Y74527102D01*
X42552358Y74527102D01*
X42563541Y74450362D01*
X42596914Y74384063D01*
X42607408Y74370876D01*
X42639330Y74338281D01*
X42667932Y74334160D01*
X42709726Y74354134D01*
X42737647Y74372003D01*
X42765769Y74403870D01*
X42778813Y74451359D01*
X42782157Y74527331D01*
X42779390Y74581890D01*
X42758535Y74662034D01*
X42718656Y74709036D01*
X42661430Y74720213D01*
X42630912Y74710364D01*
X42588147Y74668065D01*
X42561261Y74603324D01*
X42552358Y74527102D01*
X42310356Y74527102D01*
X42309284Y74556201D01*
X42326954Y74663477D01*
X42366553Y74760711D01*
X42428367Y74838543D01*
X42428463Y74838629D01*
X42493480Y74871748D01*
X42577252Y74881611D01*
X42664305Y74868507D01*
X42739163Y74832725D01*
X42756032Y74820318D01*
X42788765Y74799001D01*
X42801261Y74801668D01*
X42803261Y74827528D01*
X42804543Y74842851D01*
X42817198Y74860212D01*
X42851581Y74867953D01*
X42917582Y74869722D01*
X43031903Y74869722D01*
X43031903Y74527331D01*
X43031903Y74412439D01*
G37*
G36*
X30846251Y74867516D02*
G01*
X30937559Y74822034D01*
X31011449Y74751879D01*
X31062375Y74651837D01*
X31080152Y74533309D01*
X31075090Y74458204D01*
X31041979Y74349643D01*
X30977706Y74268324D01*
X30881925Y74213689D01*
X30876877Y74211876D01*
X30779119Y74192489D01*
X30651517Y74190549D01*
X30586858Y74196293D01*
X30478359Y74223552D01*
X30398642Y74273955D01*
X30342146Y74350372D01*
X30327905Y74379938D01*
X30324915Y74403312D01*
X30343262Y74418520D01*
X30389536Y74430355D01*
X30470326Y74443608D01*
X30525349Y74449388D01*
X30555061Y74441874D01*
X30569402Y74417276D01*
X30573688Y74406194D01*
X30614558Y74359543D01*
X30674505Y74337356D01*
X30737462Y74346409D01*
X30767990Y74367008D01*
X30807945Y74425999D01*
X30827927Y74502333D01*
X30827142Y74583302D01*
X30804796Y74656199D01*
X30760092Y74708315D01*
X30702926Y74724528D01*
X30638859Y74712840D01*
X30588035Y74676922D01*
X30572377Y74658926D01*
X30545575Y74641551D01*
X30506524Y74638638D01*
X30441027Y74647329D01*
X30398445Y74655965D01*
X30350542Y74671596D01*
X30331903Y74686682D01*
X30337841Y74700850D01*
X30366371Y74739033D01*
X30410541Y74786966D01*
X30418743Y74795075D01*
X30473500Y74840858D01*
X30529840Y74866150D01*
X30607743Y74880419D01*
X30615446Y74881355D01*
X30742560Y74886638D01*
X30846251Y74867516D01*
G37*
G36*
X36431694Y73114657D02*
G01*
X36471379Y73008077D01*
X36503932Y72920207D01*
X36526857Y72857782D01*
X36537660Y72827537D01*
X36540506Y72812002D01*
X36529662Y72798628D01*
X36493972Y72792579D01*
X36425096Y72791162D01*
X36407088Y72791174D01*
X36345170Y72792971D01*
X36310590Y72801867D01*
X36291633Y72823601D01*
X36276584Y72863912D01*
X36252574Y72936661D01*
X36101301Y72936661D01*
X35950028Y72936661D01*
X35930733Y72869108D01*
X35928072Y72859917D01*
X35915056Y72826634D01*
X35893815Y72808458D01*
X35853241Y72799874D01*
X35782227Y72795367D01*
X35721101Y72794402D01*
X35671889Y72797970D01*
X35653016Y72805570D01*
X35653472Y72808079D01*
X35663751Y72840511D01*
X35685936Y72904285D01*
X35717860Y72993346D01*
X35757361Y73101638D01*
X35779360Y73161137D01*
X36011142Y73161137D01*
X36035031Y73148465D01*
X36095777Y73144517D01*
X36189630Y73144517D01*
X36151193Y73271466D01*
X36131804Y73332866D01*
X36113772Y73384512D01*
X36103252Y73407919D01*
X36095723Y73401380D01*
X36078599Y73365200D01*
X36057425Y73306952D01*
X36042436Y73261621D01*
X36023041Y73203790D01*
X36011512Y73170499D01*
X36011142Y73161137D01*
X35779360Y73161137D01*
X35802273Y73223108D01*
X35951530Y73624255D01*
X36098462Y73618224D01*
X36245395Y73612193D01*
X36385558Y73238052D01*
X36387372Y73233210D01*
X36420531Y73144517D01*
X36431694Y73114657D01*
G37*
G36*
X38333756Y73095978D02*
G01*
X38372761Y72990501D01*
X38404130Y72904790D01*
X38425527Y72845223D01*
X38434613Y72818181D01*
X38427047Y72802546D01*
X38389685Y72793791D01*
X38316708Y72791162D01*
X38298471Y72791175D01*
X38236606Y72792978D01*
X38202055Y72801882D01*
X38183113Y72823616D01*
X38168073Y72863912D01*
X38144064Y72936661D01*
X37992790Y72936661D01*
X37841517Y72936661D01*
X37822223Y72869108D01*
X37818868Y72857575D01*
X37805876Y72825538D01*
X37784207Y72808045D01*
X37742905Y72799747D01*
X37671015Y72795296D01*
X37603115Y72793044D01*
X37563110Y72795913D01*
X37548375Y72806337D01*
X37550568Y72826475D01*
X37550859Y72827406D01*
X37562300Y72860403D01*
X37585556Y72925207D01*
X37618190Y73015096D01*
X37657762Y73123350D01*
X37671580Y73160945D01*
X37902723Y73160945D01*
X37926975Y73148416D01*
X37988051Y73144517D01*
X38082690Y73144517D01*
X38050498Y73253642D01*
X38049756Y73256153D01*
X38023726Y73339484D01*
X38004219Y73384472D01*
X37987699Y73393043D01*
X37970629Y73367122D01*
X37949473Y73308633D01*
X37933917Y73261597D01*
X37914495Y73203691D01*
X37903002Y73170499D01*
X37902723Y73160945D01*
X37671580Y73160945D01*
X37701832Y73243249D01*
X37841629Y73622586D01*
X37989262Y73622391D01*
X38136895Y73622197D01*
X38282394Y73233698D01*
X38289453Y73214838D01*
X38315664Y73144517D01*
X38333756Y73095978D01*
G37*
G36*
X31113888Y73159078D02*
G01*
X31117496Y73058282D01*
X31091584Y72961536D01*
X31036559Y72877642D01*
X30952829Y72815400D01*
X30945489Y72811855D01*
X30826370Y72776170D01*
X30705364Y72776557D01*
X30591923Y72811677D01*
X30495498Y72880192D01*
X30428734Y72946956D01*
X30537539Y72962614D01*
X30565324Y72965958D01*
X30637942Y72967628D01*
X30685220Y72957467D01*
X30713956Y72946132D01*
X30770594Y72936661D01*
X30786816Y72938484D01*
X30834872Y72958175D01*
X30875804Y72990232D01*
X30893114Y73023025D01*
X30875081Y73029665D01*
X30823364Y73035339D01*
X30746092Y73039178D01*
X30651423Y73040589D01*
X30409732Y73040589D01*
X30423841Y73128822D01*
X30435388Y73182960D01*
X30654908Y73182960D01*
X30664288Y73171067D01*
X30699496Y73166223D01*
X30768400Y73165303D01*
X30777196Y73165307D01*
X30842342Y73166415D01*
X30874573Y73171742D01*
X30881742Y73184537D01*
X30871700Y73208048D01*
X30852203Y73235728D01*
X30818958Y73262254D01*
X30764604Y73266287D01*
X30705113Y73245468D01*
X30664341Y73206629D01*
X30663487Y73205026D01*
X30654908Y73182960D01*
X30435388Y73182960D01*
X30436243Y73186968D01*
X30481062Y73288934D01*
X30552136Y73359827D01*
X30651432Y73401224D01*
X30780916Y73414698D01*
X30850417Y73411961D01*
X30919715Y73397696D01*
X30978379Y73367548D01*
X31016485Y73337618D01*
X31080354Y73255123D01*
X31104999Y73184537D01*
X31113888Y73159078D01*
G37*
G36*
X40364841Y73073083D02*
G01*
X40400210Y72974581D01*
X40428653Y72893822D01*
X40447602Y72837861D01*
X40454489Y72813755D01*
X40446001Y72804560D01*
X40403259Y72794724D01*
X40330717Y72791162D01*
X40206945Y72791162D01*
X40193297Y72863912D01*
X40179649Y72936661D01*
X40017991Y72936661D01*
X39856333Y72936661D01*
X39842685Y72863912D01*
X39829037Y72791162D01*
X39705265Y72791162D01*
X39661612Y72792141D01*
X39601730Y72800072D01*
X39581494Y72815760D01*
X39583020Y72828521D01*
X39590190Y72856589D01*
X39604614Y72901897D01*
X39627800Y72968768D01*
X39661253Y73061524D01*
X39691780Y73144517D01*
X39921880Y73144517D01*
X40011507Y73144517D01*
X40035910Y73145165D01*
X40082597Y73151227D01*
X40101134Y73161600D01*
X40100911Y73164847D01*
X40092263Y73201465D01*
X40074773Y73257990D01*
X40053558Y73319466D01*
X40033737Y73370940D01*
X40020425Y73397456D01*
X40020140Y73397724D01*
X40007648Y73385419D01*
X39987793Y73342511D01*
X39964739Y73277939D01*
X39921880Y73144517D01*
X39691780Y73144517D01*
X39706483Y73184488D01*
X39764995Y73341980D01*
X39865683Y73612193D01*
X40012033Y73618249D01*
X40079637Y73620052D01*
X40131407Y73617077D01*
X40159348Y73606703D01*
X40173070Y73587070D01*
X40173984Y73584753D01*
X40205464Y73503386D01*
X40242857Y73404479D01*
X40283597Y73295089D01*
X40325114Y73182271D01*
X40332635Y73161600D01*
X40364841Y73073083D01*
G37*
G36*
X32784603Y74412439D02*
G01*
X32784603Y73955156D01*
X32659890Y73955156D01*
X32535176Y73955156D01*
X32535176Y74092515D01*
X32535176Y74229875D01*
X32478016Y74212372D01*
X32455116Y74206958D01*
X32388120Y74198156D01*
X32313086Y74194530D01*
X32307965Y74194524D01*
X32238040Y74199029D01*
X32189166Y74216797D01*
X32142394Y74254482D01*
X32134941Y74261917D01*
X32079284Y74344676D01*
X32049243Y74443868D01*
X32044756Y74526453D01*
X32306535Y74526453D01*
X32307209Y74476906D01*
X32312782Y74420249D01*
X32326833Y74385837D01*
X32352731Y74361653D01*
X32353509Y74361108D01*
X32393272Y74336033D01*
X32420690Y74333483D01*
X32456614Y74351402D01*
X32462048Y74354951D01*
X32495567Y74399392D01*
X32515753Y74466258D01*
X32522472Y74543235D01*
X32515591Y74618008D01*
X32494979Y74678265D01*
X32460501Y74711693D01*
X32446431Y74716629D01*
X32383803Y74722502D01*
X32340243Y74693525D01*
X32314804Y74628556D01*
X32306535Y74526453D01*
X32044756Y74526453D01*
X32043452Y74550462D01*
X32060546Y74655430D01*
X32099161Y74749742D01*
X32157930Y74824370D01*
X32235490Y74870284D01*
X32272175Y74879436D01*
X32352227Y74883446D01*
X32424465Y74868925D01*
X32473276Y74837993D01*
X32474228Y74836862D01*
X32510075Y74811347D01*
X32542100Y74811939D01*
X32555962Y74838543D01*
X32565846Y74857101D01*
X32601340Y74866923D01*
X32670283Y74869722D01*
X32784603Y74869722D01*
X32784603Y74543235D01*
X32784603Y74412439D01*
G37*
G36*
X36527761Y74869705D02*
G01*
X36638380Y74833954D01*
X36718241Y74771519D01*
X36768905Y74681139D01*
X36791938Y74561550D01*
X36792301Y74556133D01*
X36783593Y74433473D01*
X36743166Y74331023D01*
X36673888Y74253563D01*
X36578625Y74205874D01*
X36521630Y74193566D01*
X36407720Y74186354D01*
X36293802Y74197019D01*
X36199067Y74224616D01*
X36144707Y74257292D01*
X36094547Y74302137D01*
X36058189Y74349115D01*
X36042326Y74389486D01*
X36053651Y74414510D01*
X36055418Y74415419D01*
X36098377Y74429514D01*
X36155721Y74439833D01*
X36213702Y74445094D01*
X36258572Y74444013D01*
X36276584Y74435308D01*
X36285245Y74412316D01*
X36319340Y74374750D01*
X36364875Y74342799D01*
X36406161Y74329296D01*
X36408572Y74329388D01*
X36450197Y74345314D01*
X36495777Y74380315D01*
X36525535Y74424358D01*
X36545389Y74500247D01*
X36543200Y74582431D01*
X36519828Y74656568D01*
X36476132Y74708315D01*
X36473894Y74709749D01*
X36417217Y74724015D01*
X36352120Y74712897D01*
X36299083Y74679702D01*
X36296861Y74677342D01*
X36264327Y74651491D01*
X36223992Y74643122D01*
X36159613Y74648613D01*
X36128158Y74653396D01*
X36076216Y74663814D01*
X36050977Y74672688D01*
X36049184Y74676376D01*
X36059111Y74704844D01*
X36089764Y74748040D01*
X36132997Y74795625D01*
X36180661Y74837259D01*
X36202145Y74851467D01*
X36246346Y74868996D01*
X36307421Y74877738D01*
X36397625Y74880115D01*
X36527761Y74869705D01*
G37*
G36*
X34999569Y73627009D02*
G01*
X35081933Y73592977D01*
X35104101Y73574687D01*
X35142013Y73529172D01*
X35173633Y73476709D01*
X35191842Y73429960D01*
X35189522Y73401591D01*
X35179047Y73396456D01*
X35135657Y73386385D01*
X35073650Y73378109D01*
X35047574Y73375813D01*
X34996845Y73375245D01*
X34970827Y73386230D01*
X34957464Y73412316D01*
X34931326Y73457245D01*
X34878299Y73484968D01*
X34811242Y73477103D01*
X34788276Y73466747D01*
X34764574Y73439614D01*
X34763114Y73389930D01*
X34765855Y73372984D01*
X34780411Y73337649D01*
X34811505Y73297237D01*
X34864734Y73245158D01*
X34945691Y73174818D01*
X34967645Y73155951D01*
X35069164Y73058654D01*
X35147115Y72966140D01*
X35197403Y72883831D01*
X35215933Y72817144D01*
X35215899Y72816289D01*
X35204251Y72806349D01*
X35168697Y72799201D01*
X35104826Y72794511D01*
X35008230Y72791943D01*
X34874498Y72791162D01*
X34532477Y72791162D01*
X34518538Y72865464D01*
X34516912Y72875071D01*
X34514299Y72927192D01*
X34522909Y72958077D01*
X34527760Y72960955D01*
X34566588Y72969957D01*
X34632468Y72977611D01*
X34714355Y72982506D01*
X34887490Y72988625D01*
X34751840Y73088113D01*
X34710414Y73119461D01*
X34620701Y73199071D01*
X34564501Y73273217D01*
X34537753Y73348365D01*
X34536390Y73430983D01*
X34541505Y73465662D01*
X34563535Y73528033D01*
X34606148Y73574557D01*
X34607086Y73575299D01*
X34685339Y73615267D01*
X34786611Y73637587D01*
X34896241Y73641690D01*
X34999569Y73627009D01*
G37*
G36*
X42200479Y74542416D02*
G01*
X42200477Y74541159D01*
X42184897Y74418284D01*
X42141044Y74316709D01*
X42072346Y74241826D01*
X41982230Y74199028D01*
X41921194Y74189865D01*
X41828937Y74186713D01*
X41735234Y74191618D01*
X41661264Y74204236D01*
X41643416Y74210584D01*
X41579567Y74245554D01*
X41519937Y74292574D01*
X41487061Y74324924D01*
X41465841Y74351130D01*
X41470257Y74364414D01*
X41497803Y74373992D01*
X41514533Y74378259D01*
X41604002Y74388869D01*
X41689338Y74382023D01*
X41753302Y74358751D01*
X41794035Y74340621D01*
X41845983Y74339327D01*
X41894042Y74364065D01*
X41934310Y74400219D01*
X41951052Y74434069D01*
X41950960Y74434575D01*
X41929011Y74442148D01*
X41873972Y74449181D01*
X41793794Y74454909D01*
X41696428Y74458566D01*
X41441805Y74464403D01*
X41445664Y74551980D01*
X41454895Y74618810D01*
X41701625Y74618810D01*
X41703721Y74602193D01*
X41718781Y74587136D01*
X41756513Y74580322D01*
X41826338Y74578723D01*
X41842151Y74578809D01*
X41912581Y74583740D01*
X41946282Y74599196D01*
X41947053Y74629263D01*
X41918695Y74678026D01*
X41876418Y74713126D01*
X41819118Y74723780D01*
X41762364Y74709287D01*
X41718940Y74673135D01*
X41701625Y74618810D01*
X41454895Y74618810D01*
X41458720Y74646505D01*
X41502625Y74747608D01*
X41576724Y74820169D01*
X41680919Y74864098D01*
X41815110Y74879308D01*
X41943538Y74867136D01*
X42053772Y74826164D01*
X42134308Y74757540D01*
X42183694Y74662535D01*
X42188343Y74629263D01*
X42200479Y74542416D01*
G37*
G36*
X28577764Y75115609D02*
G01*
X28686812Y75074354D01*
X28781019Y75007502D01*
X28852981Y74914787D01*
X28873344Y74872184D01*
X28907693Y74745393D01*
X28913556Y74609617D01*
X28889531Y74481501D01*
X28861918Y74418407D01*
X28796876Y74325767D01*
X28715078Y74251395D01*
X28627484Y74206782D01*
X28553389Y74193967D01*
X28456836Y74190656D01*
X28355115Y74196512D01*
X28263640Y74210628D01*
X28197821Y74232096D01*
X28142853Y74270083D01*
X28075448Y74347573D01*
X28035173Y74435905D01*
X28030812Y74463451D01*
X28040569Y74484171D01*
X28073885Y74500936D01*
X28139186Y74520605D01*
X28256277Y74553196D01*
X28288874Y74484839D01*
X28297591Y74468088D01*
X28353114Y74403538D01*
X28421560Y74374971D01*
X28495305Y74383847D01*
X28566726Y74431625D01*
X28580353Y74445586D01*
X28606128Y74478257D01*
X28620284Y74515171D01*
X28626257Y74568765D01*
X28627484Y74651473D01*
X28627357Y74687282D01*
X28624723Y74757405D01*
X28616031Y74803162D01*
X28597844Y74836989D01*
X28566726Y74871321D01*
X28542314Y74892863D01*
X28468816Y74928579D01*
X28395137Y74925792D01*
X28328218Y74884130D01*
X28327618Y74883528D01*
X28291630Y74842486D01*
X28271785Y74810726D01*
X28270812Y74808192D01*
X28249491Y74795417D01*
X28201161Y74804992D01*
X28146111Y74821070D01*
X28082596Y74837037D01*
X28074060Y74839047D01*
X28039904Y74856160D01*
X28039210Y74885523D01*
X28069013Y74947257D01*
X28141220Y75029991D01*
X28235602Y75088459D01*
X28344756Y75122395D01*
X28461277Y75131534D01*
X28577764Y75115609D01*
G37*
G36*
X34257721Y73398904D02*
G01*
X34340397Y73362145D01*
X34389600Y73301849D01*
X34405880Y73217688D01*
X34401354Y73183781D01*
X34362610Y73121554D01*
X34284552Y73071570D01*
X34167547Y73034110D01*
X34133098Y73025984D01*
X34052826Y73002924D01*
X34008364Y72980651D01*
X33995551Y72956336D01*
X34010222Y72927149D01*
X34026449Y72912730D01*
X34080387Y72895939D01*
X34139195Y72904649D01*
X34183947Y72937709D01*
X34191686Y72948000D01*
X34216509Y72967394D01*
X34254828Y72972516D01*
X34320232Y72966210D01*
X34360195Y72959662D01*
X34408013Y72947172D01*
X34426666Y72935142D01*
X34410136Y72897772D01*
X34368348Y72853928D01*
X34314066Y72814893D01*
X34260052Y72791660D01*
X34156332Y72774928D01*
X34037918Y72777105D01*
X33938985Y72803418D01*
X33864348Y72851606D01*
X33818820Y72919403D01*
X33807217Y73004548D01*
X33808696Y73019306D01*
X33828747Y73083849D01*
X33873566Y73131129D01*
X33948646Y73165186D01*
X34059483Y73190062D01*
X34133779Y73203761D01*
X34175513Y73216709D01*
X34192737Y73233024D01*
X34193848Y73256883D01*
X34185696Y73279049D01*
X34150272Y73304169D01*
X34100816Y73304824D01*
X34051627Y73278811D01*
X34029709Y73263029D01*
X33985841Y73252223D01*
X33918235Y73257629D01*
X33889253Y73262747D01*
X33842382Y73275472D01*
X33823883Y73287667D01*
X33824199Y73289694D01*
X33841520Y73316020D01*
X33877162Y73353609D01*
X33898902Y73371790D01*
X33939439Y73392607D01*
X33996246Y73404595D01*
X34081956Y73411313D01*
X34141026Y73412454D01*
X34257721Y73398904D01*
G37*
G36*
X34592950Y74661866D02*
G01*
X34592950Y74204583D01*
X34447451Y74204583D01*
X34301952Y74204583D01*
X34301952Y74381260D01*
X34301778Y74427452D01*
X34299672Y74496568D01*
X34293767Y74536008D01*
X34282324Y74553792D01*
X34263602Y74557938D01*
X34245790Y74555881D01*
X34215017Y74539852D01*
X34181109Y74503130D01*
X34139297Y74440035D01*
X34084814Y74344885D01*
X34007376Y74204583D01*
X33853273Y74204583D01*
X33840218Y74204640D01*
X33768668Y74207231D01*
X33718247Y74212908D01*
X33699170Y74220606D01*
X33704672Y74241076D01*
X33729751Y74292018D01*
X33768974Y74358440D01*
X33815534Y74430018D01*
X33862626Y74496431D01*
X33903443Y74547356D01*
X33931178Y74572472D01*
X33979775Y74594992D01*
X33925968Y74616247D01*
X33915184Y74621274D01*
X33864202Y74656988D01*
X33814608Y74705900D01*
X33808641Y74713070D01*
X33776171Y74760565D01*
X33764130Y74808051D01*
X33766023Y74855931D01*
X34040198Y74855931D01*
X34040271Y74817964D01*
X34077935Y74777365D01*
X34088222Y74771274D01*
X34145378Y74752550D01*
X34213042Y74745008D01*
X34301952Y74745008D01*
X34301952Y74828151D01*
X34301952Y74911293D01*
X34199509Y74911293D01*
X34137045Y74906585D01*
X34073771Y74886920D01*
X34040198Y74855931D01*
X33766023Y74855931D01*
X33766810Y74875825D01*
X33767680Y74884270D01*
X33782361Y74957462D01*
X33811326Y75014158D01*
X33859075Y75056301D01*
X33930109Y75085837D01*
X34028929Y75104709D01*
X34160037Y75114864D01*
X34327934Y75118244D01*
X34592950Y75119149D01*
X34592950Y74828151D01*
X34592950Y74661866D01*
G37*
G36*
X44122986Y74633254D02*
G01*
X44120249Y74550267D01*
X44111620Y74490724D01*
X44094222Y74440775D01*
X44065178Y74386572D01*
X44016234Y74318638D01*
X43933911Y74251185D01*
X43821890Y74201983D01*
X43775972Y74194340D01*
X43703742Y74190508D01*
X43621479Y74191467D01*
X43504595Y74204028D01*
X43399957Y74237404D01*
X43317914Y74295163D01*
X43250152Y74381560D01*
X43232650Y74410574D01*
X43208533Y74459050D01*
X43195024Y74508363D01*
X43189129Y74572082D01*
X43187853Y74663772D01*
X43187947Y74678290D01*
X43463210Y74678290D01*
X43464417Y74573051D01*
X43486109Y74492937D01*
X43529158Y74431625D01*
X43562580Y74403304D01*
X43632775Y74372943D01*
X43700386Y74377137D01*
X43760947Y74411287D01*
X43809993Y74470790D01*
X43843057Y74551044D01*
X43855674Y74647448D01*
X43843378Y74755401D01*
X43832759Y74789393D01*
X43789472Y74862170D01*
X43729471Y74912978D01*
X43662715Y74932079D01*
X43640298Y74930655D01*
X43566420Y74906278D01*
X43508239Y74858859D01*
X43478577Y74797754D01*
X43463210Y74678290D01*
X43187947Y74678290D01*
X43188240Y74723853D01*
X43191702Y74795143D01*
X43201240Y74845640D01*
X43219806Y74888172D01*
X43250348Y74935568D01*
X43281990Y74976066D01*
X43382628Y75059749D01*
X43507714Y75110578D01*
X43655471Y75127708D01*
X43714524Y75125191D01*
X43853824Y75095078D01*
X43969773Y75031589D01*
X44060593Y74935568D01*
X44080196Y74906332D01*
X44103425Y74863108D01*
X44116321Y74817166D01*
X44121878Y74755563D01*
X44123088Y74665355D01*
X44123031Y74647448D01*
X44122986Y74633254D01*
G37*
G36*
X29163564Y73407682D02*
G01*
X29237856Y73371650D01*
X29292623Y73328570D01*
X29347390Y73371650D01*
X29397606Y73399226D01*
X29481518Y73414730D01*
X29537489Y73410022D01*
X29600802Y73394588D01*
X29648147Y73372751D01*
X29666764Y73349037D01*
X29667344Y73344946D01*
X29687549Y73331588D01*
X29697111Y73335105D01*
X29708335Y73362766D01*
X29714985Y73379050D01*
X29746906Y73390607D01*
X29812263Y73393944D01*
X29916191Y73393944D01*
X29916191Y73092553D01*
X29916191Y72791162D01*
X29802597Y72791162D01*
X29689004Y72791162D01*
X29683080Y73002005D01*
X29681714Y73045034D01*
X29677059Y73130655D01*
X29669641Y73185699D01*
X29658026Y73218085D01*
X29640782Y73235736D01*
X29612919Y73247478D01*
X29568032Y73235772D01*
X29564125Y73233067D01*
X29547473Y73211594D01*
X29535846Y73172012D01*
X29527643Y73106499D01*
X29521265Y73007237D01*
X29510872Y72801555D01*
X29401747Y72795272D01*
X29292623Y72788990D01*
X29292623Y72972521D01*
X29292554Y72992012D01*
X29288723Y73092520D01*
X29278300Y73160189D01*
X29260266Y73202249D01*
X29256496Y73207449D01*
X29214480Y73243354D01*
X29175208Y73242735D01*
X29143397Y73210161D01*
X29123762Y73150196D01*
X29121019Y73067408D01*
X29122334Y73045396D01*
X29122327Y72958304D01*
X29115920Y72879501D01*
X29103005Y72791162D01*
X29000351Y72791162D01*
X28897697Y72791162D01*
X28897697Y73051927D01*
X28897960Y73144581D01*
X28899730Y73225233D01*
X28904350Y73279281D01*
X28913161Y73314916D01*
X28927502Y73340329D01*
X28948716Y73363711D01*
X28997726Y73396679D01*
X29078361Y73415883D01*
X29163564Y73407682D01*
G37*
G36*
X33667408Y74518615D02*
G01*
X33652010Y74416485D01*
X33610906Y74324564D01*
X33545493Y74251307D01*
X33457172Y74205169D01*
X33407586Y74194554D01*
X33308525Y74186624D01*
X33204189Y74189949D01*
X33115991Y74204567D01*
X33113818Y74205192D01*
X33063821Y74227986D01*
X33011520Y74263634D01*
X32966470Y74303692D01*
X32938230Y74339717D01*
X32936357Y74363265D01*
X32946572Y74368311D01*
X32989696Y74378372D01*
X33051477Y74386635D01*
X33066460Y74387904D01*
X33146849Y74385242D01*
X33205625Y74361894D01*
X33219476Y74353937D01*
X33284083Y74338745D01*
X33345365Y74352525D01*
X33387934Y74392678D01*
X33399465Y74416334D01*
X33408171Y74442251D01*
X33408158Y74442371D01*
X33387775Y74446895D01*
X33334057Y74450595D01*
X33255035Y74453093D01*
X33158744Y74454010D01*
X32909317Y74454010D01*
X32909317Y74548577D01*
X32910178Y74575216D01*
X32918948Y74613462D01*
X33158744Y74613462D01*
X33159833Y74603972D01*
X33174286Y74588307D01*
X33212555Y74580710D01*
X33283458Y74578723D01*
X33330392Y74579284D01*
X33379793Y74583879D01*
X33402624Y74595523D01*
X33408171Y74617073D01*
X33408074Y74620610D01*
X33387288Y74670390D01*
X33339885Y74708819D01*
X33279846Y74724223D01*
X33278972Y74724218D01*
X33222020Y74707032D01*
X33177023Y74665612D01*
X33158744Y74613462D01*
X32918948Y74613462D01*
X32936227Y74688818D01*
X32995668Y74780461D01*
X33084581Y74845663D01*
X33199048Y74879940D01*
X33225363Y74883168D01*
X33355526Y74884029D01*
X33463049Y74854734D01*
X33554591Y74793667D01*
X33615480Y74719677D01*
X33655697Y74622497D01*
X33656308Y74617073D01*
X33667408Y74518615D01*
G37*
G36*
X30227668Y74385298D02*
G01*
X30219988Y74335362D01*
X30182583Y74261340D01*
X30123637Y74209320D01*
X30078231Y74194861D01*
X30002080Y74188063D01*
X29919037Y74192687D01*
X29844987Y74207641D01*
X29795816Y74231835D01*
X29754395Y74260262D01*
X29721111Y74263172D01*
X29708335Y74235761D01*
X29708283Y74233983D01*
X29696724Y74216283D01*
X29659515Y74207156D01*
X29588818Y74204554D01*
X29469301Y74204526D01*
X29480516Y74463952D01*
X29481359Y74478750D01*
X29729120Y74478750D01*
X29737669Y74442366D01*
X29765495Y74394842D01*
X29765908Y74394356D01*
X29823025Y74351218D01*
X29887730Y74337587D01*
X29945550Y74356542D01*
X29961904Y74370659D01*
X29977831Y74408283D01*
X29954487Y74444321D01*
X29893544Y74477108D01*
X29796674Y74504977D01*
X29759614Y74511369D01*
X29734790Y74505542D01*
X29729120Y74478750D01*
X29481359Y74478750D01*
X29486555Y74569986D01*
X29498551Y74674621D01*
X29517891Y74749604D01*
X29547369Y74801607D01*
X29589782Y74837300D01*
X29647925Y74863352D01*
X29686143Y74874529D01*
X29789670Y74888766D01*
X29898821Y74885934D01*
X30002132Y74867687D01*
X30088137Y74835679D01*
X30145372Y74791566D01*
X30181651Y74735173D01*
X30184658Y74695085D01*
X30150539Y74670149D01*
X30077438Y74656685D01*
X30065257Y74655562D01*
X30002153Y74653257D01*
X29965070Y74662245D01*
X29941153Y74685219D01*
X29927622Y74698985D01*
X29879936Y74719899D01*
X29822222Y74725534D01*
X29770567Y74715540D01*
X29741056Y74689568D01*
X29738084Y74681166D01*
X29735881Y74658991D01*
X29749494Y74641211D01*
X29785137Y74624578D01*
X29849024Y74605846D01*
X29947369Y74581765D01*
X29965598Y74577342D01*
X30085119Y74540344D01*
X30166625Y74497414D01*
X30213135Y74446437D01*
X30222204Y74408283D01*
X30227668Y74385298D01*
G37*
G36*
X35935720Y74523548D02*
G01*
X35918245Y74418500D01*
X35874950Y74324211D01*
X35810419Y74250354D01*
X35729238Y74206605D01*
X35689956Y74197628D01*
X35585769Y74187160D01*
X35475376Y74189428D01*
X35381621Y74204567D01*
X35378968Y74205336D01*
X35329320Y74228144D01*
X35277131Y74263716D01*
X35232012Y74303620D01*
X35203571Y74339424D01*
X35201418Y74362695D01*
X35209478Y74367005D01*
X35250174Y74377450D01*
X35309902Y74386500D01*
X35313707Y74386916D01*
X35401586Y74385742D01*
X35477738Y74358267D01*
X35482090Y74355932D01*
X35530862Y74333551D01*
X35565759Y74332275D01*
X35606626Y74350983D01*
X35648051Y74383335D01*
X35669982Y74418350D01*
X35670557Y74421956D01*
X35667538Y74436301D01*
X35649845Y74445652D01*
X35610753Y74451068D01*
X35543541Y74453607D01*
X35441487Y74454328D01*
X35357721Y74455538D01*
X35272468Y74459325D01*
X35209570Y74465055D01*
X35178632Y74472078D01*
X35177252Y74473042D01*
X35163216Y74506607D01*
X35164729Y74564897D01*
X35175385Y74613462D01*
X35424374Y74613462D01*
X35425463Y74603972D01*
X35439916Y74588307D01*
X35478185Y74580710D01*
X35549088Y74578723D01*
X35596022Y74579284D01*
X35645424Y74583879D01*
X35668255Y74595523D01*
X35673801Y74617073D01*
X35673704Y74620610D01*
X35652918Y74670390D01*
X35605515Y74708819D01*
X35545476Y74724223D01*
X35544602Y74724218D01*
X35487650Y74707032D01*
X35442653Y74665612D01*
X35424374Y74613462D01*
X35175385Y74613462D01*
X35180229Y74635538D01*
X35208157Y74706158D01*
X35232203Y74746009D01*
X35306896Y74819974D01*
X35400519Y74866459D01*
X35505315Y74886392D01*
X35613524Y74880703D01*
X35717388Y74850320D01*
X35809149Y74796171D01*
X35881048Y74719187D01*
X35925327Y74620295D01*
X35925673Y74617073D01*
X35935720Y74523548D01*
G37*
G36*
X39720418Y75122327D02*
G01*
X39833794Y75099766D01*
X39917417Y75056409D01*
X39975887Y74990490D01*
X40005634Y74928075D01*
X40017604Y74837911D01*
X39990940Y74755597D01*
X39927309Y74683573D01*
X39828378Y74624283D01*
X39695814Y74580168D01*
X39646281Y74566965D01*
X39561760Y74533315D01*
X39513619Y74492682D01*
X39498351Y74442623D01*
X39510521Y74398757D01*
X39555512Y74368863D01*
X39570329Y74363856D01*
X39650812Y74358423D01*
X39720124Y74388612D01*
X39768564Y74450697D01*
X39799742Y74519554D01*
X39922772Y74507519D01*
X39978065Y74501304D01*
X40030723Y74493333D01*
X40054419Y74486867D01*
X40055710Y74484528D01*
X40050691Y74455034D01*
X40030644Y74405605D01*
X40001841Y74348820D01*
X39970557Y74297263D01*
X39943063Y74263514D01*
X39940985Y74261742D01*
X39891991Y74231700D01*
X39830921Y74207010D01*
X39819961Y74204016D01*
X39738537Y74192403D01*
X39638751Y74190383D01*
X39535473Y74197094D01*
X39443571Y74211673D01*
X39377915Y74233261D01*
X39376036Y74234249D01*
X39295689Y74299192D01*
X39245560Y74390496D01*
X39228216Y74503520D01*
X39234354Y74566505D01*
X39265032Y74638635D01*
X39325115Y74697154D01*
X39418625Y74745618D01*
X39549580Y74787580D01*
X39655655Y74818550D01*
X39724275Y74846670D01*
X39757273Y74874017D01*
X39757456Y74902928D01*
X39727633Y74935740D01*
X39699959Y74952233D01*
X39640414Y74963256D01*
X39581733Y74951636D01*
X39536960Y74921138D01*
X39519137Y74875529D01*
X39517430Y74865683D01*
X39501430Y74854697D01*
X39461536Y74853026D01*
X39389227Y74859625D01*
X39327194Y74867392D01*
X39274795Y74875526D01*
X39251842Y74881266D01*
X39251210Y74885549D01*
X39260835Y74916903D01*
X39283020Y74966689D01*
X39331650Y75039235D01*
X39400691Y75089798D01*
X39494944Y75117920D01*
X39620931Y75126691D01*
X39720418Y75122327D01*
G37*
G36*
X50265291Y75633669D02*
G01*
X50258293Y75585729D01*
X50231291Y75537813D01*
X50176952Y75479696D01*
X50172187Y75475222D01*
X50132910Y75440010D01*
X50066373Y75381700D01*
X49976185Y75303389D01*
X49865958Y75208175D01*
X49739302Y75099153D01*
X49599827Y74979421D01*
X49451144Y74852074D01*
X49296864Y74720210D01*
X49140597Y74586925D01*
X48985953Y74455315D01*
X48836543Y74328478D01*
X48695978Y74209510D01*
X48631724Y74161911D01*
X48545464Y74124182D01*
X48469074Y74125826D01*
X48401123Y74166635D01*
X48363192Y74216859D01*
X48350032Y74288734D01*
X48376225Y74366450D01*
X48441355Y74447114D01*
X48464138Y74468056D01*
X48519020Y74516644D01*
X48597783Y74585282D01*
X48696469Y74670601D01*
X48811123Y74769233D01*
X48937788Y74877810D01*
X49072506Y74992962D01*
X49211320Y75111321D01*
X49237131Y75133276D01*
X49399137Y75133276D01*
X49412671Y75109251D01*
X49431823Y75092494D01*
X49472787Y75077960D01*
X49482641Y75081504D01*
X49522385Y75106871D01*
X49584182Y75152498D01*
X49662114Y75213440D01*
X49750261Y75284756D01*
X49842704Y75361501D01*
X49933524Y75438734D01*
X50016801Y75511510D01*
X50086617Y75574886D01*
X50137052Y75623921D01*
X50162186Y75653670D01*
X50165073Y75658848D01*
X50177957Y75698586D01*
X50161951Y75731616D01*
X50158982Y75735177D01*
X50142218Y75753013D01*
X50124514Y75763026D01*
X50102038Y75762819D01*
X50070958Y75749991D01*
X50027443Y75722143D01*
X49967660Y75676876D01*
X49887777Y75611791D01*
X49783962Y75524488D01*
X49652384Y75412568D01*
X49621561Y75386225D01*
X49527116Y75303650D01*
X49461035Y75241350D01*
X49419935Y75195042D01*
X49400431Y75160445D01*
X49399137Y75133276D01*
X49237131Y75133276D01*
X49350275Y75229518D01*
X49485413Y75344185D01*
X49612777Y75451953D01*
X49728411Y75549454D01*
X49828358Y75633318D01*
X49908660Y75700177D01*
X49965362Y75746662D01*
X49994506Y75769405D01*
X50061289Y75798682D01*
X50135934Y75798097D01*
X50201308Y75767146D01*
X50247672Y75710710D01*
X50250445Y75698586D01*
X50265291Y75633669D01*
G37*
G36*
X50513323Y75256497D02*
G01*
X50502229Y75173145D01*
X50491810Y75159062D01*
X50453574Y75119697D01*
X50392936Y75062505D01*
X50315487Y74992715D01*
X50226819Y74915556D01*
X50216299Y74906552D01*
X50106433Y74812610D01*
X49982802Y74707028D01*
X49849531Y74593320D01*
X49710745Y74474996D01*
X49570572Y74355569D01*
X49433135Y74238551D01*
X49302562Y74127452D01*
X49182978Y74025785D01*
X49078508Y73937061D01*
X48993278Y73864793D01*
X48931415Y73812492D01*
X48897043Y73783670D01*
X48881972Y73772164D01*
X48823236Y73739600D01*
X48771758Y73726514D01*
X48760465Y73726896D01*
X48685724Y73749724D01*
X48627521Y73800516D01*
X48594172Y73869049D01*
X48593992Y73945098D01*
X48604968Y73963069D01*
X48646898Y74009303D01*
X48718053Y74078394D01*
X48816515Y74168554D01*
X48940365Y74277995D01*
X49087683Y74404931D01*
X49222815Y74520208D01*
X49366536Y74642892D01*
X49508559Y74764199D01*
X49510757Y74766078D01*
X49641723Y74766078D01*
X49643759Y74747849D01*
X49669377Y74710217D01*
X49714931Y74699231D01*
X49768419Y74719322D01*
X49789179Y74734543D01*
X49844526Y74778078D01*
X49917793Y74837903D01*
X50002724Y74908680D01*
X50093068Y74985073D01*
X50182572Y75061745D01*
X50264982Y75133358D01*
X50334044Y75194575D01*
X50383507Y75240058D01*
X50407117Y75264471D01*
X50418412Y75282791D01*
X50419570Y75311484D01*
X50390866Y75346929D01*
X50355504Y75373000D01*
X50318199Y75374435D01*
X50315569Y75372751D01*
X50285516Y75349631D01*
X50230250Y75304694D01*
X50155004Y75242275D01*
X50065011Y75166708D01*
X49965506Y75082327D01*
X49901154Y75027028D01*
X49788770Y74927255D01*
X49707574Y74850020D01*
X49658310Y74796052D01*
X49641723Y74766078D01*
X49510757Y74766078D01*
X49641398Y74877733D01*
X49757566Y74977097D01*
X49849579Y75055895D01*
X49881755Y75083482D01*
X49999428Y75184314D01*
X50090705Y75261952D01*
X50159848Y75319422D01*
X50211119Y75359750D01*
X50248777Y75385961D01*
X50277085Y75401081D01*
X50300304Y75408135D01*
X50322695Y75410148D01*
X50348519Y75410147D01*
X50369350Y75409576D01*
X50427427Y75395338D01*
X50471638Y75355380D01*
X50484668Y75336947D01*
X50493738Y75311484D01*
X50513323Y75256497D01*
G37*
G36*
X44481827Y77726653D02*
G01*
X44473025Y77583477D01*
X44456621Y77466216D01*
X44429683Y77355104D01*
X44349923Y77140029D01*
X44239866Y76946595D01*
X44102425Y76778682D01*
X43940514Y76640168D01*
X43757047Y76534932D01*
X43707634Y76514446D01*
X43575482Y76470714D01*
X43421853Y76431629D01*
X43260544Y76400916D01*
X43235305Y76397345D01*
X43095551Y76387745D01*
X42934153Y76389734D01*
X42763677Y76402120D01*
X42596691Y76423712D01*
X42445760Y76453318D01*
X42323450Y76489748D01*
X42230685Y76529714D01*
X42044657Y76641896D01*
X41880701Y76786495D01*
X41741962Y76959884D01*
X41631583Y77158439D01*
X41552708Y77378533D01*
X41543722Y77415480D01*
X41521521Y77554461D01*
X41508799Y77717051D01*
X41507084Y77808768D01*
X42395037Y77808768D01*
X42407307Y77640986D01*
X42433541Y77488114D01*
X42473356Y77362407D01*
X42486500Y77334533D01*
X42559058Y77228035D01*
X42653726Y77140920D01*
X42759107Y77084279D01*
X42816896Y77069925D01*
X42914786Y77058149D01*
X43023099Y77054430D01*
X43124860Y77059204D01*
X43203092Y77072906D01*
X43308472Y77119637D01*
X43416111Y77207812D01*
X43502103Y77328718D01*
X43563949Y77479536D01*
X43576852Y77531316D01*
X43596055Y77666390D01*
X43603224Y77820471D01*
X43598537Y77979369D01*
X43582170Y78128894D01*
X43554299Y78254859D01*
X43536901Y78305214D01*
X43463705Y78443516D01*
X43364512Y78550710D01*
X43242321Y78624789D01*
X43100135Y78663741D01*
X42940955Y78665557D01*
X42867468Y78653790D01*
X42723433Y78603287D01*
X42602110Y78521162D01*
X42507785Y78410785D01*
X42444745Y78275523D01*
X42413927Y78140043D01*
X42397116Y77979206D01*
X42395037Y77808768D01*
X41507084Y77808768D01*
X41505557Y77890433D01*
X41511794Y78061790D01*
X41527511Y78218306D01*
X41552708Y78347162D01*
X41588636Y78461983D01*
X41684491Y78672896D01*
X41810927Y78856890D01*
X41966426Y79012300D01*
X42149467Y79137460D01*
X42358534Y79230705D01*
X42458177Y79261655D01*
X42696927Y79310747D01*
X42944805Y79330361D01*
X43193598Y79321071D01*
X43435092Y79283451D01*
X43661073Y79218075D01*
X43863327Y79125517D01*
X44005288Y79026653D01*
X44146217Y78888084D01*
X44269112Y78723977D01*
X44368017Y78542372D01*
X44436972Y78351309D01*
X44446507Y78310673D01*
X44465366Y78187755D01*
X44477722Y78041184D01*
X44483301Y77883353D01*
X44482709Y77820471D01*
X44481827Y77726653D01*
G37*
G36*
X38064145Y77852042D02*
G01*
X38064145Y76427815D01*
X37622451Y76433425D01*
X37180757Y76439034D01*
X37175232Y77015835D01*
X37169707Y77592635D01*
X37092090Y77592179D01*
X37074277Y77591234D01*
X36999964Y77577218D01*
X36926683Y77551869D01*
X36911061Y77544468D01*
X36881248Y77527347D01*
X36852489Y77504510D01*
X36822195Y77472090D01*
X36787779Y77426224D01*
X36746652Y77363047D01*
X36696227Y77278695D01*
X36633915Y77169304D01*
X36557128Y77031007D01*
X36463277Y76859943D01*
X36227343Y76428642D01*
X35732323Y76428642D01*
X35726008Y76428643D01*
X35553994Y76429571D01*
X35417647Y76432198D01*
X35318436Y76436461D01*
X35257832Y76442298D01*
X35237304Y76449646D01*
X35237398Y76450744D01*
X35248805Y76480613D01*
X35276890Y76539873D01*
X35318301Y76622270D01*
X35369688Y76721552D01*
X35427700Y76831464D01*
X35488986Y76945753D01*
X35550196Y77058167D01*
X35607978Y77162451D01*
X35658981Y77252352D01*
X35699856Y77321618D01*
X35727251Y77363993D01*
X35826394Y77484355D01*
X35937927Y77585550D01*
X36047684Y77650514D01*
X36140962Y77689941D01*
X36037291Y77724607D01*
X35890139Y77785796D01*
X35737600Y77884942D01*
X35615813Y78011277D01*
X35523503Y78165895D01*
X35510382Y78196099D01*
X35493045Y78248998D01*
X35482677Y78309130D01*
X35477651Y78387924D01*
X35477303Y78416784D01*
X36359804Y78416784D01*
X36359804Y78416506D01*
X36364482Y78347520D01*
X36384265Y78298407D01*
X36427637Y78248063D01*
X36501419Y78192911D01*
X36605338Y78156606D01*
X36644644Y78150090D01*
X36731504Y78141316D01*
X36835794Y78135296D01*
X36942746Y78133061D01*
X37170364Y78133061D01*
X37170364Y78424059D01*
X37170364Y78715057D01*
X36914317Y78715057D01*
X36783253Y78712528D01*
X36638866Y78700087D01*
X36528825Y78675499D01*
X36449514Y78636820D01*
X36397318Y78582105D01*
X36368619Y78509408D01*
X36359804Y78416784D01*
X35477303Y78416784D01*
X35476338Y78496809D01*
X35477179Y78594134D01*
X35481213Y78672763D01*
X35490339Y78732516D01*
X35506452Y78785295D01*
X35531448Y78843001D01*
X35557090Y78892648D01*
X35655999Y79026252D01*
X35784611Y79131624D01*
X35941359Y79207678D01*
X36124673Y79253330D01*
X36164620Y79257660D01*
X36253575Y79263041D01*
X36378363Y79267608D01*
X36535650Y79271287D01*
X36722099Y79274006D01*
X36934378Y79275691D01*
X37169149Y79276268D01*
X38064145Y79276268D01*
X38064145Y78424059D01*
X38064145Y77852042D01*
G37*
G36*
X30414510Y77499993D02*
G01*
X30413643Y77282089D01*
X30412411Y77081751D01*
X30410851Y76902411D01*
X30409002Y76747497D01*
X30406900Y76620438D01*
X30404584Y76524663D01*
X30402090Y76463601D01*
X30399456Y76440680D01*
X30398888Y76440320D01*
X30371368Y76437110D01*
X30307413Y76434648D01*
X30211689Y76432967D01*
X30088861Y76432104D01*
X29943595Y76432092D01*
X29780555Y76432966D01*
X29604407Y76434761D01*
X29557928Y76435352D01*
X29345924Y76438456D01*
X29169543Y76442098D01*
X29023817Y76446773D01*
X28903779Y76452972D01*
X28804461Y76461189D01*
X28720895Y76471916D01*
X28648113Y76485645D01*
X28581147Y76502870D01*
X28515031Y76524084D01*
X28444795Y76549778D01*
X28443987Y76550086D01*
X28290641Y76629373D01*
X28147159Y76743785D01*
X28019078Y76887130D01*
X27911935Y77053216D01*
X27831268Y77235850D01*
X27807803Y77306480D01*
X27789876Y77371763D01*
X27777485Y77437732D01*
X27769166Y77514607D01*
X27763459Y77612609D01*
X27758902Y77741960D01*
X27756678Y77853132D01*
X27758946Y77972819D01*
X28652300Y77972819D01*
X28652648Y77761844D01*
X28657261Y77650398D01*
X28664143Y77554731D01*
X28674083Y77482764D01*
X28688443Y77424996D01*
X28708586Y77371928D01*
X28774434Y77259003D01*
X28860959Y77170638D01*
X28960053Y77115972D01*
X28995232Y77107429D01*
X29069316Y77096117D01*
X29163653Y77086132D01*
X29266118Y77078943D01*
X29328545Y77075981D01*
X29413806Y77073765D01*
X29468088Y77076051D01*
X29498115Y77083308D01*
X29510613Y77096005D01*
X29512991Y77122064D01*
X29514941Y77185041D01*
X29516380Y77279972D01*
X29517274Y77402007D01*
X29517588Y77546296D01*
X29517286Y77707989D01*
X29516333Y77882235D01*
X29510872Y78639329D01*
X29306931Y78636078D01*
X29248710Y78634670D01*
X29122784Y78626362D01*
X29024907Y78609697D01*
X28945590Y78582633D01*
X28875349Y78543126D01*
X28814759Y78493346D01*
X28747678Y78405095D01*
X28698871Y78291132D01*
X28667393Y78148144D01*
X28652300Y77972819D01*
X27758946Y77972819D01*
X27760432Y78051246D01*
X27776370Y78221611D01*
X27805905Y78372637D01*
X27850450Y78512736D01*
X27911416Y78650318D01*
X27958860Y78737595D01*
X28078007Y78904810D01*
X28218517Y79038132D01*
X28382811Y79140078D01*
X28435107Y79165160D01*
X28499297Y79193004D01*
X28563132Y79215759D01*
X28631269Y79233934D01*
X28708367Y79248041D01*
X28799085Y79258593D01*
X28908080Y79266100D01*
X29040010Y79271073D01*
X29199534Y79274025D01*
X29391310Y79275466D01*
X29619996Y79275908D01*
X30415045Y79276268D01*
X30415045Y77866312D01*
X30414975Y77732037D01*
X30414603Y77546296D01*
X30414510Y77499993D01*
G37*
G36*
X32399358Y79319942D02*
G01*
X32558481Y79304186D01*
X32691068Y79278586D01*
X32731648Y79267292D01*
X32955623Y79183085D01*
X33149997Y79069691D01*
X33314736Y78927143D01*
X33449809Y78755476D01*
X33555182Y78554721D01*
X33630823Y78324911D01*
X33644300Y78258783D01*
X33656609Y78155860D01*
X33663697Y78026344D01*
X33666131Y77862848D01*
X33666105Y77808221D01*
X33664570Y77687566D01*
X33660124Y77594260D01*
X33651780Y77517992D01*
X33638550Y77448450D01*
X33619448Y77375323D01*
X33576640Y77247638D01*
X33483180Y77048672D01*
X33365116Y76868755D01*
X33227416Y76715014D01*
X33075048Y76594571D01*
X32977655Y76541499D01*
X32837007Y76484229D01*
X32684714Y76438546D01*
X32537014Y76410023D01*
X32370401Y76394583D01*
X32166086Y76390267D01*
X31967153Y76400744D01*
X31784995Y76425341D01*
X31631003Y76463389D01*
X31572592Y76485067D01*
X31411296Y76570303D01*
X31258491Y76686270D01*
X31123502Y76825155D01*
X31015648Y76979144D01*
X30983915Y77039767D01*
X30947333Y77122143D01*
X30915989Y77205080D01*
X30893106Y77279086D01*
X30881905Y77334666D01*
X30885608Y77362327D01*
X30888595Y77364430D01*
X30924259Y77380078D01*
X30989098Y77402870D01*
X31075469Y77430614D01*
X31175728Y77461114D01*
X31282231Y77492177D01*
X31387336Y77521608D01*
X31483400Y77547214D01*
X31562778Y77566801D01*
X31617827Y77578174D01*
X31640905Y77579139D01*
X31649647Y77564385D01*
X31669458Y77517660D01*
X31691781Y77454422D01*
X31753893Y77307588D01*
X31836663Y77193397D01*
X31940968Y77113868D01*
X32068831Y77067469D01*
X32222277Y77052666D01*
X32333877Y77060146D01*
X32466022Y77094444D01*
X32573974Y77157725D01*
X32658536Y77251289D01*
X32720511Y77376435D01*
X32760698Y77534460D01*
X32779902Y77726666D01*
X32778922Y77954349D01*
X32778372Y77966500D01*
X32767562Y78116766D01*
X32749238Y78235146D01*
X32720836Y78330425D01*
X32679792Y78411389D01*
X32623543Y78486821D01*
X32569615Y78540979D01*
X32458252Y78614333D01*
X32334142Y78657722D01*
X32204078Y78672180D01*
X32074854Y78658741D01*
X31953263Y78618437D01*
X31846099Y78552302D01*
X31760154Y78461369D01*
X31702222Y78346673D01*
X31699667Y78339186D01*
X31680910Y78296153D01*
X31665765Y78278621D01*
X31660982Y78279109D01*
X31622873Y78286187D01*
X31555594Y78300308D01*
X31466900Y78319700D01*
X31364543Y78342591D01*
X31256275Y78367209D01*
X31149850Y78391783D01*
X31053019Y78414539D01*
X30973537Y78433707D01*
X30919156Y78447514D01*
X30897628Y78454188D01*
X30897864Y78461311D01*
X30910733Y78498641D01*
X30936875Y78559772D01*
X30972685Y78635977D01*
X30981318Y78653451D01*
X31091914Y78842458D01*
X31218547Y78995651D01*
X31365962Y79117002D01*
X31538904Y79210483D01*
X31742120Y79280068D01*
X31757955Y79284118D01*
X31892999Y79307942D01*
X32053596Y79321840D01*
X32226723Y79325834D01*
X32399358Y79319942D01*
G37*
G36*
X44507680Y75387609D02*
G01*
X44578117Y75328263D01*
X44666188Y75254003D01*
X44744081Y75188218D01*
X44818766Y75125001D01*
X44897210Y75058444D01*
X44986382Y74982638D01*
X45093250Y74891677D01*
X45224783Y74779652D01*
X45309992Y74707069D01*
X45409711Y74623166D01*
X45483990Y74564126D01*
X45536655Y74528884D01*
X45571532Y74516370D01*
X45592447Y74525518D01*
X45603226Y74555261D01*
X45607694Y74604530D01*
X45609677Y74672259D01*
X45611723Y74722652D01*
X45618230Y74816595D01*
X45626727Y74896301D01*
X45640495Y74995630D01*
X45941886Y74742983D01*
X46004036Y74690890D01*
X46185674Y74538719D01*
X46338620Y74410734D01*
X46465258Y74304966D01*
X46567970Y74219446D01*
X46649141Y74152203D01*
X46711154Y74101269D01*
X46756393Y74064674D01*
X46787240Y74040448D01*
X46806079Y74026621D01*
X46815293Y74021224D01*
X46821212Y74028834D01*
X46829264Y74069327D01*
X46835910Y74137112D01*
X46840120Y74223788D01*
X46846060Y74433033D01*
X47687877Y73703016D01*
X47756029Y73643917D01*
X47915910Y73505292D01*
X48067168Y73374169D01*
X48206549Y73253367D01*
X48330797Y73145706D01*
X48436658Y73054006D01*
X48520879Y72981086D01*
X48580205Y72929766D01*
X48611381Y72902866D01*
X48642070Y72875064D01*
X48670113Y72844581D01*
X48672520Y72832733D01*
X48666963Y72833538D01*
X48628347Y72844409D01*
X48564829Y72865324D01*
X48486904Y72892881D01*
X48477449Y72896322D01*
X48389356Y72928126D01*
X48277231Y72968265D01*
X48145936Y73015026D01*
X48000333Y73066698D01*
X47845283Y73121571D01*
X47685650Y73177932D01*
X47526294Y73234072D01*
X47372079Y73288278D01*
X47227865Y73338840D01*
X47098516Y73384045D01*
X46988893Y73422184D01*
X46903858Y73451545D01*
X46848273Y73470416D01*
X46827001Y73477087D01*
X46824766Y73474056D01*
X46819711Y73441316D01*
X46816198Y73380253D01*
X46814882Y73300409D01*
X46814605Y73270293D01*
X46811032Y73194858D01*
X46804132Y73143010D01*
X46794920Y73123732D01*
X46782860Y73127799D01*
X46738395Y73148352D01*
X46668345Y73183295D01*
X46579322Y73229305D01*
X46477940Y73283057D01*
X46309817Y73372911D01*
X46145452Y73460089D01*
X45994879Y73539281D01*
X45861893Y73608523D01*
X45750291Y73665850D01*
X45663869Y73709299D01*
X45606424Y73736906D01*
X45581752Y73746706D01*
X45579358Y73745071D01*
X45573057Y73715998D01*
X45570186Y73658042D01*
X45571359Y73580966D01*
X45571621Y73574255D01*
X45572289Y73489464D01*
X45567368Y73434232D01*
X45557353Y73414438D01*
X45548529Y73416464D01*
X45505337Y73428540D01*
X45431688Y73449962D01*
X45333436Y73478966D01*
X45216434Y73513787D01*
X45086534Y73552661D01*
X44949591Y73593824D01*
X44811457Y73635512D01*
X44677985Y73675959D01*
X44555028Y73713403D01*
X44448440Y73746077D01*
X44364073Y73772219D01*
X44307781Y73790063D01*
X44285417Y73797846D01*
X44285125Y73803389D01*
X44285426Y73843445D01*
X44286803Y73918539D01*
X44289151Y74024353D01*
X44292369Y74156567D01*
X44296352Y74310860D01*
X44300997Y74482912D01*
X44306202Y74668403D01*
X44331003Y75536442D01*
X44507680Y75387609D01*
G37*
G36*
X40057044Y79319884D02*
G01*
X40196172Y79308101D01*
X40308990Y79290107D01*
X40409157Y79263994D01*
X40597372Y79188264D01*
X40756600Y79084648D01*
X40885322Y78954257D01*
X40982019Y78798200D01*
X41014616Y78724386D01*
X41034625Y78658838D01*
X41043625Y78588048D01*
X41045385Y78493925D01*
X41042799Y78402805D01*
X41033286Y78331605D01*
X41012819Y78266200D01*
X40977357Y78188432D01*
X40923167Y78093728D01*
X40851394Y78002908D01*
X40762149Y77922166D01*
X40651438Y77849258D01*
X40515267Y77781942D01*
X40349643Y77717973D01*
X40150573Y77655108D01*
X39914063Y77591104D01*
X39841361Y77572167D01*
X39713478Y77535420D01*
X39617474Y77501338D01*
X39547130Y77467136D01*
X39496222Y77430031D01*
X39458531Y77387237D01*
X39433978Y77341386D01*
X39415039Y77251738D01*
X39423860Y77160321D01*
X39460343Y77083580D01*
X39484974Y77056972D01*
X39570778Y77000284D01*
X39679211Y76963121D01*
X39799199Y76947354D01*
X39919669Y76954852D01*
X40029544Y76987486D01*
X40075260Y77012320D01*
X40171093Y77093667D01*
X40246151Y77199201D01*
X40291196Y77317281D01*
X40316743Y77431438D01*
X40484348Y77418750D01*
X40544613Y77414403D01*
X40655946Y77406962D01*
X40779543Y77399210D01*
X40898048Y77392259D01*
X40965105Y77387985D01*
X41067156Y77378176D01*
X41129714Y77366389D01*
X41154138Y77352414D01*
X41156242Y77321916D01*
X41146545Y77258273D01*
X41126179Y77175841D01*
X41098210Y77085361D01*
X41065701Y76997574D01*
X41031716Y76923220D01*
X41009490Y76882977D01*
X40907464Y76738963D01*
X40782860Y76622588D01*
X40631977Y76531489D01*
X40451115Y76463304D01*
X40236574Y76415672D01*
X40143808Y76404194D01*
X40002208Y76395670D01*
X39846203Y76393882D01*
X39686932Y76398462D01*
X39535530Y76409038D01*
X39403136Y76425243D01*
X39300888Y76446707D01*
X39150793Y76498427D01*
X38968506Y76592127D01*
X38817827Y76711407D01*
X38697389Y76857197D01*
X38671008Y76899168D01*
X38590156Y77073473D01*
X38548943Y77255447D01*
X38547939Y77441099D01*
X38587713Y77626435D01*
X38615884Y77698854D01*
X38687451Y77820706D01*
X38786789Y77929805D01*
X38916154Y78027481D01*
X39077798Y78115068D01*
X39273977Y78193900D01*
X39506945Y78265307D01*
X39778957Y78330624D01*
X39919598Y78363412D01*
X40040547Y78399247D01*
X40127635Y78436488D01*
X40184872Y78477366D01*
X40216272Y78524110D01*
X40225847Y78578949D01*
X40223658Y78611523D01*
X40193404Y78691484D01*
X40128905Y78750010D01*
X40031837Y78785962D01*
X39903875Y78798200D01*
X39869258Y78797410D01*
X39734155Y78775116D01*
X39626832Y78721991D01*
X39546960Y78637814D01*
X39494211Y78522364D01*
X39469302Y78439227D01*
X39187632Y78452763D01*
X39183058Y78452983D01*
X39063790Y78459205D01*
X38945960Y78466135D01*
X38842933Y78472945D01*
X38768073Y78478805D01*
X38630185Y78491311D01*
X38659071Y78615135D01*
X38696392Y78743331D01*
X38770576Y78901290D01*
X38871807Y79032062D01*
X39002843Y79138272D01*
X39166440Y79222543D01*
X39365354Y79287500D01*
X39463549Y79305541D01*
X39594858Y79318286D01*
X39745080Y79324945D01*
X39902911Y79325489D01*
X40057044Y79319884D01*
G37*
G36*
X50743359Y74872639D02*
G01*
X50743252Y74864678D01*
X50737319Y74825455D01*
X50717842Y74787599D01*
X50678619Y74741869D01*
X50613449Y74679024D01*
X50590270Y74657723D01*
X50532733Y74606912D01*
X50489296Y74571513D01*
X50467950Y74558164D01*
X50464192Y74557842D01*
X50452917Y74543123D01*
X50463748Y74504414D01*
X50497880Y74438818D01*
X50556507Y74343437D01*
X50607345Y74263274D01*
X50669766Y74157904D01*
X50707581Y74076421D01*
X50720209Y74012472D01*
X50707066Y73959704D01*
X50667573Y73911766D01*
X50601148Y73862306D01*
X50507208Y73804972D01*
X50483035Y73789936D01*
X50428402Y73744245D01*
X50410755Y73704930D01*
X50431575Y73674550D01*
X50453314Y73652838D01*
X50451481Y73620600D01*
X50417719Y73579042D01*
X50349959Y73525752D01*
X50246134Y73458319D01*
X50168628Y73411991D01*
X50094268Y73370273D01*
X50038467Y73341997D01*
X50009490Y73331588D01*
X49978860Y73346170D01*
X49945025Y73383552D01*
X49944117Y73384935D01*
X49912512Y73424773D01*
X49883916Y73430650D01*
X49843378Y73405846D01*
X49836072Y73399879D01*
X49825374Y73384245D01*
X49826521Y73361251D01*
X49842062Y73323926D01*
X49874546Y73265297D01*
X49926520Y73178392D01*
X49970073Y73108310D01*
X50014356Y73041308D01*
X50047663Y72995714D01*
X50064977Y72978759D01*
X50070323Y72980340D01*
X50105714Y72997958D01*
X50167004Y73032023D01*
X50247386Y73078694D01*
X50340055Y73134124D01*
X50378501Y73157365D01*
X50465887Y73209657D01*
X50537478Y73251749D01*
X50586717Y73279811D01*
X50607045Y73290016D01*
X50614910Y73286206D01*
X50638916Y73256003D01*
X50666858Y73206847D01*
X50692174Y73152247D01*
X50708304Y73105711D01*
X50708687Y73080745D01*
X50707460Y73079655D01*
X50679858Y73060501D01*
X50623262Y73023936D01*
X50543416Y72973588D01*
X50446067Y72913085D01*
X50336962Y72846054D01*
X50318218Y72834624D01*
X50211582Y72770456D01*
X50118000Y72715560D01*
X50043037Y72673100D01*
X49992259Y72646240D01*
X49971233Y72638144D01*
X49960101Y72651932D01*
X49929681Y72696020D01*
X49884279Y72764645D01*
X49827750Y72851969D01*
X49763945Y72952156D01*
X49713484Y73030632D01*
X49648004Y73128567D01*
X49589423Y73211953D01*
X49542672Y73273820D01*
X49512685Y73307197D01*
X49489051Y73330499D01*
X49441400Y73390120D01*
X49397796Y73457872D01*
X49372246Y73500457D01*
X49341562Y73543519D01*
X49322431Y73560208D01*
X49303247Y73551015D01*
X49260551Y73521147D01*
X49206023Y73477754D01*
X49127077Y73416822D01*
X49052749Y73375363D01*
X48989598Y73362344D01*
X48930396Y73375071D01*
X48900365Y73391246D01*
X48849049Y73448500D01*
X48828774Y73524396D01*
X48843185Y73609149D01*
X48843922Y73610492D01*
X48866422Y73634318D01*
X48916670Y73681195D01*
X48991004Y73748005D01*
X49085765Y73831628D01*
X49197291Y73928946D01*
X49321920Y74036840D01*
X49455993Y74152191D01*
X49595847Y74271880D01*
X49707336Y74366826D01*
X49876196Y74366826D01*
X49881847Y74348318D01*
X49895413Y74333921D01*
X49932714Y74308514D01*
X49944357Y74305015D01*
X49966464Y74308822D01*
X49998981Y74325502D01*
X50046055Y74357987D01*
X50111834Y74409209D01*
X50200463Y74482101D01*
X50316090Y74579594D01*
X50386866Y74639944D01*
X50491233Y74730917D01*
X50567537Y74801518D01*
X50618614Y74855352D01*
X50647298Y74896020D01*
X50656426Y74927124D01*
X50648831Y74952267D01*
X50627351Y74975051D01*
X50623240Y74978386D01*
X50608058Y74987658D01*
X50590383Y74989476D01*
X50566055Y74981047D01*
X50530915Y74959579D01*
X50480804Y74922278D01*
X50411564Y74866353D01*
X50319034Y74789010D01*
X50199057Y74687457D01*
X50102208Y74604794D01*
X50011694Y74525611D01*
X49947259Y74465883D01*
X49905479Y74421949D01*
X49882932Y74390149D01*
X49876196Y74366826D01*
X49707336Y74366826D01*
X49737823Y74392789D01*
X49878259Y74511798D01*
X50013493Y74625789D01*
X50139866Y74731643D01*
X50253716Y74826241D01*
X50351382Y74906464D01*
X50429203Y74969193D01*
X50483519Y75011310D01*
X50510667Y75029696D01*
X50539061Y75039313D01*
X50613549Y75039059D01*
X50679047Y75006727D01*
X50725627Y74949020D01*
X50730710Y74927124D01*
X50743359Y74872639D01*
G37*
G36*
X48064250Y78866770D02*
G01*
X48133664Y78752100D01*
X48152064Y78689915D01*
X48152991Y78682514D01*
X48164217Y78592869D01*
X48162541Y78495244D01*
X48146296Y78416654D01*
X48142729Y78406998D01*
X48137609Y78377677D01*
X48156101Y78362303D01*
X48207033Y78351391D01*
X48247252Y78342009D01*
X48357151Y78292395D01*
X48456678Y78215237D01*
X48532239Y78120199D01*
X48563257Y78060189D01*
X48569001Y78040564D01*
X48584895Y77986266D01*
X48591221Y77895141D01*
X48590057Y77838350D01*
X48584459Y77769325D01*
X48575682Y77724504D01*
X48574036Y77719863D01*
X48570475Y77692523D01*
X48590371Y77677065D01*
X48642691Y77665608D01*
X48673889Y77658590D01*
X48778401Y77613189D01*
X48877070Y77540569D01*
X48956006Y77450276D01*
X48992266Y77382438D01*
X49011827Y77323413D01*
X49021398Y77294531D01*
X49033682Y77210610D01*
X49025672Y77145745D01*
X49020839Y77128301D01*
X49025765Y77118968D01*
X49045555Y77122395D01*
X49084243Y77140503D01*
X49145865Y77175214D01*
X49234457Y77228450D01*
X49354053Y77302133D01*
X49380264Y77318326D01*
X49483898Y77380758D01*
X49561442Y77423717D01*
X49619721Y77450420D01*
X49665559Y77464082D01*
X49705780Y77467921D01*
X49741469Y77467393D01*
X49779583Y77463101D01*
X49813787Y77451072D01*
X49847729Y77427337D01*
X49885053Y77387930D01*
X49929407Y77328883D01*
X49984435Y77246228D01*
X50053786Y77135997D01*
X50141104Y76994223D01*
X50146873Y76984828D01*
X50201569Y76895972D01*
X50256853Y76806481D01*
X50301580Y76734403D01*
X50340595Y76662574D01*
X50341000Y76661829D01*
X50364816Y76579945D01*
X50356312Y76506903D01*
X50313493Y76437938D01*
X50234366Y76368287D01*
X50116937Y76293184D01*
X50071145Y76266632D01*
X50003446Y76227148D01*
X49955232Y76198728D01*
X49934768Y76186222D01*
X49934171Y76184138D01*
X49948102Y76161624D01*
X49981536Y76124731D01*
X49993879Y76111025D01*
X50028824Y76043602D01*
X50029064Y76043139D01*
X50035095Y75970516D01*
X50010006Y75908109D01*
X50002733Y75900448D01*
X49973729Y75873501D01*
X49922750Y75828111D01*
X49848713Y75763345D01*
X49750532Y75678268D01*
X49627122Y75571946D01*
X49477399Y75443446D01*
X49300276Y75291833D01*
X49094670Y75116174D01*
X48859495Y74915535D01*
X48593666Y74688982D01*
X48545306Y74648017D01*
X48465126Y74582163D01*
X48406163Y74538171D01*
X48361987Y74511928D01*
X48326168Y74499322D01*
X48292275Y74496242D01*
X48232798Y74503184D01*
X48167874Y74538367D01*
X48125706Y74606399D01*
X48124300Y74610101D01*
X48115519Y74635410D01*
X48111266Y74659127D01*
X48114004Y74683848D01*
X48126198Y74712170D01*
X48150312Y74746688D01*
X48188811Y74790001D01*
X48244158Y74844703D01*
X48318820Y74913393D01*
X48415259Y74998665D01*
X48535940Y75103118D01*
X48683329Y75229347D01*
X48859888Y75379949D01*
X48956003Y75461977D01*
X49018986Y75515854D01*
X49163654Y75515854D01*
X49166219Y75497861D01*
X49188597Y75455876D01*
X49202967Y75444425D01*
X49239524Y75430933D01*
X49242124Y75431454D01*
X49272112Y75449368D01*
X49325862Y75489267D01*
X49397765Y75546339D01*
X49482214Y75615771D01*
X49573600Y75692750D01*
X49666313Y75772463D01*
X49754747Y75850098D01*
X49833292Y75920842D01*
X49896339Y75979883D01*
X49938280Y76022407D01*
X49953507Y76043602D01*
X49953414Y76046856D01*
X49935034Y76090216D01*
X49896108Y76119210D01*
X49853050Y76121164D01*
X49830797Y76108277D01*
X49780065Y76071170D01*
X49710765Y76015958D01*
X49628527Y75947586D01*
X49538982Y75870999D01*
X49447763Y75791141D01*
X49360502Y75712957D01*
X49282828Y75641392D01*
X49220375Y75581390D01*
X49178773Y75537896D01*
X49163654Y75515854D01*
X49018986Y75515854D01*
X49065364Y75555527D01*
X49163299Y75639538D01*
X49244749Y75709660D01*
X49304655Y75761543D01*
X49337957Y75790840D01*
X49402688Y75849357D01*
X49333728Y75811626D01*
X49311511Y75796552D01*
X49258129Y75755601D01*
X49180713Y75693570D01*
X49083445Y75613890D01*
X48970502Y75519989D01*
X48846063Y75415297D01*
X48714309Y75303246D01*
X48607869Y75212864D01*
X48483582Y75108966D01*
X48370696Y75016373D01*
X48273207Y74938277D01*
X48195111Y74877869D01*
X48140403Y74838343D01*
X48113080Y74822891D01*
X48048567Y74827568D01*
X47979637Y74857756D01*
X47926600Y74904841D01*
X47916973Y74915495D01*
X47898172Y74921632D01*
X47867592Y74913174D01*
X47817491Y74887514D01*
X47740125Y74842042D01*
X47644169Y74789018D01*
X47547642Y74751102D01*
X47468961Y74742677D01*
X47402264Y74763308D01*
X47341689Y74812561D01*
X47309250Y74852560D01*
X47260291Y74921143D01*
X47200782Y75009667D01*
X47134945Y75111329D01*
X47066998Y75219323D01*
X47001162Y75326847D01*
X46941655Y75427096D01*
X46892698Y75513267D01*
X46858510Y75578556D01*
X46843311Y75616160D01*
X46841158Y75633594D01*
X46853004Y75707752D01*
X46890461Y75780240D01*
X46945224Y75833361D01*
X46952916Y75838112D01*
X46996941Y75865221D01*
X47065986Y75907677D01*
X47152220Y75960665D01*
X47247814Y76019372D01*
X47504069Y76176705D01*
X47424492Y76217721D01*
X47322735Y76283591D01*
X47236596Y76378079D01*
X47183380Y76494418D01*
X47162070Y76634964D01*
X47171647Y76802070D01*
X47172283Y76831873D01*
X47154484Y76853289D01*
X47105880Y76865908D01*
X47068305Y76874045D01*
X46946062Y76927223D01*
X46846606Y77013295D01*
X47856581Y77013295D01*
X47865583Y76936443D01*
X47914919Y76863540D01*
X47957137Y76827214D01*
X48002333Y76805109D01*
X48054038Y76800480D01*
X48117774Y76814581D01*
X48199066Y76848663D01*
X48303438Y76903979D01*
X48436412Y76981781D01*
X48441806Y76985020D01*
X49275514Y76985020D01*
X49276085Y76983067D01*
X49292363Y76948811D01*
X49325908Y76888386D01*
X49372178Y76809734D01*
X49426629Y76720800D01*
X49428271Y76718171D01*
X49486825Y76628323D01*
X49537942Y76557141D01*
X49577194Y76510417D01*
X49600152Y76493940D01*
X49613949Y76496406D01*
X49662104Y76508790D01*
X49733923Y76529117D01*
X49820316Y76554613D01*
X49912195Y76582506D01*
X50000471Y76610022D01*
X50076056Y76634387D01*
X50129861Y76652829D01*
X50152797Y76662574D01*
X50146099Y76678427D01*
X50121170Y76723081D01*
X50081981Y76789587D01*
X50032783Y76871066D01*
X49977831Y76960636D01*
X49921376Y77051416D01*
X49867672Y77136526D01*
X49820973Y77209084D01*
X49785530Y77262209D01*
X49765597Y77289022D01*
X49764264Y77289873D01*
X49736107Y77284062D01*
X49679843Y77259234D01*
X49601568Y77218335D01*
X49507379Y77164308D01*
X49447497Y77128214D01*
X49362765Y77074331D01*
X49308608Y77034631D01*
X49280899Y77005924D01*
X49275514Y76985020D01*
X48441806Y76985020D01*
X48481518Y77008865D01*
X48589619Y77074339D01*
X48668899Y77124125D01*
X48724514Y77162312D01*
X48761617Y77192991D01*
X48785366Y77220250D01*
X48800916Y77248181D01*
X48813421Y77280872D01*
X48822368Y77323413D01*
X48810899Y77400276D01*
X48768789Y77466437D01*
X48703063Y77512802D01*
X48620745Y77530278D01*
X48610561Y77529033D01*
X48559520Y77511188D01*
X48484093Y77475600D01*
X48391691Y77426671D01*
X48289724Y77368805D01*
X48185604Y77306406D01*
X48086741Y77243877D01*
X48000545Y77185620D01*
X47934428Y77136039D01*
X47895799Y77099537D01*
X47888291Y77089451D01*
X47856581Y77013295D01*
X46846606Y77013295D01*
X46840953Y77018187D01*
X46811772Y77054433D01*
X46761000Y77147374D01*
X46737008Y77255018D01*
X46736795Y77388015D01*
X46739580Y77428207D01*
X46741735Y77487257D01*
X46736507Y77519405D01*
X46721074Y77534521D01*
X46692610Y77542474D01*
X46612670Y77565938D01*
X46576838Y77585221D01*
X47269910Y77585221D01*
X47277851Y77509079D01*
X47317710Y77441644D01*
X47387491Y77393412D01*
X47398374Y77388904D01*
X47442753Y77371455D01*
X47463764Y77364807D01*
X47464178Y77364868D01*
X47502007Y77378937D01*
X47567940Y77411836D01*
X47655537Y77459658D01*
X47758357Y77518495D01*
X47869958Y77584440D01*
X47983900Y77653583D01*
X48093740Y77722019D01*
X48193037Y77785838D01*
X48275352Y77841134D01*
X48334241Y77883998D01*
X48363265Y77910522D01*
X48385823Y77960560D01*
X48392808Y78040564D01*
X48372128Y78115401D01*
X48344429Y78147184D01*
X48285026Y78183183D01*
X48217067Y78204743D01*
X48159223Y78204086D01*
X48149409Y78200255D01*
X48101957Y78176302D01*
X48028799Y78135591D01*
X47936695Y78082230D01*
X47832404Y78020328D01*
X47722688Y77953994D01*
X47614306Y77887337D01*
X47514018Y77824465D01*
X47428585Y77769489D01*
X47364768Y77726517D01*
X47329325Y77699657D01*
X47295878Y77659573D01*
X47269910Y77585221D01*
X46576838Y77585221D01*
X46492691Y77630505D01*
X46398099Y77720414D01*
X46332077Y77829655D01*
X46297810Y77952219D01*
X46298479Y78082096D01*
X46327851Y78181426D01*
X46649801Y78181426D01*
X46660477Y78098343D01*
X46706711Y78026884D01*
X46785752Y77974973D01*
X46797911Y77969931D01*
X46847208Y77952271D01*
X46881212Y77949884D01*
X46918810Y77960752D01*
X46937051Y77969039D01*
X46992073Y77998758D01*
X47071718Y78044770D01*
X47169950Y78103318D01*
X47280737Y78170645D01*
X47398044Y78242996D01*
X47515838Y78316612D01*
X47628085Y78387739D01*
X47728752Y78452619D01*
X47811804Y78507495D01*
X47871207Y78548612D01*
X47900929Y78572212D01*
X47926667Y78604046D01*
X47957607Y78682514D01*
X47947848Y78763926D01*
X47897438Y78844639D01*
X47857997Y78883510D01*
X47811519Y78906537D01*
X47746742Y78911378D01*
X47731686Y78910758D01*
X47694800Y78904892D01*
X47651759Y78890550D01*
X47596828Y78864887D01*
X47524272Y78825060D01*
X47428355Y78768226D01*
X47303343Y78691542D01*
X47303293Y78691511D01*
X47185897Y78618941D01*
X47072181Y78548806D01*
X46970058Y78485972D01*
X46887440Y78435310D01*
X46832240Y78401686D01*
X46774831Y78363077D01*
X46716675Y78315156D01*
X46681544Y78275353D01*
X46677430Y78268208D01*
X46649801Y78181426D01*
X46327851Y78181426D01*
X46337269Y78213276D01*
X46350101Y78242494D01*
X46370385Y78293910D01*
X46378384Y78322591D01*
X46372753Y78337002D01*
X46348547Y78381126D01*
X46309639Y78445846D01*
X46260831Y78522980D01*
X46248827Y78541582D01*
X46170295Y78667238D01*
X46113216Y78768953D01*
X46074403Y78854891D01*
X46050668Y78933217D01*
X46038824Y79012095D01*
X46035684Y79099688D01*
X46036891Y79167169D01*
X46044440Y79245462D01*
X46047924Y79258559D01*
X46489888Y79258559D01*
X46500859Y79203271D01*
X46526579Y79136694D01*
X46569529Y79053283D01*
X46632186Y78947496D01*
X46717029Y78813789D01*
X46754530Y78757911D01*
X46802074Y78693206D01*
X46839574Y78649301D01*
X46861182Y78633511D01*
X46861609Y78633551D01*
X46889865Y78645296D01*
X46945202Y78674699D01*
X47019810Y78717430D01*
X47105880Y78769161D01*
X47107206Y78769976D01*
X47193958Y78823233D01*
X47269524Y78869574D01*
X47325829Y78904050D01*
X47354794Y78921708D01*
X47363756Y78928828D01*
X47370521Y78945825D01*
X47365413Y78973537D01*
X47346164Y79016722D01*
X47310510Y79080134D01*
X47256185Y79168528D01*
X47180922Y79286661D01*
X47128311Y79364782D01*
X47045993Y79467931D01*
X46968643Y79537096D01*
X46891785Y79575921D01*
X46810945Y79588052D01*
X46790214Y79587291D01*
X46686815Y79560684D01*
X46596827Y79501600D01*
X46529085Y79417580D01*
X46492422Y79316163D01*
X46491190Y79308101D01*
X46489888Y79258559D01*
X46047924Y79258559D01*
X46062044Y79311632D01*
X46093270Y79383235D01*
X46097158Y79391023D01*
X46180457Y79515962D01*
X46292978Y79628368D01*
X46423085Y79716486D01*
X46443639Y79726997D01*
X46492106Y79746369D01*
X46546677Y79757842D01*
X46619156Y79763326D01*
X46721346Y79764730D01*
X46776530Y79764436D01*
X46862215Y79761298D01*
X46924964Y79753026D01*
X46977177Y79737542D01*
X47031253Y79712766D01*
X47087623Y79680760D01*
X47174424Y79615336D01*
X47258501Y79528870D01*
X47345419Y79415326D01*
X47440746Y79268667D01*
X47578149Y79044742D01*
X47700566Y79039352D01*
X47702607Y79039258D01*
X47842994Y79014148D01*
X47965450Y78955386D01*
X47976110Y78945825D01*
X48064250Y78866770D01*
G37*
%TD*%
%LPC*%
D12*
%TO.C,H31*%
X71120000Y29210000D03*
%TD*%
%TO.C,H6*%
X35877500Y22542500D03*
%TD*%
D13*
%TO.C,H1*%
X18097500Y16827500D03*
%TD*%
D14*
%TO.C,H26*%
X77152500Y53340000D03*
%TD*%
D15*
%TO.C,U2*%
X92080000Y9500000D03*
X92080000Y18140000D03*
D16*
X96260000Y18140000D03*
X96260000Y9500000D03*
%TD*%
D12*
%TO.C,H19*%
X61277500Y29210000D03*
%TD*%
%TO.C,H29*%
X71120000Y35242500D03*
%TD*%
%TO.C,H21*%
X19050000Y22542500D03*
%TD*%
%TO.C,H14*%
X74930000Y22225000D03*
%TD*%
%TO.C,H20*%
X15240000Y25400000D03*
%TD*%
D14*
%TO.C,H25*%
X77152500Y56832500D03*
%TD*%
D12*
%TO.C,H24*%
X71120000Y44132500D03*
%TD*%
D13*
%TO.C,H12*%
X65722500Y7230000D03*
%TD*%
D17*
%TO.C,C12*%
X46990000Y43497500D03*
X10160000Y43497500D03*
%TD*%
D12*
%TO.C,H22*%
X19050000Y28257500D03*
%TD*%
%TO.C,H27*%
X75882500Y48577500D03*
%TD*%
%TO.C,H17*%
X61277500Y21590000D03*
%TD*%
%TO.C,H13*%
X77152500Y29210000D03*
%TD*%
%TO.C,H10*%
X46990000Y40322500D03*
%TD*%
%TO.C,H30*%
X60960000Y51117500D03*
%TD*%
%TO.C,H9*%
X10160000Y40322500D03*
%TD*%
%TO.C,H23*%
X52387500Y46355000D03*
%TD*%
%TO.C,H7*%
X35877500Y28257500D03*
%TD*%
%TO.C,H4*%
X25717500Y28257500D03*
%TD*%
%TO.C,H18*%
X52387500Y21590000D03*
%TD*%
%TO.C,H5*%
X32067500Y25400000D03*
%TD*%
%TO.C,H28*%
X75882500Y39687500D03*
%TD*%
%TO.C,H3*%
X25717500Y22542500D03*
%TD*%
D13*
%TO.C,H2*%
X15875000Y16827500D03*
%TD*%
D18*
%TO.C,J1*%
X4318000Y19050000D03*
X4318000Y16510000D03*
X4318000Y13970000D03*
X4318000Y11430000D03*
X4318000Y8890000D03*
%TD*%
D12*
%TO.C,H32*%
X68580000Y22225000D03*
%TD*%
%TO.C,H16*%
X52387500Y29210000D03*
%TD*%
%TO.C,H15*%
X56832500Y25400000D03*
%TD*%
%LPD*%
M02*
