%TF.GenerationSoftware,KiCad,Pcbnew,10.0.5*%
%TF.CreationDate,2026-08-15T08:53:45+09:00*%
%TF.ProjectId,osr-cdi15x,6f73722d-6364-4693-9135-782e6b696361,rev?*%
%TF.SameCoordinates,Original*%
%TF.FileFunction,Paste,Top*%
%TF.FilePolarity,Positive*%
%FSLAX46Y46*%
G04 Gerber Fmt 4.6, Leading zero omitted, Abs format (unit mm)*
G04 Created by KiCad (PCBNEW 10.0.5) date 2026-08-15 08:53:45*
%MOMM*%
%LPD*%
G01*
G04 APERTURE LIST*
G04 Aperture macros list*
%AMRoundRect*
0 Rectangle with rounded corners*
0 $1 Rounding radius*
0 $2 $3 $4 $5 $6 $7 $8 $9 X,Y pos of 4 corners*
0 Add a 4 corners polygon primitive as box body*
4,1,4,$2,$3,$4,$5,$6,$7,$8,$9,$2,$3,0*
0 Add four circle primitives for the rounded corners*
1,1,$1+$1,$2,$3*
1,1,$1+$1,$4,$5*
1,1,$1+$1,$6,$7*
1,1,$1+$1,$8,$9*
0 Add four rect primitives between the rounded corners*
20,1,$1+$1,$2,$3,$4,$5,0*
20,1,$1+$1,$4,$5,$6,$7,0*
20,1,$1+$1,$6,$7,$8,$9,0*
20,1,$1+$1,$8,$9,$2,$3,0*%
G04 Aperture macros list end*
%ADD10C,0.000000*%
%ADD11R,2.500000X1.800000*%
%ADD12R,0.700000X1.250000*%
%ADD13R,3.800000X1.200000*%
%ADD14O,2.038000X0.574000*%
%ADD15R,2.400000X3.200000*%
%ADD16RoundRect,0.200000X0.275000X-0.200000X0.275000X0.200000X-0.275000X0.200000X-0.275000X-0.200000X0*%
%ADD17R,2.046400X1.620000*%
%ADD18R,2.000000X2.000000*%
%ADD19R,1.150000X0.950000*%
%ADD20R,1.300000X0.600000*%
%ADD21R,1.300000X0.300000*%
%ADD22RoundRect,0.225000X0.225000X0.250000X-0.225000X0.250000X-0.225000X-0.250000X0.225000X-0.250000X0*%
%ADD23RoundRect,0.200000X-0.200000X-0.275000X0.200000X-0.275000X0.200000X0.275000X-0.200000X0.275000X0*%
%ADD24RoundRect,0.250000X-0.312500X-0.625000X0.312500X-0.625000X0.312500X0.625000X-0.312500X0.625000X0*%
%ADD25RoundRect,0.225000X-0.250000X0.225000X-0.250000X-0.225000X0.250000X-0.225000X0.250000X0.225000X0*%
%ADD26R,0.800000X0.800000*%
%ADD27R,1.620000X2.046400*%
%ADD28RoundRect,0.225000X-0.225000X-0.250000X0.225000X-0.250000X0.225000X0.250000X-0.225000X0.250000X0*%
%ADD29R,1.600000X3.000000*%
%ADD30R,5.800000X6.200000*%
%ADD31RoundRect,0.225000X0.250000X-0.225000X0.250000X0.225000X-0.250000X0.225000X-0.250000X-0.225000X0*%
%ADD32R,0.950000X1.150000*%
%ADD33R,2.364000X1.064000*%
%ADD34R,6.004000X5.512000*%
G04 APERTURE END LIST*
D10*
%TO.C,U2*%
G36*
X92079500Y16720000D02*
G01*
X90929500Y16720000D01*
X90929500Y17320000D01*
X92079500Y17320000D01*
X92079500Y16720000D01*
G37*
G36*
X92079500Y15920000D02*
G01*
X90929500Y15920000D01*
X90929500Y16520000D01*
X92079500Y16520000D01*
X92079500Y15920000D01*
G37*
G36*
X92079500Y15420000D02*
G01*
X90929500Y15420000D01*
X90929500Y15720000D01*
X92079500Y15720000D01*
X92079500Y15420000D01*
G37*
G36*
X92079500Y14920000D02*
G01*
X90929500Y14920000D01*
X90929500Y15220000D01*
X92079500Y15220000D01*
X92079500Y14920000D01*
G37*
G36*
X92079500Y14420000D02*
G01*
X90929500Y14420000D01*
X90929500Y14720000D01*
X92079500Y14720000D01*
X92079500Y14420000D01*
G37*
G36*
X92079500Y13920000D02*
G01*
X90929500Y13920000D01*
X90929500Y14220000D01*
X92079500Y14220000D01*
X92079500Y13920000D01*
G37*
G36*
X92079500Y13420000D02*
G01*
X90929500Y13420000D01*
X90929500Y13720000D01*
X92079500Y13720000D01*
X92079500Y13420000D01*
G37*
G36*
X92079500Y12920000D02*
G01*
X90929500Y12920000D01*
X90929500Y13220000D01*
X92079500Y13220000D01*
X92079500Y12920000D01*
G37*
G36*
X92079500Y12420000D02*
G01*
X90929500Y12420000D01*
X90929500Y12720000D01*
X92079500Y12720000D01*
X92079500Y12420000D01*
G37*
G36*
X92079500Y11920000D02*
G01*
X90929500Y11920000D01*
X90929500Y12220000D01*
X92079500Y12220000D01*
X92079500Y11920000D01*
G37*
G36*
X92079500Y11120000D02*
G01*
X90929500Y11120000D01*
X90929500Y11720000D01*
X92079500Y11720000D01*
X92079500Y11120000D01*
G37*
G36*
X92079500Y10320000D02*
G01*
X90929500Y10320000D01*
X90929500Y10920000D01*
X92079500Y10920000D01*
X92079500Y10320000D01*
G37*
G36*
X92654500Y18639500D02*
G01*
X92679500Y18637500D01*
X92704500Y18634500D01*
X92729000Y18630000D01*
X92753000Y18624500D01*
X92777000Y18618000D01*
X92801000Y18610000D01*
X92824000Y18601000D01*
X92846500Y18590500D01*
X92869000Y18579000D01*
X92890500Y18566500D01*
X92911500Y18553000D01*
X92931500Y18538500D01*
X92951000Y18523000D01*
X92970000Y18506500D01*
X92987500Y18489000D01*
X93004500Y18471000D01*
X93020500Y18452000D01*
X93035500Y18432000D01*
X93049500Y18411500D01*
X93063000Y18390000D01*
X93074500Y18368000D01*
X93085500Y18345500D01*
X93095000Y18322500D01*
X93103500Y18299500D01*
X93111000Y18275500D01*
X93117000Y18251500D01*
X93122000Y18227000D01*
X93126000Y18202000D01*
X93128500Y18177500D01*
X93129500Y18152500D01*
X93129500Y18127500D01*
X93128500Y18102500D01*
X93126000Y18078000D01*
X93122000Y18053000D01*
X93117000Y18029000D01*
X93111000Y18004500D01*
X93103500Y17981000D01*
X93095000Y17957500D01*
X93085500Y17934500D01*
X93074500Y17912000D01*
X93063000Y17890000D01*
X93049500Y17869000D01*
X93035500Y17848000D01*
X93020500Y17828500D01*
X93004500Y17809000D01*
X92987500Y17791000D01*
X92970000Y17773500D01*
X92951000Y17757000D01*
X92931500Y17741500D01*
X92911500Y17727000D01*
X92890500Y17713500D01*
X92869000Y17701000D01*
X92846500Y17689500D01*
X92824000Y17679500D01*
X92801000Y17670000D01*
X92777000Y17662500D01*
X92753000Y17655500D01*
X92729000Y17650000D01*
X92704500Y17645500D01*
X92679500Y17642500D01*
X92654500Y17640500D01*
X92629500Y17640000D01*
X91529500Y17640000D01*
X91505000Y17640500D01*
X91480000Y17642500D01*
X91455000Y17645500D01*
X91430500Y17650000D01*
X91406500Y17655500D01*
X91382500Y17662500D01*
X91358500Y17670000D01*
X91335500Y17679500D01*
X91313000Y17689500D01*
X91290500Y17701000D01*
X91269000Y17713500D01*
X91248000Y17727000D01*
X91228000Y17741500D01*
X91208500Y17757000D01*
X91189500Y17773500D01*
X91172000Y17791000D01*
X91155000Y17809000D01*
X91139000Y17828500D01*
X91123500Y17848000D01*
X91109500Y17869000D01*
X91096500Y17890000D01*
X91085000Y17912000D01*
X91074000Y17934500D01*
X91064500Y17957500D01*
X91055500Y17981000D01*
X91048500Y18004500D01*
X91042500Y18029000D01*
X91037500Y18053000D01*
X91033500Y18078000D01*
X91031000Y18102500D01*
X91030000Y18127500D01*
X91030000Y18152500D01*
X91031000Y18177500D01*
X91033500Y18202000D01*
X91037500Y18227000D01*
X91042500Y18251500D01*
X91048500Y18275500D01*
X91055500Y18299500D01*
X91064500Y18322500D01*
X91074000Y18345500D01*
X91085000Y18368000D01*
X91096500Y18390000D01*
X91109500Y18411500D01*
X91123500Y18432000D01*
X91139000Y18452000D01*
X91155000Y18471000D01*
X91172000Y18489000D01*
X91189500Y18506500D01*
X91208500Y18523000D01*
X91228000Y18538500D01*
X91248000Y18553000D01*
X91269000Y18566500D01*
X91290500Y18579000D01*
X91313000Y18590500D01*
X91335500Y18601000D01*
X91358500Y18610000D01*
X91382500Y18618000D01*
X91406500Y18624500D01*
X91430500Y18630000D01*
X91455000Y18634500D01*
X91480000Y18637500D01*
X91505000Y18639500D01*
X91529500Y18640000D01*
X92629500Y18640000D01*
X92654500Y18639500D01*
G37*
G36*
X92654500Y9999500D02*
G01*
X92679500Y9997500D01*
X92704500Y9994500D01*
X92729000Y9990000D01*
X92753000Y9984500D01*
X92777000Y9978000D01*
X92801000Y9970000D01*
X92824000Y9960500D01*
X92846500Y9950500D01*
X92869000Y9939000D01*
X92890500Y9926500D01*
X92911500Y9913000D01*
X92931500Y9898500D01*
X92951000Y9883000D01*
X92970000Y9866500D01*
X92987500Y9849000D01*
X93004500Y9831000D01*
X93020500Y9811500D01*
X93035500Y9792000D01*
X93049500Y9771500D01*
X93063000Y9750000D01*
X93074500Y9728000D01*
X93085500Y9705500D01*
X93095000Y9682500D01*
X93103500Y9659000D01*
X93111000Y9635500D01*
X93117000Y9611000D01*
X93122000Y9587000D01*
X93126000Y9562000D01*
X93128500Y9537500D01*
X93129500Y9512500D01*
X93129500Y9487500D01*
X93128500Y9462500D01*
X93126000Y9438000D01*
X93122000Y9413000D01*
X93117000Y9388500D01*
X93111000Y9364500D01*
X93103500Y9341000D01*
X93095000Y9317500D01*
X93085500Y9294500D01*
X93074500Y9272000D01*
X93063000Y9250000D01*
X93049500Y9228500D01*
X93035500Y9208000D01*
X93020500Y9188500D01*
X93004500Y9169000D01*
X92987500Y9151000D01*
X92970000Y9133500D01*
X92951000Y9117000D01*
X92931500Y9101500D01*
X92911500Y9087000D01*
X92890500Y9073500D01*
X92869000Y9061000D01*
X92846500Y9049500D01*
X92824000Y9039500D01*
X92801000Y9030000D01*
X92777000Y9022000D01*
X92753000Y9015500D01*
X92729000Y9010000D01*
X92704500Y9005500D01*
X92679500Y9002500D01*
X92654500Y9000500D01*
X92629500Y9000000D01*
X91529500Y9000000D01*
X91505000Y9000500D01*
X91480000Y9002500D01*
X91455000Y9005500D01*
X91430500Y9010000D01*
X91406500Y9015500D01*
X91382500Y9022000D01*
X91358500Y9030000D01*
X91335500Y9039500D01*
X91313000Y9049500D01*
X91290500Y9061000D01*
X91269000Y9073500D01*
X91248000Y9087000D01*
X91228000Y9101500D01*
X91208500Y9117000D01*
X91189500Y9133500D01*
X91172000Y9151000D01*
X91155000Y9169000D01*
X91139000Y9188500D01*
X91123500Y9208000D01*
X91109500Y9228500D01*
X91096500Y9250000D01*
X91085000Y9272000D01*
X91074000Y9294500D01*
X91064500Y9317500D01*
X91055500Y9341000D01*
X91048500Y9364500D01*
X91042500Y9388500D01*
X91037500Y9413000D01*
X91033500Y9438000D01*
X91031000Y9462500D01*
X91030000Y9487500D01*
X91030000Y9512500D01*
X91031000Y9537500D01*
X91033500Y9562000D01*
X91037500Y9587000D01*
X91042500Y9611000D01*
X91048500Y9635500D01*
X91055500Y9659000D01*
X91064500Y9682500D01*
X91074000Y9705500D01*
X91085000Y9728000D01*
X91096500Y9750000D01*
X91109500Y9771500D01*
X91123500Y9792000D01*
X91139000Y9811500D01*
X91155000Y9831000D01*
X91172000Y9849000D01*
X91189500Y9866500D01*
X91208500Y9883000D01*
X91228000Y9898500D01*
X91248000Y9913000D01*
X91269000Y9926500D01*
X91290500Y9939000D01*
X91313000Y9950500D01*
X91335500Y9960500D01*
X91358500Y9970000D01*
X91382500Y9978000D01*
X91406500Y9984500D01*
X91430500Y9990000D01*
X91455000Y9994500D01*
X91480000Y9997500D01*
X91505000Y9999500D01*
X91529500Y10000000D01*
X92629500Y10000000D01*
X92654500Y9999500D01*
G37*
G36*
X96584500Y18639500D02*
G01*
X96609500Y18637500D01*
X96634500Y18634500D01*
X96659000Y18630000D01*
X96683000Y18624500D01*
X96707000Y18618000D01*
X96731000Y18610000D01*
X96754000Y18601000D01*
X96776500Y18590500D01*
X96799000Y18579000D01*
X96820500Y18566500D01*
X96841500Y18553000D01*
X96861500Y18538500D01*
X96881000Y18523000D01*
X96900000Y18506500D01*
X96917500Y18489000D01*
X96934500Y18471000D01*
X96950500Y18452000D01*
X96966000Y18432000D01*
X96980000Y18411500D01*
X96993000Y18390000D01*
X97004500Y18368000D01*
X97015500Y18345500D01*
X97025000Y18322500D01*
X97034000Y18299500D01*
X97041000Y18275500D01*
X97047500Y18251500D01*
X97052000Y18227000D01*
X97056000Y18202000D01*
X97058500Y18177500D01*
X97059500Y18152500D01*
X97059500Y18127500D01*
X97058500Y18102500D01*
X97056000Y18078000D01*
X97052000Y18053000D01*
X97047500Y18029000D01*
X97041000Y18004500D01*
X97034000Y17981000D01*
X97025000Y17957500D01*
X97015500Y17934500D01*
X97004500Y17912000D01*
X96993000Y17890000D01*
X96980000Y17869000D01*
X96966000Y17848000D01*
X96950500Y17828500D01*
X96934500Y17809000D01*
X96917500Y17791000D01*
X96900000Y17773500D01*
X96881000Y17757000D01*
X96861500Y17741500D01*
X96841500Y17727000D01*
X96820500Y17713500D01*
X96799000Y17701000D01*
X96776500Y17689500D01*
X96754000Y17679500D01*
X96731000Y17670000D01*
X96707000Y17662500D01*
X96683000Y17655500D01*
X96659000Y17650000D01*
X96634500Y17645500D01*
X96609500Y17642500D01*
X96584500Y17640500D01*
X96560000Y17640000D01*
X95960000Y17640000D01*
X95935000Y17640500D01*
X95910000Y17642500D01*
X95885500Y17645500D01*
X95860500Y17650000D01*
X95836500Y17655500D01*
X95812500Y17662500D01*
X95789000Y17670000D01*
X95765500Y17679500D01*
X95743000Y17689500D01*
X95720500Y17701000D01*
X95699000Y17713500D01*
X95678000Y17727000D01*
X95658000Y17741500D01*
X95638500Y17757000D01*
X95619500Y17773500D01*
X95602000Y17791000D01*
X95585000Y17809000D01*
X95569000Y17828500D01*
X95554000Y17848000D01*
X95540000Y17869000D01*
X95527000Y17890000D01*
X95515000Y17912000D01*
X95504000Y17934500D01*
X95494500Y17957500D01*
X95486000Y17981000D01*
X95478500Y18004500D01*
X95472500Y18029000D01*
X95467500Y18053000D01*
X95463500Y18078000D01*
X95461000Y18102500D01*
X95460000Y18127500D01*
X95460000Y18152500D01*
X95461000Y18177500D01*
X95463500Y18202000D01*
X95467500Y18227000D01*
X95472500Y18251500D01*
X95478500Y18275500D01*
X95486000Y18299500D01*
X95494500Y18322500D01*
X95504000Y18345500D01*
X95515000Y18368000D01*
X95527000Y18390000D01*
X95540000Y18411500D01*
X95554000Y18432000D01*
X95569000Y18452000D01*
X95585000Y18471000D01*
X95602000Y18489000D01*
X95619500Y18506500D01*
X95638500Y18523000D01*
X95658000Y18538500D01*
X95678000Y18553000D01*
X95699000Y18566500D01*
X95720500Y18579000D01*
X95743000Y18590500D01*
X95765500Y18601000D01*
X95789000Y18610000D01*
X95812500Y18618000D01*
X95836500Y18624500D01*
X95860500Y18630000D01*
X95885500Y18634500D01*
X95910000Y18637500D01*
X95935000Y18639500D01*
X95960000Y18640000D01*
X96560000Y18640000D01*
X96584500Y18639500D01*
G37*
G36*
X96584500Y9999500D02*
G01*
X96609500Y9997500D01*
X96634500Y9994500D01*
X96659000Y9990000D01*
X96683000Y9984500D01*
X96707000Y9978000D01*
X96731000Y9970000D01*
X96754000Y9960500D01*
X96776500Y9950500D01*
X96799000Y9939000D01*
X96820500Y9926500D01*
X96841500Y9913000D01*
X96861500Y9898500D01*
X96881000Y9883000D01*
X96900000Y9866500D01*
X96917500Y9849000D01*
X96934500Y9831000D01*
X96950500Y9811500D01*
X96966000Y9792000D01*
X96980000Y9771500D01*
X96993000Y9750000D01*
X97004500Y9728000D01*
X97015500Y9705500D01*
X97025000Y9682500D01*
X97034000Y9659000D01*
X97041000Y9635500D01*
X97047500Y9611000D01*
X97052000Y9587000D01*
X97056000Y9562000D01*
X97058500Y9537500D01*
X97059500Y9512500D01*
X97059500Y9487500D01*
X97058500Y9462500D01*
X97056000Y9438000D01*
X97052000Y9413000D01*
X97047500Y9388500D01*
X97041000Y9364500D01*
X97034000Y9341000D01*
X97025000Y9317500D01*
X97015500Y9294500D01*
X97004500Y9272000D01*
X96993000Y9250000D01*
X96980000Y9228500D01*
X96966000Y9208000D01*
X96950500Y9188500D01*
X96934500Y9169000D01*
X96917500Y9151000D01*
X96900000Y9133500D01*
X96881000Y9117000D01*
X96861500Y9101500D01*
X96841500Y9087000D01*
X96820500Y9073500D01*
X96799000Y9061000D01*
X96776500Y9049500D01*
X96754000Y9039500D01*
X96731000Y9030000D01*
X96707000Y9022000D01*
X96683000Y9015500D01*
X96659000Y9010000D01*
X96634500Y9005500D01*
X96609500Y9002500D01*
X96584500Y9000500D01*
X96560000Y9000000D01*
X95960000Y9000000D01*
X95935000Y9000500D01*
X95910000Y9002500D01*
X95885500Y9005500D01*
X95860500Y9010000D01*
X95836500Y9015500D01*
X95812500Y9022000D01*
X95789000Y9030000D01*
X95765500Y9039500D01*
X95743000Y9049500D01*
X95720500Y9061000D01*
X95699000Y9073500D01*
X95678000Y9087000D01*
X95658000Y9101500D01*
X95638500Y9117000D01*
X95619500Y9133500D01*
X95602000Y9151000D01*
X95585000Y9169000D01*
X95569000Y9188500D01*
X95554000Y9208000D01*
X95540000Y9228500D01*
X95527000Y9250000D01*
X95515000Y9272000D01*
X95504000Y9294500D01*
X95494500Y9317500D01*
X95486000Y9341000D01*
X95478500Y9364500D01*
X95472500Y9388500D01*
X95467500Y9413000D01*
X95463500Y9438000D01*
X95461000Y9462500D01*
X95460000Y9487500D01*
X95460000Y9512500D01*
X95461000Y9537500D01*
X95463500Y9562000D01*
X95467500Y9587000D01*
X95472500Y9611000D01*
X95478500Y9635500D01*
X95486000Y9659000D01*
X95494500Y9682500D01*
X95504000Y9705500D01*
X95515000Y9728000D01*
X95527000Y9750000D01*
X95540000Y9771500D01*
X95554000Y9792000D01*
X95569000Y9811500D01*
X95585000Y9831000D01*
X95602000Y9849000D01*
X95619500Y9866500D01*
X95638500Y9883000D01*
X95658000Y9898500D01*
X95678000Y9913000D01*
X95699000Y9926500D01*
X95720500Y9939000D01*
X95743000Y9950500D01*
X95765500Y9960500D01*
X95789000Y9970000D01*
X95812500Y9978000D01*
X95836500Y9984500D01*
X95860500Y9990000D01*
X95885500Y9994500D01*
X95910000Y9997500D01*
X95935000Y9999500D01*
X95960000Y10000000D01*
X96560000Y10000000D01*
X96584500Y9999500D01*
G37*
%TD*%
D11*
%TO.C,U4*%
X53975000Y8890000D03*
X53975000Y11430000D03*
X44175000Y11430000D03*
X44175000Y8890000D03*
%TD*%
%TO.C,U3*%
X53975000Y3175000D03*
X53975000Y5715000D03*
X44175000Y5715000D03*
X44175000Y3175000D03*
%TD*%
D12*
%TO.C,Q1*%
X28895000Y14240000D03*
X30795000Y14240000D03*
X29845000Y16240000D03*
%TD*%
%TO.C,Q3*%
X39690000Y14240000D03*
X41590000Y14240000D03*
X40640000Y16240000D03*
%TD*%
%TO.C,Q4*%
X80282500Y14557500D03*
X82182500Y14557500D03*
X81232500Y16557500D03*
%TD*%
D13*
%TO.C,C8*%
X70990000Y6350000D03*
X76330000Y6350000D03*
%TD*%
D14*
%TO.C,U5*%
X41998400Y29210000D03*
X41998400Y27940000D03*
X41998400Y26670000D03*
X41998400Y25400000D03*
X47536600Y25400000D03*
X47536600Y26670000D03*
X47536600Y27940000D03*
X47536600Y29210000D03*
D15*
X44767500Y27305000D03*
%TD*%
D16*
%TO.C,R6*%
X88900000Y8382000D03*
X88900000Y10032000D03*
%TD*%
D17*
%TO.C,D10*%
X80619600Y48577500D03*
X85750400Y48577500D03*
%TD*%
D18*
%TO.C,D12*%
X86021000Y29210000D03*
X81621000Y29210000D03*
%TD*%
D19*
%TO.C,D4*%
X37147500Y12065000D03*
X37147500Y8680000D03*
%TD*%
D20*
%TO.C,U2*%
X91440000Y10620000D03*
X91440000Y11420000D03*
D21*
X91440000Y12570000D03*
X91440000Y13570000D03*
X91440000Y14070000D03*
X91440000Y15070000D03*
D20*
X91440000Y17020000D03*
X91440000Y16220000D03*
D21*
X91440000Y15570000D03*
X91440000Y14570000D03*
X91440000Y13070000D03*
X91440000Y12070000D03*
%TD*%
D19*
%TO.C,D1*%
X45085000Y17885000D03*
X45085000Y14500000D03*
%TD*%
D16*
%TO.C,R2*%
X33020000Y14287500D03*
X33020000Y15937500D03*
%TD*%
D19*
%TO.C,D2*%
X85090000Y14605000D03*
X85090000Y17990000D03*
%TD*%
D22*
%TO.C,C13*%
X16002000Y5969000D03*
X14452000Y5969000D03*
%TD*%
D23*
%TO.C,R5*%
X40767500Y18415000D03*
X42417500Y18415000D03*
%TD*%
D24*
%TO.C,R9*%
X59180000Y5715000D03*
X62105000Y5715000D03*
%TD*%
D16*
%TO.C,R7*%
X87376000Y8382000D03*
X87376000Y10032000D03*
%TD*%
D25*
%TO.C,C1*%
X13589000Y13615000D03*
X13589000Y12065000D03*
%TD*%
D26*
%TO.C,LED1*%
X30797500Y27940000D03*
X29297400Y27940000D03*
%TD*%
D16*
%TO.C,R1*%
X15240000Y12002000D03*
X15240000Y13652000D03*
%TD*%
D22*
%TO.C,C14*%
X19050000Y18415000D03*
X17500000Y18415000D03*
%TD*%
%TO.C,C4*%
X83007500Y23812500D03*
X81457500Y23812500D03*
%TD*%
D19*
%TO.C,D3*%
X34607500Y12065000D03*
X34607500Y8680000D03*
%TD*%
D22*
%TO.C,C7*%
X83007500Y20637500D03*
X81457500Y20637500D03*
%TD*%
D27*
%TO.C,D7*%
X10160000Y52120800D03*
X10160000Y46990000D03*
%TD*%
D24*
%TO.C,R10*%
X59180000Y11430000D03*
X62105000Y11430000D03*
%TD*%
D25*
%TO.C,C10*%
X49530000Y23000000D03*
X49530000Y21450000D03*
%TD*%
D17*
%TO.C,D11*%
X80619600Y39687500D03*
X85750400Y39687500D03*
%TD*%
D28*
%TO.C,C9*%
X40817500Y20637500D03*
X42367500Y20637500D03*
%TD*%
D29*
%TO.C,Q2*%
X58675000Y38957000D03*
D30*
X60960000Y45804000D03*
D29*
X63245000Y38956000D03*
%TD*%
D28*
%TO.C,C3*%
X26987500Y9779000D03*
X28537500Y9779000D03*
%TD*%
D16*
%TO.C,R4*%
X49847500Y16130000D03*
X49847500Y17780000D03*
%TD*%
D17*
%TO.C,D8*%
X55905400Y50800000D03*
X50774600Y50800000D03*
%TD*%
D31*
%TO.C,C2*%
X34925000Y14287500D03*
X34925000Y15837500D03*
%TD*%
D22*
%TO.C,C11*%
X61417500Y16827500D03*
X59867500Y16827500D03*
%TD*%
D32*
%TO.C,D6*%
X58950000Y8890000D03*
X62335000Y8890000D03*
%TD*%
D33*
%TO.C,LDO1*%
X85755500Y25781000D03*
D34*
X92679500Y23495000D03*
D33*
X85755500Y21209000D03*
%TD*%
D25*
%TO.C,C6*%
X47942500Y17742500D03*
X47942500Y16192500D03*
%TD*%
D32*
%TO.C,D5*%
X58950000Y3175000D03*
X62335000Y3175000D03*
%TD*%
D14*
%TO.C,U1*%
X18971000Y13652500D03*
X18971000Y12382500D03*
X18971000Y11112500D03*
X18971000Y9842500D03*
X18971000Y8572500D03*
X18971000Y7302500D03*
X18971000Y6032500D03*
X24209000Y6032500D03*
X24209000Y7302500D03*
X24209000Y8572500D03*
X24209000Y9842500D03*
X24209000Y11112500D03*
X24209000Y12382500D03*
X24209000Y13652500D03*
%TD*%
D13*
%TO.C,C5*%
X76330000Y14287500D03*
X70990000Y14287500D03*
%TD*%
D16*
%TO.C,R8*%
X40132000Y9653000D03*
X40132000Y11303000D03*
%TD*%
D24*
%TO.C,R11*%
X59180000Y14605000D03*
X62105000Y14605000D03*
%TD*%
D16*
%TO.C,R3*%
X36830000Y14287500D03*
X36830000Y15937500D03*
%TD*%
D17*
%TO.C,D13*%
X67945000Y56832500D03*
X73075800Y56832500D03*
%TD*%
%TO.C,D9*%
X50774600Y54927500D03*
X55905400Y54927500D03*
%TD*%
M02*
