%TF.GenerationSoftware,KiCad,Pcbnew,10.0.5*%
%TF.CreationDate,2026-09-11T12:44:44+09:00*%
%TF.ProjectId,osr-cdi15x,6f73722d-6364-4693-9135-782e6b696361,rev?*%
%TF.SameCoordinates,Original*%
%TF.FileFunction,Soldermask,Bot*%
%TF.FilePolarity,Negative*%
%FSLAX46Y46*%
G04 Gerber Fmt 4.6, Leading zero omitted, Abs format (unit mm)*
G04 Created by KiCad (PCBNEW 10.0.5) date 2026-09-11 12:44:44*
%MOMM*%
%LPD*%
G01*
G04 APERTURE LIST*
G04 Aperture macros list*
%AMRoundRect*
0 Rectangle with rounded corners*
0 $1 Rounding radius*
0 $2 $3 $4 $5 $6 $7 $8 $9 X,Y pos of 4 corners*
0 Add a 4 corners polygon primitive as box body*
4,1,4,$2,$3,$4,$5,$6,$7,$8,$9,$2,$3,0*
0 Add four circle primitives for the rounded corners*
1,1,$1+$1,$2,$3*
1,1,$1+$1,$4,$5*
1,1,$1+$1,$6,$7*
1,1,$1+$1,$8,$9*
0 Add four rect primitives between the rounded corners*
20,1,$1+$1,$2,$3,$4,$5,0*
20,1,$1+$1,$4,$5,$6,$7,0*
20,1,$1+$1,$6,$7,$8,$9,0*
20,1,$1+$1,$8,$9,$2,$3,0*%
G04 Aperture macros list end*
%ADD10C,2.500000*%
%ADD11RoundRect,0.250000X-0.550000X-0.550000X0.550000X-0.550000X0.550000X0.550000X-0.550000X0.550000X0*%
%ADD12RoundRect,0.250000X-1.000000X-1.000000X1.000000X-1.000000X1.000000X1.000000X-1.000000X1.000000X0*%
%ADD13O,2.100000X1.000000*%
%ADD14O,1.600000X1.000000*%
%ADD15C,2.540000*%
%ADD16C,1.600000*%
G04 APERTURE END LIST*
D10*
%TO.C,H31*%
X71120000Y29210000D03*
%TD*%
%TO.C,H6*%
X35877500Y22542500D03*
%TD*%
D11*
%TO.C,H1*%
X18097500Y16827500D03*
%TD*%
D12*
%TO.C,H26*%
X77152500Y53340000D03*
%TD*%
D13*
%TO.C,U2*%
X92080000Y9500000D03*
X92080000Y18140000D03*
D14*
X96260000Y18140000D03*
X96260000Y9500000D03*
%TD*%
D10*
%TO.C,H19*%
X61277500Y29210000D03*
%TD*%
%TO.C,H29*%
X71120000Y35242500D03*
%TD*%
%TO.C,H21*%
X19050000Y22542500D03*
%TD*%
%TO.C,H14*%
X74930000Y22225000D03*
%TD*%
%TO.C,H20*%
X15240000Y25400000D03*
%TD*%
D12*
%TO.C,H25*%
X77152500Y56832500D03*
%TD*%
D10*
%TO.C,H24*%
X71120000Y44132500D03*
%TD*%
D11*
%TO.C,H12*%
X65722500Y7230000D03*
%TD*%
D15*
%TO.C,C12*%
X46990000Y43497500D03*
X10160000Y43497500D03*
%TD*%
D10*
%TO.C,H22*%
X19050000Y28257500D03*
%TD*%
%TO.C,H27*%
X75882500Y48577500D03*
%TD*%
%TO.C,H17*%
X61277500Y21590000D03*
%TD*%
%TO.C,H13*%
X77152500Y29210000D03*
%TD*%
%TO.C,H10*%
X46990000Y40322500D03*
%TD*%
%TO.C,H30*%
X60960000Y51117500D03*
%TD*%
%TO.C,H9*%
X10160000Y40322500D03*
%TD*%
%TO.C,H23*%
X52387500Y46355000D03*
%TD*%
%TO.C,H7*%
X35877500Y28257500D03*
%TD*%
%TO.C,H4*%
X25717500Y28257500D03*
%TD*%
%TO.C,H18*%
X52387500Y21590000D03*
%TD*%
%TO.C,H5*%
X32067500Y25400000D03*
%TD*%
%TO.C,H28*%
X75882500Y39687500D03*
%TD*%
%TO.C,H3*%
X25717500Y22542500D03*
%TD*%
D11*
%TO.C,H2*%
X15875000Y16827500D03*
%TD*%
D16*
%TO.C,J1*%
X4318000Y19050000D03*
X4318000Y16510000D03*
X4318000Y13970000D03*
X4318000Y11430000D03*
X4318000Y8890000D03*
%TD*%
D10*
%TO.C,H32*%
X68580000Y22225000D03*
%TD*%
%TO.C,H16*%
X52387500Y29210000D03*
%TD*%
%TO.C,H15*%
X56832500Y25400000D03*
%TD*%
M02*
