M48
; DRILL file KiCad 10.0.5 date 2026-08-15T08:53:45
; FORMAT={-:-/ absolute / inch / decimal}
; #@! TF.CreationDate,2026-08-15T08:53:45+09:00
; #@! TF.GenerationSoftware,Kicad,Pcbnew,10.0.5
; #@! TF.FileFunction,Plated,1,2,PTH
FMAT,2
INCH
; #@! TA.AperFunction,Plated,PTH,ViaDrill
T1C0.0118
; #@! TA.AperFunction,Plated,PTH,ComponentDrill
T2C0.0236
; #@! TA.AperFunction,Plated,PTH,ComponentDrill
T3C0.0354
; #@! TA.AperFunction,Plated,PTH,ComponentDrill
T4C0.0551
; #@! TA.AperFunction,Plated,PTH,ComponentDrill
T5C0.0591
%
G90
G05
T1
X0.3Y1.5
X0.3Y1.3375
X0.425Y1.5
X0.425Y1.3375
X0.4746Y0.1502
X0.475Y0.475
X0.475Y0.2375
X0.5Y0.75
X0.5Y0.65
X0.5375Y0.425
X0.5492Y1.7505
X0.5492Y1.688
X0.55Y2.075
X0.55Y1.95
X0.55Y1.5
X0.55Y1.3375
X0.6Y0.75
X0.6Y0.65
X0.6Y0.3875
X0.65Y0.15
X0.675Y2.075
X0.675Y1.95
X0.675Y1.75
X0.675Y1.6875
X0.675Y1.5
X0.675Y1.3375
X0.68Y0.485
X0.8Y2.075
X0.8Y1.95
X0.8Y1.75
X0.8Y1.6875
X0.8Y1.5
X0.8Y1.3375
X0.825Y0.15
X0.895Y0.3375
X0.895Y0.2875
X0.925Y2.075
X0.925Y1.95
X0.925Y1.75
X0.925Y1.6875
X0.925Y1.5
X0.925Y1.3375
X0.95Y0.6
X0.9875Y0.675
X1.0Y0.15
X1.0375Y0.5375
X1.05Y2.075
X1.05Y1.95
X1.05Y1.5
X1.05Y1.3375
X1.0625Y1.75
X1.0625Y1.6875
X1.0875Y0.675
X1.09Y0.555
X1.09Y0.26
X1.1427Y0.4875
X1.175Y2.075
X1.175Y1.95
X1.175Y1.75
X1.175Y1.6875
X1.175Y1.5
X1.175Y1.3375
X1.175Y0.6875
X1.1875Y0.45
X1.1975Y0.385
X1.275Y0.3875
X1.3Y2.075
X1.3Y1.95
X1.3Y1.75
X1.3Y1.6875
X1.3Y1.5
X1.3625Y0.4125
X1.375Y1.3875
X1.375Y1.3
X1.375Y1.2125
X1.375Y0.6625
X1.425Y2.075
X1.425Y1.95
X1.425Y1.5
X1.4625Y1.3875
X1.4625Y1.3
X1.4625Y1.2125
X1.4625Y0.425
X1.5Y0.15
X1.5125Y0.65
X1.5125Y0.575
X1.5375Y0.75
X1.55Y2.075
X1.55Y1.95
X1.55Y1.5
X1.55Y1.3875
X1.55Y1.3
X1.55Y1.2125
X1.55Y1.1375
X1.55Y0.7125
X1.6375Y1.3875
X1.6375Y1.3
X1.6375Y1.2125
X1.65Y0.95
X1.65Y0.375
X1.65Y0.2875
X1.6625Y0.125
X1.675Y2.075
X1.675Y1.95
X1.675Y1.6125
X1.675Y1.5
X1.7Y0.9
X1.725Y1.3875
X1.725Y1.3
X1.725Y1.2125
X1.725Y1.125
X1.725Y1.025
X1.75Y0.95
X1.75Y0.85
X1.8Y1.5
X1.8Y1.125
X1.8Y1.025
X1.8Y0.9
X1.8125Y1.3
X1.8125Y1.2125
X1.825Y2.075
X1.825Y1.9875
X1.825Y0.55
X1.85Y0.95
X1.85Y0.85
X1.85Y0.4375
X1.85Y0.2125
X1.85Y0.125
X1.9Y1.3
X1.9Y1.2125
X1.9125Y2.1625
X1.9125Y2.075
X1.9125Y1.9875
X1.925Y1.5
X1.925Y1.375
X2.0Y2.075
X2.0125Y0.4375
X2.0125Y0.35
X2.0125Y0.2125
X2.0125Y0.125
X2.025Y0.65
X2.025Y0.5625
X2.05Y1.6125
X2.05Y1.5
X2.05Y1.375
X2.1Y2.2875
X2.1Y2.2
X2.1Y2.125
X2.1Y2.0375
X2.1Y1.9625
X2.1625Y1.8875
X2.1625Y1.8
X2.1625Y1.7125
X2.17Y0.72
X2.175Y1.375
X2.18Y0.795
X2.2Y0.65
X2.2Y0.5625
X2.25Y1.8875
X2.25Y1.8
X2.25Y1.7125
X2.25Y0.2875
X2.2875Y2.25
X2.2875Y2.1625
X2.3Y2.05
X2.3Y1.9625
X2.3Y1.375
X2.3125Y1.8125
X2.3625Y2.325
X2.375Y2.25
X2.375Y2.1625
X2.3875Y0.575
X2.3875Y0.45
X2.3875Y0.35
X2.3875Y0.225
X2.3875Y0.125
X2.3994Y1.725
X2.4Y1.9
X2.4Y1.65
X2.425Y1.375
X2.4625Y2.25
X2.4625Y2.1625
X2.485Y1.475
X2.4875Y2.05
X2.4875Y1.9625
X2.5Y1.8125
X2.5Y0.35
X2.5Y0.225
X2.525Y2.325
X2.55Y1.8875
X2.55Y1.8
X2.55Y1.7125
X2.55Y0.6125
X2.5625Y2.25
X2.5625Y2.1625
X2.5625Y1.375
X2.5875Y1.625
X2.5875Y1.5375
X2.6375Y1.8875
X2.6375Y1.8
X2.6375Y1.7125
X2.6375Y0.6375
X2.6625Y2.1625
X2.675Y1.625
X2.675Y1.5375
X2.675Y0.5625
X2.6875Y2.325
X2.6875Y0.25
X2.775Y2.275
X2.775Y2.2
X2.8Y0.675
X2.8Y0.45
X2.85Y2.325
X2.9Y2.1125
X2.9Y0.675
X2.9Y0.5625
X2.9Y0.45
X2.9Y0.25
X2.9Y0.1375
X3.0125Y1.8
X3.0125Y0.35
X3.0125Y0.1375
X3.1125Y0.5625
X3.1125Y0.45
X3.125Y0.25
X3.15Y1.8
X3.15Y1.7
X3.275Y2.0375
X3.275Y1.95
X3.275Y1.875
X3.275Y1.8
X3.275Y1.6875
X3.275Y1.6
X3.275Y1.525
X3.275Y1.45
X3.275Y0.675
X3.3Y1.1875
X3.3Y1.1125
X3.35Y0.325
X3.4Y2.0375
X3.4Y1.8
X3.4Y1.6875
X3.4836Y0.5337
X3.4875Y0.925
X3.488Y0.569
X3.5375Y0.6377
X3.5375Y0.45
X3.5625Y1.0
X3.5625Y0.85
X3.65Y1.0875
X3.7375Y1.0
X3.7375Y0.85
X3.8125Y0.925
T3
X0.17Y0.75
X0.17Y0.65
X0.17Y0.55
X0.17Y0.45
X0.17Y0.35
X0.425Y1.175
X0.425Y0.875
X1.15Y1.0
X1.25Y1.0
X2.5875Y0.2846
T4
X0.4Y1.7125
X1.85Y1.7125
T5
X0.4Y1.6
X0.55Y0.9375
X0.7Y1.1
X0.75Y0.8875
X0.975Y1.1125
X1.0125Y0.9
X1.175Y0.875
X1.375Y0.875
X1.425Y1.0875
X1.85Y1.6
X2.0625Y1.825
X2.0625Y1.15
X2.0625Y0.85
X2.2375Y1.0
X2.4Y2.025
X2.4Y1.15
X2.425Y0.85
X2.7Y0.875
X2.8Y1.7375
X2.8Y1.3875
X2.8Y1.15
X2.95Y0.875
X2.975Y1.9125
X2.975Y1.5625
X3.0375Y2.2375
X3.0375Y2.1
X3.0375Y1.15
T2
G00X3.6035Y0.7142
M15
G01X3.6469Y0.7142
M16
G05
G00X3.6035Y0.374
M15
G01X3.6469Y0.374
M16
G05
G00X3.778Y0.7142
M15
G01X3.8016Y0.7142
M16
G05
G00X3.778Y0.374
M15
G01X3.8016Y0.374
M16
G05
M30
