%TF.GenerationSoftware,KiCad,Pcbnew,10.0.5*%
%TF.CreationDate,2026-08-15T08:53:45+09:00*%
%TF.ProjectId,osr-cdi15x,6f73722d-6364-4693-9135-782e6b696361,rev?*%
%TF.SameCoordinates,Original*%
%TF.FileFunction,Soldermask,Top*%
%TF.FilePolarity,Negative*%
%FSLAX46Y46*%
G04 Gerber Fmt 4.6, Leading zero omitted, Abs format (unit mm)*
G04 Created by KiCad (PCBNEW 10.0.5) date 2026-08-15 08:53:45*
%MOMM*%
%LPD*%
G01*
G04 APERTURE LIST*
G04 Aperture macros list*
%AMRoundRect*
0 Rectangle with rounded corners*
0 $1 Rounding radius*
0 $2 $3 $4 $5 $6 $7 $8 $9 X,Y pos of 4 corners*
0 Add a 4 corners polygon primitive as box body*
4,1,4,$2,$3,$4,$5,$6,$7,$8,$9,$2,$3,0*
0 Add four circle primitives for the rounded corners*
1,1,$1+$1,$2,$3*
1,1,$1+$1,$4,$5*
1,1,$1+$1,$6,$7*
1,1,$1+$1,$8,$9*
0 Add four rect primitives between the rounded corners*
20,1,$1+$1,$2,$3,$4,$5,0*
20,1,$1+$1,$4,$5,$6,$7,0*
20,1,$1+$1,$6,$7,$8,$9,0*
20,1,$1+$1,$8,$9,$2,$3,0*%
G04 Aperture macros list end*
%ADD10R,2.500000X1.800000*%
%ADD11R,0.700000X1.250000*%
%ADD12R,3.800000X1.200000*%
%ADD13O,2.139600X0.675600*%
%ADD14RoundRect,0.050800X-1.200000X1.600000X-1.200000X-1.600000X1.200000X-1.600000X1.200000X1.600000X0*%
%ADD15C,2.500000*%
%ADD16RoundRect,0.200000X0.275000X-0.200000X0.275000X0.200000X-0.275000X0.200000X-0.275000X-0.200000X0*%
%ADD17RoundRect,0.050800X-1.023200X-0.810000X1.023200X-0.810000X1.023200X0.810000X-1.023200X0.810000X0*%
%ADD18R,2.000000X2.000000*%
%ADD19RoundRect,0.250000X-0.550000X-0.550000X0.550000X-0.550000X0.550000X0.550000X-0.550000X0.550000X0*%
%ADD20R,1.150000X0.950000*%
%ADD21RoundRect,0.250000X-1.000000X-1.000000X1.000000X-1.000000X1.000000X1.000000X-1.000000X1.000000X0*%
%ADD22O,2.100000X1.000000*%
%ADD23O,1.600000X1.000000*%
%ADD24R,1.300000X0.600000*%
%ADD25R,1.300000X0.300000*%
%ADD26RoundRect,0.225000X0.225000X0.250000X-0.225000X0.250000X-0.225000X-0.250000X0.225000X-0.250000X0*%
%ADD27RoundRect,0.200000X-0.200000X-0.275000X0.200000X-0.275000X0.200000X0.275000X-0.200000X0.275000X0*%
%ADD28RoundRect,0.250000X-0.312500X-0.625000X0.312500X-0.625000X0.312500X0.625000X-0.312500X0.625000X0*%
%ADD29C,1.600000*%
%ADD30RoundRect,0.225000X-0.250000X0.225000X-0.250000X-0.225000X0.250000X-0.225000X0.250000X0.225000X0*%
%ADD31C,2.540000*%
%ADD32RoundRect,0.050800X-0.400000X-0.400000X0.400000X-0.400000X0.400000X0.400000X-0.400000X0.400000X0*%
%ADD33RoundRect,0.050800X-0.810000X1.023200X-0.810000X-1.023200X0.810000X-1.023200X0.810000X1.023200X0*%
%ADD34RoundRect,0.225000X-0.225000X-0.250000X0.225000X-0.250000X0.225000X0.250000X-0.225000X0.250000X0*%
%ADD35R,1.600000X3.000000*%
%ADD36R,5.800000X6.200000*%
%ADD37RoundRect,0.050800X1.023200X0.810000X-1.023200X0.810000X-1.023200X-0.810000X1.023200X-0.810000X0*%
%ADD38RoundRect,0.225000X0.250000X-0.225000X0.250000X0.225000X-0.250000X0.225000X-0.250000X-0.225000X0*%
%ADD39R,0.950000X1.150000*%
%ADD40R,2.364000X1.064000*%
%ADD41R,6.004000X5.512000*%
G04 APERTURE END LIST*
D10*
%TO.C,U4*%
X53975000Y8890000D03*
X53975000Y11430000D03*
X44175000Y11430000D03*
X44175000Y8890000D03*
%TD*%
%TO.C,U3*%
X53975000Y3175000D03*
X53975000Y5715000D03*
X44175000Y5715000D03*
X44175000Y3175000D03*
%TD*%
D11*
%TO.C,Q1*%
X28895000Y14240000D03*
X30795000Y14240000D03*
X29845000Y16240000D03*
%TD*%
%TO.C,Q3*%
X39690000Y14240000D03*
X41590000Y14240000D03*
X40640000Y16240000D03*
%TD*%
%TO.C,Q4*%
X80282500Y14557500D03*
X82182500Y14557500D03*
X81232500Y16557500D03*
%TD*%
D12*
%TO.C,C8*%
X70990000Y6350000D03*
X76330000Y6350000D03*
%TD*%
D13*
%TO.C,U5*%
X41998400Y29210000D03*
X41998400Y27940000D03*
X41998400Y26670000D03*
X41998400Y25400000D03*
X47536600Y25400000D03*
X47536600Y26670000D03*
X47536600Y27940000D03*
X47536600Y29210000D03*
D14*
X44767500Y27305000D03*
%TD*%
D15*
%TO.C,H29*%
X71120000Y29210000D03*
%TD*%
D16*
%TO.C,R6*%
X88900000Y8382000D03*
X88900000Y10032000D03*
%TD*%
D15*
%TO.C,H6*%
X34925000Y22225000D03*
%TD*%
D17*
%TO.C,D10*%
X80619600Y48577500D03*
X85750400Y48577500D03*
%TD*%
D18*
%TO.C,D12*%
X86021000Y29210000D03*
X81621000Y29210000D03*
%TD*%
D19*
%TO.C,H1*%
X29210000Y25400000D03*
%TD*%
D20*
%TO.C,D4*%
X37147500Y12065000D03*
X37147500Y8680000D03*
%TD*%
D21*
%TO.C,H24*%
X77152500Y53340000D03*
%TD*%
D22*
%TO.C,U2*%
X92080000Y9500000D03*
X92080000Y18140000D03*
D23*
X96260000Y18140000D03*
X96260000Y9500000D03*
D24*
X91440000Y10620000D03*
X91440000Y11420000D03*
D25*
X91440000Y12570000D03*
X91440000Y13570000D03*
X91440000Y14070000D03*
X91440000Y15070000D03*
D24*
X91440000Y17020000D03*
X91440000Y16220000D03*
D25*
X91440000Y15570000D03*
X91440000Y14570000D03*
X91440000Y13070000D03*
X91440000Y12070000D03*
%TD*%
D20*
%TO.C,D1*%
X45085000Y17885000D03*
X45085000Y14500000D03*
%TD*%
D15*
%TO.C,H17*%
X60960000Y29210000D03*
%TD*%
%TO.C,H27*%
X71120000Y35242500D03*
%TD*%
D16*
%TO.C,R2*%
X33020000Y14287500D03*
X33020000Y15937500D03*
%TD*%
D15*
%TO.C,H19*%
X19050000Y22542500D03*
%TD*%
D20*
%TO.C,D2*%
X85090000Y14605000D03*
X85090000Y17990000D03*
%TD*%
D26*
%TO.C,C13*%
X16002000Y5969000D03*
X14452000Y5969000D03*
%TD*%
D15*
%TO.C,H12*%
X74930000Y22225000D03*
%TD*%
D27*
%TO.C,R5*%
X40767500Y18415000D03*
X42417500Y18415000D03*
%TD*%
D15*
%TO.C,H18*%
X13970000Y23812500D03*
%TD*%
D28*
%TO.C,R9*%
X59180000Y5715000D03*
X62105000Y5715000D03*
%TD*%
D15*
%TO.C,H8*%
X10160000Y40640000D03*
%TD*%
D16*
%TO.C,R7*%
X87376000Y8382000D03*
X87376000Y10032000D03*
%TD*%
D21*
%TO.C,H23*%
X77152500Y56832500D03*
%TD*%
D15*
%TO.C,H22*%
X71120000Y44132500D03*
%TD*%
D29*
%TO.C,H10*%
X65722500Y7230000D03*
%TD*%
D30*
%TO.C,C1*%
X13589000Y13615000D03*
X13589000Y12065000D03*
%TD*%
D31*
%TO.C,C12*%
X46990000Y43497500D03*
X10160000Y43497500D03*
%TD*%
D15*
%TO.C,H20*%
X17780000Y27940000D03*
%TD*%
D32*
%TO.C,LED1*%
X30797500Y27940000D03*
X29297400Y27940000D03*
%TD*%
D16*
%TO.C,R1*%
X15240000Y12002000D03*
X15240000Y13652000D03*
%TD*%
D26*
%TO.C,C14*%
X19050000Y18415000D03*
X17500000Y18415000D03*
%TD*%
D15*
%TO.C,H25*%
X75565000Y48577500D03*
%TD*%
D26*
%TO.C,C4*%
X83007500Y23812500D03*
X81457500Y23812500D03*
%TD*%
D15*
%TO.C,H15*%
X61595000Y21590000D03*
%TD*%
D20*
%TO.C,D3*%
X34607500Y12065000D03*
X34607500Y8680000D03*
%TD*%
D15*
%TO.C,H11*%
X77152500Y29210000D03*
%TD*%
D26*
%TO.C,C7*%
X83007500Y20637500D03*
X81457500Y20637500D03*
%TD*%
D15*
%TO.C,H28*%
X60960000Y51435000D03*
%TD*%
D33*
%TO.C,D7*%
X10160000Y52120800D03*
X10160000Y46990000D03*
%TD*%
D28*
%TO.C,R10*%
X59180000Y11430000D03*
X62105000Y11430000D03*
%TD*%
D30*
%TO.C,C10*%
X49530000Y23000000D03*
X49530000Y21450000D03*
%TD*%
D17*
%TO.C,D11*%
X80619600Y39687500D03*
X85750400Y39687500D03*
%TD*%
D34*
%TO.C,C9*%
X40817500Y20637500D03*
X42367500Y20637500D03*
%TD*%
D35*
%TO.C,Q2*%
X58675000Y38957000D03*
D36*
X60960000Y45804000D03*
D35*
X63245000Y38956000D03*
%TD*%
D34*
%TO.C,C3*%
X26987500Y9779000D03*
X28537500Y9779000D03*
%TD*%
D16*
%TO.C,R4*%
X49847500Y16130000D03*
X49847500Y17780000D03*
%TD*%
D15*
%TO.C,H21*%
X52387500Y46355000D03*
%TD*%
D37*
%TO.C,D8*%
X55905400Y50800000D03*
X50774600Y50800000D03*
%TD*%
D38*
%TO.C,C2*%
X34925000Y14287500D03*
X34925000Y15837500D03*
%TD*%
D15*
%TO.C,H7*%
X36195000Y27622500D03*
%TD*%
%TO.C,H4*%
X24765000Y28257500D03*
%TD*%
D26*
%TO.C,C11*%
X61417500Y16827500D03*
X59867500Y16827500D03*
%TD*%
D15*
%TO.C,H16*%
X52387500Y21590000D03*
%TD*%
%TO.C,H9*%
X46990000Y40640000D03*
%TD*%
D29*
%TO.C,R12*%
X10795000Y22225000D03*
X10795000Y29845000D03*
%TD*%
D15*
%TO.C,H5*%
X29845000Y22225000D03*
%TD*%
D39*
%TO.C,D6*%
X58950000Y8890000D03*
X62335000Y8890000D03*
%TD*%
D15*
%TO.C,H26*%
X75565000Y39687500D03*
%TD*%
D40*
%TO.C,LDO1*%
X85755500Y25781000D03*
D41*
X92679500Y23495000D03*
D40*
X85755500Y21209000D03*
%TD*%
D30*
%TO.C,C6*%
X47942500Y17742500D03*
X47942500Y16192500D03*
%TD*%
D15*
%TO.C,H3*%
X25717500Y22860000D03*
%TD*%
D39*
%TO.C,D5*%
X58950000Y3175000D03*
X62335000Y3175000D03*
%TD*%
D19*
%TO.C,H2*%
X31750000Y25400000D03*
%TD*%
D29*
%TO.C,J1*%
X4318000Y19050000D03*
X4318000Y16510000D03*
X4318000Y13970000D03*
X4318000Y11430000D03*
X4318000Y8890000D03*
%TD*%
D13*
%TO.C,U1*%
X18971000Y13652500D03*
X18971000Y12382500D03*
X18971000Y11112500D03*
X18971000Y9842500D03*
X18971000Y8572500D03*
X18971000Y7302500D03*
X18971000Y6032500D03*
X24209000Y6032500D03*
X24209000Y7302500D03*
X24209000Y8572500D03*
X24209000Y9842500D03*
X24209000Y11112500D03*
X24209000Y12382500D03*
X24209000Y13652500D03*
%TD*%
D12*
%TO.C,C5*%
X76330000Y14287500D03*
X70990000Y14287500D03*
%TD*%
D15*
%TO.C,H30*%
X68580000Y22225000D03*
%TD*%
D16*
%TO.C,R8*%
X40132000Y9653000D03*
X40132000Y11303000D03*
%TD*%
D28*
%TO.C,R11*%
X59180000Y14605000D03*
X62105000Y14605000D03*
%TD*%
D16*
%TO.C,R3*%
X36830000Y14287500D03*
X36830000Y15937500D03*
%TD*%
D15*
%TO.C,H14*%
X52387500Y29210000D03*
%TD*%
D17*
%TO.C,D13*%
X67945000Y56832500D03*
X73075800Y56832500D03*
%TD*%
D15*
%TO.C,H13*%
X56832500Y25400000D03*
%TD*%
D17*
%TO.C,D9*%
X50774600Y54927500D03*
X55905400Y54927500D03*
%TD*%
M02*
